<svg width="131" height="142" viewBox="0 0 131 142" fill="none" xmlns="http://www.w3.org/2000/svg">
<path d="M72.0805 86.0131C72.8469 85.8999 72.3118 86.7611 71.0612 88.0908C71.4967 88.0652 71.9317 88.0442 72.3707 87.9794C76.6141 87.3529 79.7393 83.6714 79.4852 79.5973C79.3017 76.661 77.955 73.1713 75.4371 68.8122C72.0383 62.9253 69.9482 59.8929 62.2721 50.0547L45.1582 65.0889C51.8275 77.1109 60.0489 87.7888 72.0805 86.0131Z" fill="url(#paint0_linear_278_12774)"/>
<path d="M57.3875 60.5855L46.7358 70.2995L47.0129 77.6576C47.0129 77.6576 46.1364 77.6579 46.5737 78.4154C47.011 79.1728 49.1573 81.3995 49.9066 82.4589C50.6695 83.5218 55.7223 87.5823 56.2576 88.4897C56.788 89.3885 64.0133 92.6996 68.4026 88.6735L74.4518 85.3769C75.8527 81.6931 73.2579 74.9791 71.1409 71.3124L71.131 71.2952C68.8054 67.2672 68.5906 66.4431 64.7125 61.2745C62.547 63.2498 59.1469 62.9297 57.3875 60.5855Z" fill="url(#paint1_linear_278_12774)"/>
<path d="M61.1622 72.9877C59.8969 71.2663 57.9273 70.5143 56.6242 71.553C55.3227 72.585 55.361 75.2316 56.8703 77.1972C58.3775 79.1677 60.5624 79.5192 61.6163 78.2453C62.6755 76.9643 62.4224 74.7176 61.1622 72.9877Z" fill="url(#paint2_linear_278_12774)"/>
<path d="M57.2816 76.7684C55.8878 74.9439 55.7944 72.5283 56.8751 71.4011C56.7912 71.4521 56.7027 71.4883 56.624 71.5529C55.3226 72.5849 55.3613 75.2313 56.8702 77.1973C58.3778 79.1675 60.5625 79.519 61.6162 78.2453C61.6819 78.1684 61.7261 78.0754 61.7815 77.991C60.6717 78.9997 58.6738 78.5974 57.2816 76.7684Z" fill="#DFFFD7"/>
<path d="M34.0125 48.3693L34.0175 48.378C33.6766 48.7814 33.3356 49.1847 32.9898 49.5796C23.6205 60.6238 14.4054 70.3052 11.0345 73.7893C10.1755 74.6869 9.68829 75.1747 9.68829 75.1747C9.68829 75.1747 18.6228 83.5931 27.7935 96.9131C36.6033 109.707 44.9249 120.602 56.773 112.798C57.6936 112.186 58.4406 111.353 58.9837 110.385C62.1613 104.757 65.9396 98.8192 70.0973 93.2384C70.9625 92.0733 75.5381 87.3009 76.6642 86.0311C54.8499 95.6761 34.1839 48.167 34.1839 48.167C33.8846 48.5234 34.3167 48.0216 34.0125 48.3693Z" fill="url(#paint3_linear_278_12774)"/>
<g filter="url(#filter0_f_278_12774)">
<path d="M39.7168 46.8311L39.7218 46.8398C40.2416 46.7462 40.7614 46.6527 41.2763 46.5506C55.5255 43.9587 68.5174 40.8188 73.2201 39.6416C74.427 39.3465 75.0931 39.1684 75.0931 39.1684C75.0931 39.1684 77.9164 51.1151 84.8665 65.7172C91.5415 79.7437 96.8162 92.3981 84.1334 98.7566C83.1431 99.2479 82.0482 99.4783 80.9387 99.4649C74.4758 99.4027 67.4442 99.7057 60.5322 100.516C59.0906 100.683 52.6698 102.259 51.007 102.599C70.267 88.5302 39.4559 46.8784 39.4559 46.8784C39.9141 46.7974 39.2636 46.9207 39.7168 46.8311Z" fill="#45B741" fill-opacity="0.49"/>
</g>
<path d="M29.8529 60.7727C26.0472 65.0568 22.5383 68.8633 19.7832 71.8015C21.4807 73.7276 21.44 76.6217 19.6801 78.491C23.0854 82.3387 27.4483 87.6527 31.8814 94.094C37.0269 101.555 40.8051 106.191 44.0491 108.53C44.0862 108.554 44.1197 108.592 44.1653 108.612C50.4578 113.667 60.3417 108.006 60.3417 108.006C63.3674 103.022 65.8114 98.9915 70.0975 93.2384C70.4602 92.7536 71.4833 91.6235 72.6206 90.3931C68.4162 92.3382 65.3581 91.5066 65.1981 91.511C57.3365 89.2444 47.9871 81.7771 37.8146 64.1579C37.291 63.251 36.7906 62.3616 36.3152 61.4968C34.4875 63.5566 31.1807 63.1852 29.8529 60.7727Z" fill="url(#paint4_linear_278_12774)"/>
<path d="M77.501 79.7212C77.6913 82.7724 75.3105 85.5361 72.0802 86.0131C52.8928 88.845 35.9993 47.3647 35.8319 46.9447L34.1837 48.167C36.2452 53.1409 52.5819 90.9003 72.3704 87.9794C76.6138 87.3529 79.739 83.6713 79.4849 79.5973C79.3015 76.661 77.9547 73.1713 75.4368 68.8122C72.0381 62.9253 69.9479 59.8929 62.2718 50.0547L60.776 51.3687C73.5946 67.8 77.1048 73.3745 77.501 79.7212Z" fill="url(#paint5_linear_278_12774)"/>
<path d="M35.9933 74.8401C34.728 73.1186 32.7584 72.3666 31.4552 73.4053C30.1538 74.4373 30.1921 77.084 31.7014 79.0496C33.2086 81.0201 35.3934 81.3715 36.4474 80.0976C37.5065 78.8167 37.2535 76.5699 35.9933 74.8401Z" fill="url(#paint6_linear_278_12774)"/>
<path d="M32.1132 78.6208C30.7194 76.7962 30.6259 74.3807 31.7067 73.2535C31.6228 73.3045 31.5343 73.3406 31.4555 73.4053C30.1541 74.4373 30.1928 77.0836 31.7018 79.0497C33.2093 81.0199 35.394 81.3714 36.4477 80.0976C36.5134 80.0207 36.5576 79.9278 36.613 79.8434C35.5032 80.852 33.5053 80.4498 32.1132 78.6208Z" fill="#DFFFD7"/>
<path d="M52.0241 88.2654C53.522 90.0242 54.3389 91.6962 54.7203 93.3724C53.8398 93.6348 52.9449 93.8713 52.0368 94.0813C51.7851 92.8549 51.2554 91.4672 50.2888 90.1559C49.5739 90.9587 48.8726 91.7767 48.1854 92.6093C49.6975 94.887 51.5765 97.2526 50.2465 99.7089C49.2879 101.525 46.4692 101.831 43.235 99.2274C42.8745 99.7602 42.5193 100.298 42.1696 100.84C41.4304 100.154 40.7112 99.4448 40.0131 98.713C40.4027 98.1812 40.7975 97.6547 41.1975 97.1334C39.6013 95.1681 38.7269 93.0221 38.5198 91.0037C39.4926 91.1449 40.4614 91.2553 41.4243 91.3354C41.5777 92.63 42.095 93.9167 42.8429 95.0549C43.4575 94.3021 44.0833 93.5613 44.7198 92.8325C43.1438 90.3602 41.9802 87.1871 44.191 85.4711C46.0081 84.0636 48.2641 84.5435 50.5789 86.7504C51.0287 86.3271 51.4824 85.9093 51.9403 85.4967C52.3787 85.997 52.8307 86.4817 53.2953 86.9501C52.8673 87.3835 52.4436 87.822 52.0241 88.2654ZM46.2051 95.1012C45.6963 95.7662 45.1959 96.44 44.7048 97.122C45.7266 97.926 46.5595 97.9571 46.9486 97.3762C47.2838 96.879 46.8835 96.101 46.2051 95.1012ZM46.842 90.4902C47.469 89.823 48.1053 89.1671 48.7508 88.5226C47.8386 87.7974 47.0316 87.7146 46.5653 88.1506C46.0748 88.6104 46.3092 89.4667 46.842 90.4902Z" fill="url(#paint7_linear_278_12774)"/>
<path d="M43.4936 98.8475C43.4072 98.9739 43.3209 99.1006 43.2351 99.2275C46.4692 101.832 49.2881 101.526 50.2465 99.7091C50.2852 99.639 50.2938 99.5685 50.3277 99.4983C49.275 101.123 46.5665 101.33 43.4936 98.8475Z" fill="#DFFFD7"/>
<path d="M50.5905 89.8194C50.4897 89.9313 50.3893 90.0436 50.289 90.1562C51.2554 91.4675 51.7851 92.855 52.037 94.0815C52.945 93.8716 53.8399 93.6351 54.7203 93.3727C54.7 93.2811 54.6574 93.1887 54.6341 93.0969C53.8655 93.3213 53.0861 93.526 52.2966 93.7105C52.0565 92.4927 51.5413 91.1174 50.5905 89.8194Z" fill="#DFFFD7"/>
<path d="M38.9117 91.0592C38.7813 91.0414 38.6508 91.0229 38.5201 91.004C38.7271 93.0226 39.6021 95.1682 41.1977 97.1336C41.291 97.0121 41.3847 96.8907 41.4786 96.7697C39.9994 94.9391 39.1695 92.9511 38.9117 91.0592Z" fill="#DFFFD7"/>
<path d="M40.0133 98.7133C40.7116 99.445 41.4306 100.154 42.1699 100.841C42.2532 100.711 42.3368 100.582 42.4208 100.454C41.6893 99.7726 40.9777 99.0683 40.2868 98.342C40.1953 98.4654 40.1042 98.5893 40.0133 98.7133Z" fill="#DFFFD7"/>
<path d="M44.4075 85.3333C44.3363 85.3826 44.2603 85.4161 44.1909 85.4713C41.9806 87.1871 43.1447 90.3605 44.7198 92.8327C44.8197 92.7183 44.9201 92.6041 45.0206 92.4902C43.5108 90.1018 42.4083 87.0615 44.4075 85.3333Z" fill="#DFFFD7"/>
<path d="M47.0073 97.1686C47.0746 97.1135 47.1527 97.0768 47.2061 96.9992C47.5439 96.5037 47.1514 95.7319 46.4834 94.7401C46.3904 94.8602 46.2977 94.9807 46.2053 95.1015C46.801 95.9792 47.1498 96.6714 47.0073 97.1686Z" fill="#DFFFD7"/>
<path d="M46.896 87.841C46.8399 87.8932 46.8238 87.9666 46.7858 88.0284C47.2675 87.7728 47.9608 87.895 48.751 88.5228C48.8577 88.4162 48.9646 88.3101 49.0718 88.2041C48.1686 87.4879 47.3637 87.4076 46.896 87.841Z" fill="#DFFFD7"/>
<defs>
<filter id="filter0_f_278_12774" x="0.456055" y="0.168457" width="130.4" height="141.431" filterUnits="userSpaceOnUse" color-interpolation-filters="sRGB">
<feFlood flood-opacity="0" result="BackgroundImageFix"/>
<feBlend mode="normal" in="SourceGraphic" in2="BackgroundImageFix" result="shape"/>
<feGaussianBlur stdDeviation="19.5" result="effect1_foregroundBlur_278_12774"/>
</filter>
<linearGradient id="paint0_linear_278_12774" x1="67.6626" y1="50.8371" x2="57.0463" y2="94.986" gradientUnits="userSpaceOnUse">
<stop stop-color="#82EA73"/>
<stop offset="0.832433" stop-color="#2FA52F"/>
</linearGradient>
<linearGradient id="paint1_linear_278_12774" x1="73.2192" y1="86.7061" x2="50.7989" y2="65.9167" gradientUnits="userSpaceOnUse">
<stop stop-color="#82EA73"/>
<stop offset="0.832433" stop-color="#2FA52F"/>
</linearGradient>
<linearGradient id="paint2_linear_278_12774" x1="60.3126" y1="72.391" x2="55.1153" y2="80.98" gradientUnits="userSpaceOnUse">
<stop offset="7e-07" stop-color="#82EA73"/>
<stop offset="0.89009" stop-color="#ADFF9F"/>
</linearGradient>
<linearGradient id="paint3_linear_278_12774" x1="64.5277" y1="105.586" x2="21.5123" y2="60.1676" gradientUnits="userSpaceOnUse">
<stop stop-color="#82EA73"/>
<stop offset="0.832433" stop-color="#2FA52F"/>
</linearGradient>
<linearGradient id="paint4_linear_278_12774" x1="24.3034" y1="66.4734" x2="63.5642" y2="104.697" gradientUnits="userSpaceOnUse">
<stop stop-color="#82EA73"/>
<stop offset="0.832433" stop-color="#2FA52F"/>
</linearGradient>
<linearGradient id="paint5_linear_278_12774" x1="44.8836" y1="37.0249" x2="66.3038" y2="83.0464" gradientUnits="userSpaceOnUse">
<stop stop-color="#82EA73"/>
<stop offset="0.832433" stop-color="#2FA52F"/>
</linearGradient>
<linearGradient id="paint6_linear_278_12774" x1="35.1466" y1="74.2324" x2="29.9492" y2="82.8213" gradientUnits="userSpaceOnUse">
<stop offset="7e-07" stop-color="#82EA73"/>
<stop offset="0.89009" stop-color="#ADFF9F"/>
</linearGradient>
<linearGradient id="paint7_linear_278_12774" x1="50.9869" y1="99.5907" x2="42.5463" y2="86.4688" gradientUnits="userSpaceOnUse">
<stop offset="7e-07" stop-color="#82EA73"/>
<stop offset="0.89009" stop-color="#ADFF9F"/>
</linearGradient>
</defs>
</svg>
