<svg width="198" height="183" viewBox="0 0 198 183" fill="none" xmlns="http://www.w3.org/2000/svg">
<path d="M69.0446 109.725C68.9604 111.077 67.4982 109.86 65.409 107.253C65.2859 108.008 65.1541 108.76 65.1058 109.535C64.6396 117.022 70.558 123.662 78.5809 124.651C84.3636 125.364 91.684 124.277 101.16 121.489C113.956 117.726 120.683 115.206 142.86 105.498L120.419 70.9283C94.3948 78.1481 70.3676 88.4963 69.0446 109.725Z" fill="url(#paint0_linear_278_12843)"/>
<path d="M124.322 93.4502L109.661 71.8092L95.2428 69.711C95.2428 69.711 95.59 68.2096 93.9435 68.6938C92.297 69.178 87.1151 72.0757 84.7578 72.9887C82.388 73.9237 72.4865 81.1584 70.5095 81.7581C68.5512 82.3523 59.2444 93.5702 65.331 102.496L69.3402 114.01C75.9473 117.697 90.0328 115.601 98.0033 113.257L98.0406 113.246C106.796 110.671 108.484 110.591 120.074 105.756C117.093 101.356 119.065 95.6441 124.322 93.4502Z" fill="url(#paint1_linear_278_12843)"/>
<path d="M98.7068 95.5789C102.557 94.0135 104.801 90.9029 103.298 88.3077C101.808 85.7177 96.6463 84.8578 92.225 86.7557C87.795 88.6483 86.2443 92.2677 88.3031 94.5183C90.3735 96.7804 94.8429 97.1325 98.7068 95.5789Z" fill="url(#paint2_linear_278_12843)"/>
<path d="M92.8955 87.6104C96.9966 85.8609 101.731 86.5455 103.494 88.7908C103.428 88.6293 103.393 88.465 103.298 88.3076C101.808 85.7176 96.6467 84.8586 92.2248 86.7557C87.7951 88.649 86.2444 92.2681 88.303 94.5183C88.4265 94.6577 88.5897 94.7658 88.7318 94.8903C87.211 92.6367 88.7863 89.3553 92.8955 87.6104Z" fill="#DFFFD7"/>
<path d="M157.356 57.6839L157.337 57.6895C156.688 56.9645 156.039 56.2395 155.408 55.509C137.652 35.5995 122.484 16.4305 117.047 9.4385C115.643 7.65339 114.887 6.64827 114.887 6.64827C114.887 6.64827 94.971 19.0079 65.4294 30.0583C37.0538 40.6744 12.5643 51.1183 23.0371 74.1407C23.8615 75.9316 25.1848 77.5023 26.8508 78.7709C36.5335 86.1814 46.5804 94.7292 55.782 103.802C57.7043 105.691 65.168 115.197 67.1902 117.57C57.0945 76.8336 157.681 58.0482 157.681 58.0482C157.107 57.4111 157.911 58.3266 157.356 57.6839Z" fill="url(#paint3_linear_278_12843)"/>
<g filter="url(#filter0_f_278_12843)">
<path d="M158.082 67.9925L158.063 67.998C158.039 68.921 158.015 69.8441 158.009 70.7617C157.392 96.0743 158.341 119.425 158.763 127.892C158.858 130.062 158.94 131.265 158.94 131.265C158.94 131.265 134.588 131.924 103.435 138.722C73.5103 145.251 46.8095 149.861 39.4798 125.914C38.9174 124.046 38.904 122.09 39.3706 120.194C42.0571 109.146 44.259 96.9966 45.4271 84.8743C45.6753 82.3467 45.1586 70.7978 45.157 67.8308C64.8697 105.739 158.094 67.5291 158.094 67.5291C158.069 68.3422 158.088 67.1848 158.082 67.9925Z" fill="#45B741" fill-opacity="0.49"/>
</g>
<path d="M134.888 46.2222C128.068 38.2058 122.059 30.8647 117.44 25.1182C113.02 27.3524 107.409 26.2706 104.473 22.6027C95.6388 27.0899 83.5736 32.7047 69.2885 38.0457C52.7372 44.2501 42.2232 49.1006 36.3872 53.8391C36.3249 53.8941 36.2376 53.9381 36.1814 54.0095C23.8546 63.0199 30.9382 81.9285 30.9382 81.9285C39.4283 88.8537 46.2964 94.4493 55.782 103.802C56.5809 104.593 58.3722 106.741 60.3134 109.119C58.1999 101.237 61.031 96.2899 61.086 96.0144C68.6142 83.3413 86.8459 69.9384 125.145 58.6755C127.117 58.0958 129.045 57.5497 130.915 57.0378C127.635 53.1869 129.67 47.6529 134.888 46.2222Z" fill="url(#paint4_linear_278_12843)"/>
<path d="M79.1273 121.21C73.1186 120.469 68.6895 115.425 69.0443 109.725C71.1541 75.8704 158.52 61.4386 159.403 61.2987L157.681 58.0483C147.191 59.8402 67.2809 74.6191 65.1055 109.535C64.6393 117.022 70.5576 123.662 78.5806 124.651C84.3633 125.364 91.6837 124.277 101.16 121.489C113.956 117.726 120.682 115.206 142.86 105.498L140.899 102.477C103.859 118.687 91.6259 122.75 79.1273 121.21Z" fill="url(#paint5_linear_278_12843)"/>
<path d="M105.096 51.8212C108.946 50.2559 111.19 47.1453 109.687 44.5501C108.197 41.9601 103.035 41.1002 98.6141 42.9981C94.1842 44.8907 92.6335 48.51 94.6923 50.7607C96.7626 53.0227 101.232 53.3749 105.096 51.8212Z" fill="url(#paint6_linear_278_12843)"/>
<path d="M99.2846 43.8528C103.386 42.1034 108.12 42.7879 109.883 45.0332C109.817 44.8717 109.782 44.7074 109.687 44.55C108.197 41.96 103.036 41.101 98.614 42.9981C94.1843 44.8914 92.6335 48.5105 94.6922 50.7607C94.8156 50.9001 94.9789 51.0083 95.121 51.1327C93.6002 48.8792 95.1755 45.5977 99.2846 43.8528Z" fill="#DFFFD7"/>
<path d="M72.6261 74.5846C68.6115 76.5354 65.036 77.35 61.6251 77.4171C61.4644 75.8172 61.3598 74.2018 61.3119 72.573C63.7966 72.5705 66.7052 72.1486 69.6388 70.9515C68.3616 69.4463 67.0493 67.959 65.703 66.4909C60.6737 68.2843 55.3279 70.6756 51.0794 67.5387C47.9276 65.2617 48.4518 60.3267 54.7991 55.6976C53.906 54.8938 53.0015 54.0974 52.0857 53.3088C53.7132 52.2826 55.3782 51.2989 57.0783 50.3589C57.9577 51.2121 58.8248 52.0725 59.6797 52.9399C64.1348 50.8932 68.655 50.1457 72.6619 50.4968C72.0013 52.1137 71.4021 53.7344 70.864 55.3557C68.2858 55.1657 65.5784 55.602 63.0683 56.485C64.2882 57.8009 65.4803 59.1318 66.6448 60.4769C72.0778 58.6419 78.71 57.7583 81.1692 62.1451C83.1848 65.7495 81.356 69.4459 76.1458 72.6392C76.7903 73.5575 77.4227 74.4808 78.0432 75.4092C76.8963 75.9852 75.7745 76.5899 74.6791 77.2219C74.0063 76.3373 73.3218 75.4582 72.6261 74.5846ZM61.6435 62.2276C60.5524 61.1236 59.4407 60.031 58.3095 58.9513C56.3405 60.4203 55.9495 61.836 56.9245 62.7056C57.7583 63.4536 59.4302 63.04 61.6435 62.2276ZM70.357 64.9308C71.4054 66.238 72.4284 67.5573 73.4254 68.8883C75.1976 67.5794 75.6789 66.2261 75.0162 65.2749C74.3169 64.274 72.5588 64.3762 70.357 64.9308Z" fill="url(#paint7_linear_278_12843)"/>
<path d="M55.4353 56.2735C55.2239 56.0813 55.0117 55.8892 54.799 55.6978C48.4512 60.3268 47.9272 65.2619 51.0793 67.5388C51.2003 67.6296 51.3341 67.6689 51.457 67.7515C48.7154 65.3804 49.3873 60.6687 55.4353 56.2735Z" fill="#DFFFD7"/>
<path d="M70.1735 71.5858C69.9958 71.3741 69.8174 71.1627 69.6383 70.9516C66.7047 72.1485 63.7964 72.5706 61.3115 72.5731C61.3593 74.2017 61.4639 75.8172 61.6247 77.4171C61.8108 77.4142 62.0074 77.3736 62.1952 77.3658C62.064 75.9708 61.9752 74.5643 61.9299 73.1475C64.3932 73.162 67.272 72.7605 70.1735 71.5858Z" fill="#DFFFD7"/>
<path d="M72.3994 51.149C72.4858 50.9318 72.5736 50.7147 72.6622 50.4974C68.6545 50.1457 64.1347 50.8939 59.6794 52.9401C59.8788 53.1425 60.0776 53.3455 60.2758 53.5488C64.4226 51.655 68.6181 50.9286 72.3994 51.149Z" fill="#DFFFD7"/>
<path d="M57.0783 50.3588C55.3782 51.2991 53.7132 52.2828 52.0855 53.3093C52.3038 53.4973 52.5214 53.6857 52.7384 53.8746C54.3532 52.8597 56.0051 51.8868 57.6918 50.9573C57.488 50.7573 57.2834 50.5579 57.0783 50.3588Z" fill="#DFFFD7"/>
<path d="M81.3514 62.5643C81.2838 62.4252 81.249 62.2832 81.169 62.145C78.71 57.7592 72.0773 58.6437 66.6446 60.4769C66.8275 60.6882 67.0097 60.9 67.1912 61.1119C72.4349 59.3611 78.7845 58.5357 81.3514 62.5643Z" fill="#DFFFD7"/>
<path d="M57.3052 62.8785C57.3857 63.0131 57.4262 63.1597 57.5559 63.2784C58.3854 64.0306 60.0421 63.6281 62.2359 62.8308C62.0391 62.6294 61.8416 62.4284 61.6434 62.2278C59.7002 62.9413 58.2155 63.2967 57.3052 62.8785Z" fill="#DFFFD7"/>
<path d="M75.4872 65.9495C75.4078 65.835 75.2715 65.7819 75.1665 65.6952C75.4722 66.6096 74.9593 67.7544 73.425 68.8882C73.5898 69.1083 73.7538 69.3286 73.9173 69.5492C75.6685 68.2527 76.1442 66.9021 75.4872 65.9495Z" fill="#DFFFD7"/>
<path d="M78.2097 49.4406C82.5778 48.156 84.9367 43.9956 83.4783 40.1481C82.02 36.3005 77.2967 34.2227 72.9287 35.5073C68.5606 36.7919 66.2017 40.9523 67.6601 44.7998C69.1184 48.6474 73.8417 50.7252 78.2097 49.4406Z" fill="url(#paint8_radial_278_12843)"/>
<path d="M76.7714 42.6443L79.5338 44.218L76.4456 43.2167L77.524 47.6331L75.374 43.5318L73.5881 45.9664L74.7248 43.2462L69.711 44.1962L74.3665 42.301L71.6031 40.7293L74.6907 41.7291L73.6128 37.3141L75.7628 41.4154L77.5487 38.9808L76.4132 41.6991L81.4259 40.7511L76.7714 42.6443Z" fill="url(#paint9_radial_278_12843)"/>
<defs>
<filter id="filter0_f_278_12843" x="0.0380859" y="28.5291" width="197.901" height="154.433" filterUnits="userSpaceOnUse" color-interpolation-filters="sRGB">
<feFlood flood-opacity="0" result="BackgroundImageFix"/>
<feBlend mode="normal" in="SourceGraphic" in2="BackgroundImageFix" result="shape"/>
<feGaussianBlur stdDeviation="19.5" result="effect1_foregroundBlur_278_12843"/>
</filter>
<linearGradient id="paint0_linear_278_12843" x1="139.199" y1="114.458" x2="61.5863" y2="73.2598" gradientUnits="userSpaceOnUse">
<stop stop-color="#82EA73"/>
<stop offset="0.832433" stop-color="#2FA52F"/>
</linearGradient>
<linearGradient id="paint1_linear_278_12843" x1="67.2448" y1="111.434" x2="112.168" y2="74.8893" gradientUnits="userSpaceOnUse">
<stop stop-color="#82EA73"/>
<stop offset="0.832433" stop-color="#2FA52F"/>
</linearGradient>
<linearGradient id="paint2_linear_278_12843" x1="100.204" y1="94.3323" x2="87.2836" y2="80.7884" gradientUnits="userSpaceOnUse">
<stop offset="7e-07" stop-color="#82EA73"/>
<stop offset="0.89009" stop-color="#ADFF9F"/>
</linearGradient>
<linearGradient id="paint3_linear_278_12843" x1="33.9821" y1="89.9448" x2="131.507" y2="21.0144" gradientUnits="userSpaceOnUse">
<stop stop-color="#82EA73"/>
<stop offset="0.832433" stop-color="#2FA52F"/>
</linearGradient>
<linearGradient id="paint4_linear_278_12843" x1="126.006" y1="34.7236" x2="43.6243" y2="98.3541" gradientUnits="userSpaceOnUse">
<stop stop-color="#82EA73"/>
<stop offset="0.832433" stop-color="#2FA52F"/>
</linearGradient>
<linearGradient id="paint5_linear_278_12843" x1="175.1" y1="80.2712" x2="78.6077" y2="106.412" gradientUnits="userSpaceOnUse">
<stop stop-color="#82EA73"/>
<stop offset="0.832433" stop-color="#2FA52F"/>
</linearGradient>
<linearGradient id="paint6_linear_278_12843" x1="106.614" y1="50.5836" x2="93.693" y2="37.0396" gradientUnits="userSpaceOnUse">
<stop offset="7e-07" stop-color="#82EA73"/>
<stop offset="0.89009" stop-color="#ADFF9F"/>
</linearGradient>
<linearGradient id="paint7_linear_278_12843" x1="51.0153" y1="68.8482" x2="78.8299" y2="56.5918" gradientUnits="userSpaceOnUse">
<stop offset="7e-07" stop-color="#82EA73"/>
<stop offset="0.89009" stop-color="#ADFF9F"/>
</linearGradient>
<radialGradient id="paint8_radial_278_12843" cx="0" cy="0" r="1" gradientUnits="userSpaceOnUse" gradientTransform="translate(75.5692 42.474) rotate(-16.3874) scale(8.24403 7.42862)">
<stop offset="0.306307" stop-color="white" stop-opacity="0.5"/>
<stop offset="1" stop-color="white" stop-opacity="0"/>
</radialGradient>
<radialGradient id="paint9_radial_278_12843" cx="0" cy="0" r="1" gradientUnits="userSpaceOnUse" gradientTransform="translate(75.5692 42.4739) rotate(-16.3874) scale(6.10433 5.50056)">
<stop offset="0.306306" stop-color="white"/>
<stop offset="1" stop-color="white" stop-opacity="0"/>
</radialGradient>
</defs>
</svg>
