<svg width="191" height="208" viewBox="0 0 191 208" fill="none" xmlns="http://www.w3.org/2000/svg">
<path d="M71.2632 37.9684C51.4624 44.7248 40.8878 66.2537 47.6442 86.0546C54.4006 105.855 75.9296 116.43 95.7304 109.674C115.531 102.917 126.106 81.3882 119.349 61.5874C112.593 41.7865 91.064 31.212 71.2632 37.9684Z" fill="url(#paint0_linear_278_12919)"/>
<g filter="url(#filter0_f_278_12919)">
<path d="M92.8296 85.4442C73.0288 92.2006 62.4542 113.73 69.2106 133.53C75.9671 153.331 97.496 163.906 117.297 157.149C137.098 150.393 147.672 128.864 140.916 109.063C134.159 89.2623 112.63 78.6877 92.8296 85.4442Z" fill="#FFDDBC"/>
</g>
<path d="M75.9859 38.9621C56.185 45.7185 45.6104 67.2475 52.3669 87.0483C59.1233 106.849 80.6522 117.424 100.453 110.667C120.254 103.911 130.828 82.3819 124.072 62.5811C117.316 42.7802 95.7867 32.2057 75.9859 38.9621Z" fill="url(#paint1_linear_278_12919)"/>
<path d="M76.5254 40.5424C56.7246 47.2989 46.15 68.8278 52.9064 88.6286C59.6629 108.429 81.1918 119.004 100.993 112.248C120.793 105.491 131.368 83.9623 124.612 64.1614C117.855 44.3606 96.3262 33.786 76.5254 40.5424Z" fill="url(#paint2_linear_278_12919)"/>
<path d="M76.9335 41.7384C57.7931 48.2695 47.5713 69.0802 54.1023 88.2206C60.6334 107.361 81.4442 117.583 100.585 111.052C119.725 104.521 129.947 83.7099 123.416 64.5695C116.885 45.4292 96.0738 35.2073 76.9335 41.7384Z" fill="url(#paint3_linear_278_12919)"/>
<path d="M78.7834 47.1602C62.6375 52.6696 54.0148 70.2246 59.5241 86.3706C65.0334 102.516 82.5885 111.139 98.7344 105.63C114.88 100.121 123.503 82.5655 117.994 66.4196C112.484 50.2736 94.9294 41.6509 78.7834 47.1602Z" fill="url(#paint4_linear_278_12919)"/>
<path d="M84.6908 59.4538C88.7498 58.4459 92.1538 58.9619 94.8864 60.3348L93.3792 65.3775C91.4899 64.3867 89.0134 63.7647 86.3053 64.1854L88.3301 70.1195C92.5316 69.7759 97.2255 69.7676 98.9681 74.8746C100.262 78.6676 98.3593 82.9228 93.4685 85.1783L94.6603 88.6712L91.0936 89.8883L89.8762 86.3207C86.7187 87.0202 83.7672 86.7278 81.1114 85.5802L82.7453 80.6619C84.5207 81.4398 86.404 81.6776 88.236 81.5137L86.4291 76.2182C82.2275 76.5618 77.3959 76.5338 75.653 71.426C74.2306 67.2576 75.845 63.143 81.1369 60.7086L79.9707 57.291L83.5375 56.074L84.6908 59.4538ZM90.3164 75.9405L91.8797 80.5221C93.4923 79.7202 94.1122 78.4608 93.6764 77.1836C93.3047 76.0942 92.0472 75.8524 90.3164 75.9405ZM84.4557 70.4349L82.7385 65.4025C81.0263 66.4059 80.4594 67.8156 80.8566 68.9796C81.2795 70.2191 82.6607 70.4607 84.4557 70.4349Z" fill="#F47832"/>
<path opacity="0.7" d="M59.5978 66.1904C57.8898 71.9175 57.8879 78.2107 59.9652 84.2988C65.2796 99.8735 82.2164 108.192 97.7911 102.878C113.373 97.5614 121.692 80.6246 116.377 65.0499C114.3 58.9619 110.452 53.9824 105.599 50.4939C111.2 54.1303 115.67 59.6117 117.994 66.4225C123.503 82.567 114.882 100.119 98.7302 105.63C82.5856 111.139 65.0336 102.518 59.5248 86.3734C57.2008 79.5625 57.3876 72.4923 59.5978 66.1904Z" fill="url(#paint5_linear_278_12919)"/>
<path d="M74.4548 97.3945C81.0275 99.3941 88.4885 99.3852 95.7557 96.9055C103.023 94.4258 108.933 89.8722 112.913 84.2719C110.731 91.3349 104.931 97.4819 96.8888 100.226C88.8461 102.971 80.4989 101.651 74.4548 97.3945Z" fill="url(#paint6_linear_278_12919)"/>
<path opacity="0.6" d="M90.2021 80.6294C81.9734 83.4372 77.5788 92.3841 80.3866 100.613C83.1945 108.842 92.1413 113.236 100.37 110.428C108.599 107.621 112.993 98.6736 110.186 90.4449C107.378 82.2161 98.4309 77.8216 90.2021 80.6294Z" fill="url(#paint7_radial_278_12919)"/>
<path d="M96.7554 42.9684C91.1021 42.0043 84.5304 42.5167 77.9617 44.7581C71.3931 46.9994 65.8788 50.611 61.994 54.8296C64.3948 49.7016 69.9194 44.9741 77.189 42.4935C84.4586 40.013 91.7208 40.3774 96.7554 42.9684Z" fill="url(#paint8_linear_278_12919)"/>
<path opacity="0.6" d="M68.8635 41.5913C62.4083 43.7939 58.9609 50.8125 61.1636 57.2678C63.3662 63.723 70.3848 67.1704 76.8401 64.9678C83.2953 62.7651 86.7427 55.7465 84.5401 49.2913C82.3374 42.836 75.3188 39.3886 68.8635 41.5913Z" fill="url(#paint9_radial_278_12919)"/>
<path d="M64.1286 94.9308L61.0381 92.9609L64.4869 94.2044L63.2486 88.6268L65.678 93.798L67.6473 90.7057L66.4037 94.1545L71.9814 92.9161L66.8108 95.3474L69.9025 97.3148L66.4543 96.0731L67.692 101.649L65.2626 96.4777L63.2933 99.57L64.5357 96.1237L58.9592 97.3596L64.1286 94.9308Z" fill="url(#paint10_radial_278_12919)"/>
<g opacity="0.15">
<path opacity="0.15" d="M63.3486 104.493C73.2249 113.408 87.5069 116.85 100.992 112.249C120.793 105.492 131.368 83.9628 124.611 64.1616C123.342 60.4428 121.552 57.0497 119.35 54.0354C81.3175 66.0126 71.7056 84.8569 63.3486 104.493Z" fill="white"/>
</g>
<defs>
<filter id="filter0_f_278_12919" x="19.1704" y="35.4041" width="171.786" height="171.785" filterUnits="userSpaceOnUse" color-interpolation-filters="sRGB">
<feFlood flood-opacity="0" result="BackgroundImageFix"/>
<feBlend mode="normal" in="SourceGraphic" in2="BackgroundImageFix" result="shape"/>
<feGaussianBlur stdDeviation="24" result="effect1_foregroundBlur_278_12919"/>
</filter>
<linearGradient id="paint0_linear_278_12919" x1="119.351" y1="61.5868" x2="47.6442" y2="86.0546" gradientUnits="userSpaceOnUse">
<stop stop-color="#FF7C00"/>
<stop offset="0.341442" stop-color="#F85C03"/>
<stop offset="0.64054" stop-color="#FF7C00"/>
<stop offset="1" stop-color="#F85A03"/>
</linearGradient>
<linearGradient id="paint1_linear_278_12919" x1="100.454" y1="110.669" x2="75.9859" y2="38.9621" gradientUnits="userSpaceOnUse">
<stop stop-color="#FF7C00"/>
<stop offset="0.341442" stop-color="#F85C03"/>
<stop offset="0.64054" stop-color="#FF7C00"/>
<stop offset="1" stop-color="#F85A03"/>
</linearGradient>
<linearGradient id="paint2_linear_278_12919" x1="100.993" y1="112.248" x2="76.5254" y2="40.5424" gradientUnits="userSpaceOnUse">
<stop offset="4e-07" stop-color="#FDBC2E"/>
<stop offset="0.754955" stop-color="#FF7C00"/>
</linearGradient>
<linearGradient id="paint3_linear_278_12919" x1="100.585" y1="111.052" x2="76.9335" y2="41.7384" gradientUnits="userSpaceOnUse">
<stop stop-color="#FAE28E"/>
<stop offset="0.751352" stop-color="#FAE25C"/>
</linearGradient>
<linearGradient id="paint4_linear_278_12919" x1="98.7344" y1="105.63" x2="78.7834" y2="47.1602" gradientUnits="userSpaceOnUse">
<stop stop-color="#FAE25C"/>
<stop offset="0.751352" stop-color="#FDBC2E"/>
</linearGradient>
<linearGradient id="paint5_linear_278_12919" x1="98.7341" y1="105.628" x2="82.5993" y2="58.3427" gradientUnits="userSpaceOnUse">
<stop stop-color="#FF7C00"/>
<stop offset="0.341442" stop-color="#F85C03"/>
<stop offset="0.64054" stop-color="#FF7C00"/>
<stop offset="1" stop-color="#F85A03"/>
</linearGradient>
<linearGradient id="paint6_linear_278_12919" x1="114.516" y1="88.9674" x2="76.0568" y2="102.09" gradientUnits="userSpaceOnUse">
<stop stop-color="white" stop-opacity="0"/>
<stop offset="0.355856" stop-color="white"/>
<stop offset="0.640541" stop-color="white" stop-opacity="0.999"/>
<stop offset="1" stop-color="white" stop-opacity="0"/>
</linearGradient>
<radialGradient id="paint7_radial_278_12919" cx="0" cy="0" r="1" gradientUnits="userSpaceOnUse" gradientTransform="translate(95.2861 95.5289) rotate(161.159) scale(15.743)">
<stop offset="0.306306" stop-color="white" stop-opacity="0.999"/>
<stop offset="1" stop-color="white" stop-opacity="0"/>
</radialGradient>
<linearGradient id="paint8_linear_278_12919" x1="60.9007" y1="51.6262" x2="95.6629" y2="39.7647" gradientUnits="userSpaceOnUse">
<stop stop-color="white" stop-opacity="0"/>
<stop offset="0.323423" stop-color="white"/>
<stop offset="0.687387" stop-color="white" stop-opacity="0.999"/>
<stop offset="1" stop-color="white" stop-opacity="0"/>
</linearGradient>
<radialGradient id="paint9_radial_278_12919" cx="0" cy="0" r="1" gradientUnits="userSpaceOnUse" gradientTransform="translate(72.8513 53.278) rotate(-18.8406) scale(12.35)">
<stop offset="0.306306" stop-color="white" stop-opacity="0.999"/>
<stop offset="1" stop-color="white" stop-opacity="0"/>
</radialGradient>
<radialGradient id="paint10_radial_278_12919" cx="0" cy="0" r="1" gradientUnits="userSpaceOnUse" gradientTransform="translate(65.4708 95.1371) rotate(161.159) scale(6.87922 6.87922)">
<stop offset="0.306306" stop-color="white"/>
<stop offset="1" stop-color="white" stop-opacity="0"/>
</radialGradient>
</defs>
</svg>
