<svg width="163" height="168" viewBox="0 0 163 168" fill="none" xmlns="http://www.w3.org/2000/svg">
<path d="M118.281 17.4885C102.796 7.95099 82.5116 12.7723 72.9741 28.2573C63.4365 43.7422 68.2579 64.0269 83.7428 73.5645C99.2277 83.102 119.512 78.2807 129.05 62.7958C138.588 47.3108 133.766 27.0261 118.281 17.4885Z" fill="url(#paint0_linear_278_12821)"/>
<g filter="url(#filter0_f_278_12821)">
<path d="M98.3824 58.2144C82.8974 48.6768 62.6127 53.4981 53.0752 68.9831C43.5376 84.468 48.3589 104.753 63.8439 114.29C79.3288 123.828 99.6135 119.007 109.151 103.522C118.689 88.0367 113.867 67.7519 98.3824 58.2144Z" fill="#FFDDBC"/>
</g>
<path d="M120.228 21.2047C104.743 11.6672 84.4579 16.4885 74.9204 31.9734C65.3828 47.4584 70.2041 67.7431 85.6891 77.2807C101.174 86.8182 121.459 81.9969 130.996 66.512C140.534 51.027 135.713 30.7423 120.228 21.2047Z" fill="url(#paint1_linear_278_12821)"/>
<path d="M119.466 22.4406C103.981 12.9031 83.6967 17.7244 74.1591 33.2093C64.6216 48.6943 69.4429 68.979 84.9279 78.5166C100.413 88.0541 120.698 83.2328 130.235 67.7479C139.773 52.2629 134.951 31.9782 119.466 22.4406Z" fill="url(#paint2_linear_278_12821)"/>
<path d="M118.891 23.3759C103.922 14.1565 84.3141 18.817 75.0947 33.7854C65.8753 48.7538 70.5358 68.3619 85.5042 77.5813C100.473 86.8007 120.081 82.1402 129.3 67.1718C138.52 52.2034 133.859 32.5953 118.891 23.3759Z" fill="url(#paint3_linear_278_12821)"/>
<path d="M116.279 27.616C103.652 19.8389 87.1115 23.7703 79.3344 36.397C71.5573 49.0237 75.4887 65.5642 88.1154 73.3413C100.742 81.1183 117.283 77.187 125.06 64.5603C132.837 51.9336 128.905 35.3931 116.279 27.616Z" fill="url(#paint4_linear_278_12821)"/>
<path d="M111.305 38.378C114.226 40.5418 115.763 43.1095 116.355 45.7012L112.14 47.4806C111.759 45.6657 110.806 43.6612 109.026 42.0783L106.167 46.719C108.722 49.3458 111.325 52.4882 108.865 56.4821C107.038 59.4484 103.132 60.5267 98.9138 58.4955L97.2314 61.2271L94.442 59.509L96.1604 56.7191C93.9445 54.9891 92.5076 52.8484 91.8077 50.433L96.0092 48.8072C96.4699 50.428 97.3523 51.8222 98.4758 52.9599L101.027 48.8186C98.4716 46.1917 95.8172 42.9368 98.2775 38.9423C100.285 35.6825 103.937 34.4884 108.497 36.6895L110.143 34.0169L112.933 35.7349L111.305 38.378ZM103.363 51.2712L101.157 54.8542C102.586 55.4917 103.774 55.2105 104.389 54.2117C104.914 53.3598 104.38 52.3829 103.363 51.2712ZM103.812 44.2958L106.236 40.3603C104.616 39.7674 103.357 40.1673 102.797 41.0776C102.2 42.0469 102.802 43.1066 103.812 44.2958Z" fill="#F47832"/>
<path opacity="0.7" d="M92.9052 25.2813C88.1204 27.3047 83.9 30.7853 80.9675 35.5464C73.4656 47.7263 77.2585 63.6843 89.4385 71.1862C101.624 78.6914 117.582 74.8985 125.084 62.7186C128.016 57.9575 129.226 52.6224 128.88 47.4389C129.541 53.2063 128.339 59.2356 125.058 64.5619C117.282 77.1875 100.744 81.1182 88.1128 73.3385C75.4872 65.562 71.5565 49.0244 79.3329 36.3988C82.6136 31.0725 87.4571 27.2861 92.9052 25.2813Z" fill="url(#paint5_linear_278_12821)"/>
<path d="M80.2039 52.5063C82.4997 58.0194 86.6336 63.0167 92.3167 66.5171C97.9999 70.0175 104.323 71.4607 110.279 71.0304C104.337 73.4753 97.0068 72.9879 90.7172 69.114C84.4276 65.2401 80.6944 58.9134 80.2039 52.5063Z" fill="url(#paint6_linear_278_12821)"/>
<path opacity="0.6" d="M100.157 53.7888C93.7214 49.8253 85.2916 51.8289 81.328 58.264C77.3644 64.6992 79.368 73.129 85.8032 77.0926C92.2384 81.0562 100.668 79.0526 104.632 72.6174C108.595 66.1822 106.592 57.7524 100.157 53.7888Z" fill="url(#paint7_radial_278_12821)"/>
<path d="M129.033 37.3462C126.551 33.0226 122.572 28.9 117.435 25.736C112.298 22.5721 106.826 20.8732 101.848 20.6025C106.614 19.375 112.841 20.4635 118.526 23.9651C124.211 27.4667 127.984 32.5373 129.033 37.3462Z" fill="url(#paint8_linear_278_12821)"/>
<path opacity="0.6" d="M114.525 17.8839C109.476 14.7746 102.863 16.3463 99.754 21.3946C96.6446 26.4428 98.2164 33.0558 103.265 36.1651C108.313 39.2744 114.926 37.7027 118.035 32.6544C121.145 27.6062 119.573 20.9932 114.525 17.8839Z" fill="url(#paint9_radial_278_12821)"/>
<path d="M76.143 44.2201L75.7539 41.0582L76.8282 44.0584L79.8827 40.1423L77.7597 44.6322L80.9225 44.2416L77.9222 45.3159L81.8384 48.3704L77.3476 46.2488L77.739 49.4102L76.6639 46.4113L73.6102 50.3261L75.7333 45.8362L72.5705 46.2267L75.5684 45.153L71.6546 42.0979L76.143 44.2201Z" fill="url(#paint10_radial_278_12821)"/>
<defs>
<filter id="filter0_f_278_12821" x="0.179199" y="5.31818" width="161.868" height="161.868" filterUnits="userSpaceOnUse" color-interpolation-filters="sRGB">
<feFlood flood-opacity="0" result="BackgroundImageFix"/>
<feBlend mode="normal" in="SourceGraphic" in2="BackgroundImageFix" result="shape"/>
<feGaussianBlur stdDeviation="24" result="effect1_foregroundBlur_278_12821"/>
</filter>
<linearGradient id="paint0_linear_278_12821" x1="129.051" y1="62.7965" x2="72.9741" y2="28.2573" gradientUnits="userSpaceOnUse">
<stop stop-color="#FF7C00"/>
<stop offset="0.341442" stop-color="#F85C03"/>
<stop offset="0.64054" stop-color="#FF7C00"/>
<stop offset="1" stop-color="#F85A03"/>
</linearGradient>
<linearGradient id="paint1_linear_278_12821" x1="85.6883" y1="77.2819" x2="120.228" y2="21.2047" gradientUnits="userSpaceOnUse">
<stop stop-color="#FF7C00"/>
<stop offset="0.341442" stop-color="#F85C03"/>
<stop offset="0.64054" stop-color="#FF7C00"/>
<stop offset="1" stop-color="#F85A03"/>
</linearGradient>
<linearGradient id="paint2_linear_278_12821" x1="84.9279" y1="78.5166" x2="119.466" y2="22.4406" gradientUnits="userSpaceOnUse">
<stop offset="4e-07" stop-color="#FDBC2E"/>
<stop offset="0.754955" stop-color="#FF7C00"/>
</linearGradient>
<linearGradient id="paint3_linear_278_12821" x1="85.5042" y1="77.5813" x2="118.891" y2="23.3759" gradientUnits="userSpaceOnUse">
<stop stop-color="#FAE28E"/>
<stop offset="0.751352" stop-color="#FAE25C"/>
</linearGradient>
<linearGradient id="paint4_linear_278_12821" x1="88.1154" y1="73.3413" x2="116.279" y2="27.616" gradientUnits="userSpaceOnUse">
<stop stop-color="#FAE25C"/>
<stop offset="0.751352" stop-color="#FDBC2E"/>
</linearGradient>
<linearGradient id="paint5_linear_278_12821" x1="88.1163" y1="73.34" x2="110.893" y2="36.3611" gradientUnits="userSpaceOnUse">
<stop stop-color="#FF7C00"/>
<stop offset="0.341442" stop-color="#F85C03"/>
<stop offset="0.64054" stop-color="#FF7C00"/>
<stop offset="1" stop-color="#F85A03"/>
</linearGradient>
<linearGradient id="paint6_linear_278_12821" x1="108.018" y1="74.703" x2="77.9419" y2="56.1784" gradientUnits="userSpaceOnUse">
<stop stop-color="white" stop-opacity="0"/>
<stop offset="0.355856" stop-color="white"/>
<stop offset="0.640541" stop-color="white" stop-opacity="0.999"/>
<stop offset="1" stop-color="white" stop-opacity="0"/>
</linearGradient>
<radialGradient id="paint7_radial_278_12821" cx="0" cy="0" r="1" gradientUnits="userSpaceOnUse" gradientTransform="translate(92.9799 65.4407) rotate(-148.37) scale(13.6847)">
<stop offset="0.306306" stop-color="white" stop-opacity="0.999"/>
<stop offset="1" stop-color="white" stop-opacity="0"/>
</radialGradient>
<linearGradient id="paint8_linear_278_12821" x1="103.391" y1="18.0972" x2="130.576" y2="34.8413" gradientUnits="userSpaceOnUse">
<stop stop-color="white" stop-opacity="0"/>
<stop offset="0.323423" stop-color="white"/>
<stop offset="0.687387" stop-color="white" stop-opacity="0.999"/>
<stop offset="1" stop-color="white" stop-opacity="0"/>
</linearGradient>
<radialGradient id="paint9_radial_278_12821" cx="0" cy="0" r="1" gradientUnits="userSpaceOnUse" gradientTransform="translate(108.895 27.0233) rotate(31.6299) scale(10.7353)">
<stop offset="0.306306" stop-color="white" stop-opacity="0.999"/>
<stop offset="1" stop-color="white" stop-opacity="0"/>
</radialGradient>
<radialGradient id="paint10_radial_278_12821" cx="0" cy="0" r="1" gradientUnits="userSpaceOnUse" gradientTransform="translate(76.7473 45.2341) rotate(-148.37) scale(5.97982 5.97982)">
<stop offset="0.306306" stop-color="white"/>
<stop offset="1" stop-color="white" stop-opacity="0"/>
</radialGradient>
</defs>
</svg>
