<svg width="32" height="32" viewBox="0 0 32 32" fill="none" xmlns="http://www.w3.org/2000/svg">
<g clip-path="url(#clip0_410_4166)">
<path d="M15.9992 32.0001C7.16301 32.0001 -0.000135422 24.837 -0.000135422 16.0008C-0.000135422 7.16461 7.16301 0.00146484 15.9992 0.00146484C24.8354 0.00146484 31.9985 7.16461 31.9985 16.0008C31.9985 24.837 24.8354 32.0001 15.9992 32.0001Z" fill="white"/>
<path d="M0.914316 10.6653H10.7725C10.3442 14.0832 10.3417 17.8491 10.7642 21.2713H0.893306C0.317052 19.6203 0.00028038 17.8474 0.00028038 16.0001C1.04904e-05 14.1286 0.324145 12.3339 0.914316 10.6653Z" fill="#2B479D"/>
<path d="M10.7727 10.6653H0.914783C0.916269 10.6602 0.917824 10.656 0.91985 10.6514C2.96741 4.87756 8.23482 0.629565 14.5635 0.0656738C12.1142 1.40815 11.3987 5.66149 10.7727 10.6653Z" fill="#EFECEC"/>
<path d="M14.563 31.9336C8.22298 31.3687 2.94826 27.106 0.90854 21.3167C0.903203 21.3013 0.898677 21.2861 0.893137 21.2712H10.7642C11.3854 26.3022 12.1039 30.5855 14.563 31.9336Z" fill="#E63026"/>
<path d="M32 16.0001C32 17.8476 31.6827 19.6203 31.107 21.2713H9.94075C9.51785 17.8489 9.52089 14.0831 9.94859 10.6653H31.0857C31.6759 12.334 32 14.1287 32 16.0001Z" fill="#3757A6"/>
<path d="M31.0804 10.6516C31.0819 10.6561 31.0834 10.6605 31.0854 10.6655H9.94827C10.5748 5.66165 12.1138 1.40838 14.5628 0.0659087C15.0365 0.0239564 15.5155 0.000244141 16 0.000244141C22.9603 0.000176585 28.8792 4.44544 31.0804 10.6516Z" fill="#EFEFEF"/>
<path d="M9.94071 21.2712H31.1069C31.1016 21.2862 31.0966 21.3013 31.0915 21.3167C28.8991 27.5388 22.9717 31.9998 16.0003 31.9998C15.5157 31.9998 15.0367 31.976 14.5631 31.9335C12.1037 30.5855 10.562 26.3022 9.94071 21.2712Z" fill="#E73B36"/>
</g>
<defs>
<clipPath id="clip0_410_4166">
<rect width="32" height="32" fill="white" transform="matrix(-1 0 0 1 32 0)"/>
</clipPath>
</defs>
</svg>
