<svg width="23" height="24" viewBox="0 0 23 24" fill="none" xmlns="http://www.w3.org/2000/svg">
<g clip-path="url(#clip0_501_924)">
<path d="M3.47312 0.401123H19.5269C21.445 0.401123 23 1.95609 23 3.87424V19.9257C23 21.8439 21.445 23.3988 19.5269 23.3988H3.47312C1.55497 23.3988 0 21.8439 0 19.9257V3.87424C0 1.95609 1.55497 0.401123 3.47312 0.401123Z" fill="#0A66C2"/>
<path d="M7.35903 19.7028V9.2511H3.88511V19.7028H7.35903ZM5.62253 7.82326C6.83394 7.82326 7.58799 7.02069 7.58799 6.01776C7.56541 4.9922 6.83398 4.21191 5.64553 4.21191C4.45723 4.21191 3.68018 4.99221 3.68018 6.01776C3.68018 7.02074 4.43404 7.82326 5.59987 7.82326H5.62245H5.62253Z" fill="white"/>
<path d="M9.28174 19.7026H12.7557V13.8659C12.7557 13.5535 12.7782 13.2415 12.87 13.0182C13.1211 12.3941 13.6927 11.7477 14.6524 11.7477C15.9094 11.7477 16.4123 12.7061 16.4123 14.1112V19.7026H19.886V13.7097C19.886 10.4994 18.1722 9.00562 15.8865 9.00562C14.0125 9.00562 13.1897 10.0531 12.7325 10.7666H12.7557V9.2508H9.28182C9.3274 10.2315 9.28182 19.7025 9.28182 19.7025L9.28174 19.7026Z" fill="white"/>
</g>
<defs>
<clipPath id="clip0_501_924">
<rect width="23" height="23" fill="white" transform="translate(0 0.399902)"/>
</clipPath>
</defs>
</svg>
