<svg width="17" height="22" viewBox="0 0 17 22" fill="none" xmlns="http://www.w3.org/2000/svg">
<path d="M16.4168 6.51662C16.5068 4.80712 16.7542 3.03013 16.5743 1.34312C16.5743 1.32062 16.5743 1.32062 16.5743 1.29813C16.6642 1.09569 16.5743 0.803271 16.2818 0.780778C16.6417 0.780778 15.9444 0.690804 15.832 0.690804C15.3371 0.690804 14.8648 0.66831 14.3699 0.66831C12.7954 0.645817 11.2208 0.623323 9.64626 0.60083C6.85707 0.555843 4.04538 0.398388 1.25619 0.60083C1.09873 0.623323 0.986263 0.690804 0.941276 0.848258C0.941276 0.848258 0.941276 0.848258 0.941276 0.825765C0.918783 0.848258 0.918783 0.870752 0.918783 0.893245C0.806315 0.915739 0.693848 0.983219 0.671354 1.14067C0.536393 2.13039 0.783822 3.25506 0.783822 4.26727C0.783822 4.94208 0.243978 8.18114 0.491406 8.38358C0.446419 8.33859 0.356445 8.36109 0.356445 8.45106C0.356445 8.58602 0.356445 8.72098 0.378939 8.85595C0.401432 9.17085 0.761328 9.30582 0.986263 9.12587C1.30117 9.26083 1.77354 9.26083 2.02096 9.28332C3.01068 9.39579 4.00039 9.44078 4.99011 9.46327C5.14756 9.46327 5.28252 9.3733 5.3725 9.26083C5.41748 9.19335 5.43998 9.10337 5.43998 9.03589C5.43998 9.03589 5.43998 9.0134 5.46247 9.0134C5.55244 8.49605 5.59743 7.9787 5.61993 7.46135C5.61993 7.25891 5.66491 7.01148 5.68741 6.78654C7.48689 8.18114 9.10642 9.82317 10.636 11.5102C8.83653 13.1522 7.23946 14.9517 5.57494 16.6612C5.64242 15.8514 5.79987 14.9292 5.50746 14.2094C5.43998 14.0519 5.26003 13.9845 5.12507 14.007C4.58522 13.782 3.95541 13.962 3.39307 13.9845C2.53832 14.0295 1.66107 14.007 0.806315 14.097C0.603874 14.1194 0.5139 14.2994 0.558887 14.4569C0.423926 15.649 0.446419 16.8636 0.491406 18.0783C0.5139 19.0006 0.288965 20.3052 0.738835 21.1374C0.828809 21.2949 1.03125 21.3173 1.16621 21.2274C3.79795 21.7447 6.45218 21.4073 9.10645 21.1824C11.3333 21.0024 14.055 21.8122 16.1694 21.0474C16.1919 21.0474 16.2144 21.0249 16.2369 21.0249C16.3943 21.1149 16.6642 21.0249 16.6418 20.8C16.2594 17.9208 16.4393 14.8842 16.3494 11.96C16.3044 10.1156 16.3268 8.3161 16.4168 6.51662Z" fill="white"/>
</svg>
