<svg width="362" height="1107" viewBox="0 0 362 1107" fill="none" xmlns="http://www.w3.org/2000/svg">
<path d="M181.343 1104.66C184.467 1107.78 189.533 1107.78 192.657 1104.66L243.569 1053.75C246.693 1050.62 246.693 1045.56 243.569 1042.43C240.444 1039.31 235.379 1039.31 232.255 1042.43L187 1087.69L141.745 1042.43C138.621 1039.31 133.556 1039.31 130.431 1042.43C127.307 1045.56 127.307 1050.62 130.431 1053.75L181.343 1104.66ZM-10 16.5H316V0.5H-10V16.5ZM346 46.5V96.5H362V46.5H346ZM316 126.5H65.5V142.5H316V126.5ZM19.5 172.5V224.5H35.5V172.5H19.5ZM65.5 270.5H316V254.5H65.5V270.5ZM346 300.5V351.5H362V300.5H346ZM316 381.5H65.5V397.5H316V381.5ZM19.5 427.5V469.5H35.5V427.5H19.5ZM65.5 515.5H312.5V499.5H65.5V515.5ZM342.5 545.5V595H358.5V545.5H342.5ZM312.5 625H65.5V641H312.5V625ZM19.5 671V713.5H35.5V671H19.5ZM65.5 759.5H312.5V743.5H65.5V759.5ZM342.5 789.5V840H358.5V789.5H342.5ZM312.5 870H65.5V886H312.5V870ZM19.5 916V966H35.5V916H19.5ZM65.5 1012H149V996H65.5V1012ZM179 1042V1099H195V1042H179ZM149 1012C165.569 1012 179 1025.43 179 1042H195C195 1016.59 174.405 996 149 996V1012ZM19.5 966C19.5 991.405 40.0949 1012 65.5 1012V996C48.9315 996 35.5 982.569 35.5 966H19.5ZM65.5 870C40.0949 870 19.5 890.595 19.5 916H35.5C35.5 899.431 48.9315 886 65.5 886V870ZM342.5 840C342.5 856.569 329.069 870 312.5 870V886C337.905 886 358.5 865.405 358.5 840H342.5ZM312.5 759.5C329.069 759.5 342.5 772.931 342.5 789.5H358.5C358.5 764.095 337.905 743.5 312.5 743.5V759.5ZM19.5 713.5C19.5 738.905 40.0949 759.5 65.5 759.5V743.5C48.9315 743.5 35.5 730.069 35.5 713.5H19.5ZM65.5 625C40.0949 625 19.5 645.595 19.5 671H35.5C35.5 654.431 48.9315 641 65.5 641V625ZM342.5 595C342.5 611.569 329.069 625 312.5 625V641C337.905 641 358.5 620.405 358.5 595H342.5ZM312.5 515.5C329.069 515.5 342.5 528.931 342.5 545.5H358.5C358.5 520.095 337.905 499.5 312.5 499.5V515.5ZM19.5 469.5C19.5 494.905 40.0949 515.5 65.5 515.5V499.5C48.9315 499.5 35.5 486.069 35.5 469.5H19.5ZM65.5 381.5C40.0949 381.5 19.5 402.095 19.5 427.5H35.5C35.5 410.931 48.9315 397.5 65.5 397.5V381.5ZM346 351.5C346 368.069 332.569 381.5 316 381.5V397.5C341.405 397.5 362 376.905 362 351.5H346ZM316 270.5C332.569 270.5 346 283.931 346 300.5H362C362 275.095 341.405 254.5 316 254.5V270.5ZM19.5 224.5C19.5 249.905 40.0949 270.5 65.5 270.5V254.5C48.9315 254.5 35.5 241.069 35.5 224.5H19.5ZM65.5 126.5C40.0949 126.5 19.5 147.095 19.5 172.5H35.5C35.5 155.931 48.9315 142.5 65.5 142.5V126.5ZM346 96.5C346 113.069 332.569 126.5 316 126.5V142.5C341.405 142.5 362 121.905 362 96.5H346ZM316 16.5C332.569 16.5 346 29.9315 346 46.5H362C362 21.0949 341.405 0.5 316 0.5V16.5Z" fill="url(#paint0_linear_450_6466)"/>
<path d="M185.939 1100.06C186.525 1100.65 187.475 1100.65 188.061 1100.06L197.607 1090.51C198.192 1089.93 198.192 1088.98 197.607 1088.39C197.021 1087.81 196.071 1087.81 195.485 1088.39L187 1096.88L178.515 1088.39C177.929 1087.81 176.979 1087.81 176.393 1088.39C175.808 1088.98 175.808 1089.93 176.393 1090.51L185.939 1100.06ZM-10 10H-6.98148V7H-10V10ZM-0.944445 10H5.09259V7H-0.944445V10ZM11.1296 10H17.1667V7H11.1296V10ZM23.2037 10H29.2407V7H23.2037V10ZM35.2778 10H41.3148V7H35.2778V10ZM47.3518 10H53.3889V7H47.3518V10ZM59.4259 10H65.463V7H59.4259V10ZM71.5 10H77.537V7H71.5V10ZM83.5741 10H89.6111V7H83.5741V10ZM95.6481 10H101.685V7H95.6481V10ZM107.722 10H113.759V7H107.722V10ZM119.796 10H125.833V7H119.796V10ZM131.87 10H137.907V7H131.87V10ZM143.944 10H149.981V7H143.944V10ZM156.018 10H162.055V7H156.018V10ZM168.093 10H174.13V7H168.093V10ZM180.167 10H186.204V7H180.167V10ZM192.241 10H198.278V7H192.241V10ZM204.315 10H210.352V7H204.315V10ZM216.389 10H222.426V7H216.389V10ZM228.463 10H234.5V7H228.463V10ZM240.537 10H246.574V7H240.537V10ZM252.611 10H258.648V7H252.611V10ZM264.685 10H270.722V7H264.685V10ZM276.759 10H282.796V7H276.759V10ZM288.833 10H294.87V7H288.833V10ZM300.907 10H306.944V7H300.907V10ZM312.982 10H316V7H312.982V10ZM316 10C316.966 10 317.922 10.0375 318.868 10.111L319.101 7.11997C318.077 7.04047 317.043 7 316 7V10ZM324.526 11.0007C326.401 11.4495 328.221 12.0431 329.971 12.769L331.121 9.99787C329.225 9.2118 327.255 8.56902 325.224 8.08309L324.526 11.0007ZM335.072 15.373C336.706 16.376 338.254 17.5041 339.705 18.744L341.654 16.4637C340.085 15.1225 338.41 13.902 336.642 12.8166L335.072 15.373ZM343.756 22.7954C344.996 24.2458 346.124 25.7943 347.127 27.4277L349.683 25.8578C348.598 24.0902 347.377 22.4149 346.036 20.846L343.756 22.7954ZM349.731 32.5286C350.457 34.2793 351.051 36.0986 351.499 37.9743L354.417 37.2762C353.931 35.2452 353.288 33.2751 352.502 31.3795L349.731 32.5286ZM352.389 43.6318C352.463 44.5779 352.5 45.5344 352.5 46.5H355.5C355.5 45.4568 355.46 44.4228 355.38 43.3994L352.389 43.6318ZM352.5 46.5V49.625H355.5V46.5H352.5ZM352.5 55.875V62.125H355.5V55.875H352.5ZM352.5 68.375V74.625H355.5V68.375H352.5ZM352.5 80.875V87.125H355.5V80.875H352.5ZM352.5 93.375V96.5H355.5V93.375H352.5ZM352.5 96.5C352.5 97.4656 352.463 98.4221 352.389 99.3682L355.38 99.6006C355.46 98.5772 355.5 97.5432 355.5 96.5H352.5ZM351.499 105.026C351.051 106.901 350.457 108.721 349.731 110.471L352.502 111.621C353.288 109.725 353.931 107.755 354.417 105.724L351.499 105.026ZM347.127 115.572C346.124 117.206 344.996 118.754 343.756 120.205L346.036 122.154C347.377 120.585 348.598 118.91 349.683 117.142L347.127 115.572ZM339.705 124.256C338.254 125.496 336.706 126.624 335.072 127.627L336.642 130.183C338.41 129.098 340.085 127.877 341.654 126.536L339.705 124.256ZM329.971 130.231C328.221 130.957 326.401 131.55 324.526 131.999L325.224 134.917C327.255 134.431 329.225 133.788 331.121 133.002L329.971 130.231ZM318.868 132.889C317.922 132.963 316.966 133 316 133V136C317.043 136 318.077 135.96 319.101 135.88L318.868 132.889ZM316 133H313.018V136H316V133ZM307.054 133H301.089V136H307.054V133ZM295.125 133H289.161V136H295.125V133ZM283.196 133H277.232V136H283.196V133ZM271.268 133H265.304V136H271.268V133ZM259.339 133H253.375V136H259.339V133ZM247.411 133H241.446V136H247.411V133ZM235.482 133H229.518V136H235.482V133ZM223.554 133H217.589V136H223.554V133ZM211.625 133H205.661V136H211.625V133ZM199.696 133H193.732V136H199.696V133ZM187.768 133H181.804V136H187.768V133ZM175.839 133H169.875V136H175.839V133ZM163.911 133H157.946V136H163.911V133ZM151.982 133H146.018V136H151.982V133ZM140.054 133H134.089V136H140.054V133ZM128.125 133H122.161V136H128.125V133ZM116.196 133H110.232V136H116.196V133ZM104.268 133H98.3037V136H104.268V133ZM92.3394 133H86.3751V136H92.3394V133ZM80.4108 133H74.4465V136H80.4108V133ZM68.4823 133H65.5V136H68.4823V133ZM65.5 133C64.4568 133 63.4228 133.04 62.3994 133.12L62.6318 136.111C63.5779 136.037 64.5344 136 65.5 136V133ZM56.2762 134.083C54.2452 134.569 52.2751 135.212 50.3795 135.998L51.5286 138.769C53.2793 138.043 55.0986 137.449 56.9743 137.001L56.2762 134.083ZM44.8578 138.817C43.0902 139.902 41.4149 141.123 39.846 142.464L41.7954 144.744C43.2458 143.504 44.7943 142.376 46.4277 141.373L44.8578 138.817ZM35.4637 146.846C34.1225 148.415 32.902 150.09 31.8166 151.858L34.373 153.428C35.376 151.794 36.5041 150.246 37.744 148.795L35.4637 146.846ZM28.9979 157.379C28.2118 159.275 27.569 161.245 27.0831 163.276L30.0007 163.974C30.4495 162.099 31.0431 160.279 31.769 158.529L28.9979 157.379ZM26.12 169.399C26.0405 170.423 26 171.457 26 172.5H29C29 171.534 29.0375 170.578 29.111 169.632L26.12 169.399ZM26 172.5V175.75H29V172.5H26ZM26 182.25V188.75H29V182.25H26ZM26 195.25V201.75H29V195.25H26ZM26 208.25V214.75H29V208.25H26ZM26 221.25V224.5H29V221.25H26ZM26 224.5C26 225.543 26.0405 226.577 26.12 227.601L29.111 227.368C29.0375 226.422 29 225.466 29 224.5H26ZM27.0831 233.724C27.569 235.755 28.2118 237.725 28.9979 239.621L31.7691 238.471C31.0431 236.721 30.4495 234.901 30.0007 233.026L27.0831 233.724ZM31.8166 245.142C32.902 246.91 34.1225 248.585 35.4637 250.154L37.744 248.205C36.5041 246.754 35.376 245.206 34.373 243.572L31.8166 245.142ZM39.846 254.536C41.4149 255.877 43.0902 257.098 44.8578 258.183L46.4277 255.627C44.7943 254.624 43.2458 253.496 41.7954 252.256L39.846 254.536ZM50.3795 261.002C52.2751 261.788 54.2452 262.431 56.2762 262.917L56.9743 259.999C55.0986 259.551 53.2793 258.957 51.5286 258.231L50.3795 261.002ZM62.3994 263.88C63.4228 263.96 64.4568 264 65.5 264V261C64.5344 261 63.5779 260.963 62.6318 260.889L62.3994 263.88ZM65.5 264H68.4821V261H65.5V264ZM74.4464 264H80.4107V261H74.4464V264ZM86.375 264H92.3393V261H86.375V264ZM98.3036 264H104.268V261H98.3036V264ZM110.232 264H116.196V261H110.232V264ZM122.161 264H128.125V261H122.161V264ZM134.089 264H140.054V261H134.089V264ZM146.018 264H151.982V261H146.018V264ZM157.946 264H163.911V261H157.946V264ZM169.875 264H175.839V261H169.875V264ZM181.804 264H187.768V261H181.804V264ZM193.732 264H199.696V261H193.732V264ZM205.661 264H211.625V261H205.661V264ZM217.589 264H223.554V261H217.589V264ZM229.518 264H235.482V261H229.518V264ZM241.446 264H247.411V261H241.446V264ZM253.375 264H259.339V261H253.375V264ZM265.303 264H271.268V261H265.303V264ZM277.232 264H283.196V261H277.232V264ZM289.161 264H295.125V261H289.161V264ZM301.089 264H307.053V261H301.089V264ZM313.018 264H316V261H313.018V264ZM316 264C316.966 264 317.922 264.037 318.868 264.111L319.101 261.12C318.077 261.04 317.043 261 316 261V264ZM324.526 265.001C326.401 265.449 328.221 266.043 329.971 266.769L331.121 263.998C329.225 263.212 327.255 262.569 325.224 262.083L324.526 265.001ZM335.072 269.373C336.706 270.376 338.254 271.504 339.705 272.744L341.654 270.464C340.085 269.123 338.41 267.902 336.642 266.817L335.072 269.373ZM343.756 276.795C344.996 278.246 346.124 279.794 347.127 281.428L349.683 279.858C348.598 278.09 347.377 276.415 346.036 274.846L343.756 276.795ZM349.731 286.529C350.457 288.279 351.051 290.099 351.499 291.974L354.417 291.276C353.931 289.245 353.288 287.275 352.502 285.379L349.731 286.529ZM352.389 297.632C352.463 298.578 352.5 299.534 352.5 300.5H355.5C355.5 299.457 355.46 298.423 355.38 297.399L352.389 297.632ZM352.5 300.5V303.688H355.5V300.5H352.5ZM352.5 310.062V316.438H355.5V310.062H352.5ZM352.5 322.812V329.188H355.5V322.812H352.5ZM352.5 335.562V341.938H355.5V335.562H352.5ZM352.5 348.312V351.5H355.5V348.312H352.5ZM352.5 351.5C352.5 352.466 352.463 353.422 352.389 354.368L355.38 354.601C355.46 353.577 355.5 352.543 355.5 351.5H352.5ZM351.499 360.026C351.051 361.901 350.457 363.721 349.731 365.471L352.502 366.621C353.288 364.725 353.931 362.755 354.417 360.724L351.499 360.026ZM347.127 370.572C346.124 372.206 344.996 373.754 343.756 375.205L346.036 377.154C347.377 375.585 348.598 373.91 349.683 372.142L347.127 370.572ZM339.705 379.256C338.254 380.496 336.706 381.624 335.072 382.627L336.642 385.183C338.41 384.098 340.085 382.878 341.654 381.536L339.705 379.256ZM329.971 385.231C328.221 385.957 326.401 386.551 324.526 386.999L325.224 389.917C327.255 389.431 329.225 388.788 331.121 388.002L329.971 385.231ZM318.868 387.889C317.922 387.963 316.966 388 316 388V391C317.043 391 318.077 390.96 319.101 390.88L318.868 387.889ZM316 388H313.018V391H316V388ZM307.054 388H301.089V391H307.054V388ZM295.125 388H289.161V391H295.125V388ZM283.196 388H277.232V391H283.196V388ZM271.268 388H265.304V391H271.268V388ZM259.339 388H253.375V391H259.339V388ZM247.411 388H241.446V391H247.411V388ZM235.482 388H229.518V391H235.482V388ZM223.554 388H217.589V391H223.554V388ZM211.625 388H205.661V391H211.625V388ZM199.696 388H193.732V391H199.696V388ZM187.768 388H181.804V391H187.768V388ZM175.839 388H169.875V391H175.839V388ZM163.911 388H157.946V391H163.911V388ZM151.982 388H146.018V391H151.982V388ZM140.054 388H134.089V391H140.054V388ZM128.125 388H122.161V391H128.125V388ZM116.196 388H110.232V391H116.196V388ZM104.268 388H98.3037V391H104.268V388ZM92.3394 388H86.3751V391H92.3394V388ZM80.4108 388H74.4465V391H80.4108V388ZM68.4823 388H65.5V391H68.4823V388ZM65.5 388C64.4568 388 63.4228 388.04 62.3994 388.12L62.6318 391.111C63.5779 391.037 64.5344 391 65.5 391V388ZM56.2762 389.083C54.2452 389.569 52.2751 390.212 50.3795 390.998L51.5286 393.769C53.2793 393.043 55.0986 392.449 56.9743 392.001L56.2762 389.083ZM44.8578 393.817C43.0902 394.902 41.4149 396.123 39.846 397.464L41.7954 399.744C43.2458 398.504 44.7943 397.376 46.4277 396.373L44.8578 393.817ZM35.4637 401.846C34.1225 403.415 32.902 405.09 31.8166 406.858L34.373 408.428C35.376 406.794 36.5041 405.246 37.744 403.795L35.4637 401.846ZM28.9979 412.379C28.2118 414.275 27.569 416.245 27.0831 418.276L30.0007 418.974C30.4495 417.099 31.0431 415.279 31.7691 413.529L28.9979 412.379ZM26.12 424.399C26.0405 425.423 26 426.457 26 427.5H29C29 426.534 29.0375 425.578 29.111 424.632L26.12 424.399ZM26 427.5V430.125H29V427.5H26ZM26 435.375V440.625H29V435.375H26ZM26 445.875V451.125H29V445.875H26ZM26 456.375V461.625H29V456.375H26ZM26 466.875V469.5H29V466.875H26ZM26 469.5C26 470.543 26.0405 471.577 26.12 472.601L29.111 472.368C29.0375 471.422 29 470.466 29 469.5H26ZM27.0831 478.724C27.569 480.755 28.2118 482.725 28.9979 484.621L31.7691 483.471C31.0431 481.721 30.4495 479.901 30.0007 478.026L27.0831 478.724ZM31.8166 490.142C32.902 491.91 34.1225 493.585 35.4637 495.154L37.744 493.205C36.5041 491.754 35.376 490.206 34.373 488.572L31.8166 490.142ZM39.846 499.536C41.4149 500.878 43.0902 502.098 44.8578 503.183L46.4277 500.627C44.7943 499.624 43.2458 498.496 41.7954 497.256L39.846 499.536ZM50.3795 506.002C52.2751 506.788 54.2452 507.431 56.2762 507.917L56.9743 504.999C55.0986 504.551 53.2793 503.957 51.5286 503.231L50.3795 506.002ZM62.3994 508.88C63.4228 508.96 64.4568 509 65.5 509V506C64.5344 506 63.5779 505.963 62.6318 505.889L62.3994 508.88ZM65.5 509H68.4405V506H65.5V509ZM74.3214 509H80.2024V506H74.3214V509ZM86.0833 509H91.9643V506H86.0833V509ZM97.8452 509H103.726V506H97.8452V509ZM109.607 509H115.488V506H109.607V509ZM121.369 509H127.25V506H121.369V509ZM133.131 509H139.012V506H133.131V509ZM144.893 509H150.774V506H144.893V509ZM156.655 509H162.536V506H156.655V509ZM168.417 509H174.298V506H168.417V509ZM180.179 509H186.059V506H180.179V509ZM191.94 509H197.821V506H191.94V509ZM203.702 509H209.583V506H203.702V509ZM215.464 509H221.345V506H215.464V509ZM227.226 509H233.107V506H227.226V509ZM238.988 509H244.869V506H238.988V509ZM250.75 509H256.631V506H250.75V509ZM262.512 509H268.393V506H262.512V509ZM274.274 509H280.155V506H274.274V509ZM286.036 509H291.917V506H286.036V509ZM297.798 509H303.679V506H297.798V509ZM309.559 509H312.5V506H309.559V509ZM312.5 509C313.466 509 314.422 509.037 315.368 509.111L315.601 506.12C314.577 506.04 313.543 506 312.5 506V509ZM321.026 510.001C322.901 510.449 324.721 511.043 326.471 511.769L327.621 508.998C325.725 508.212 323.755 507.569 321.724 507.083L321.026 510.001ZM331.572 514.373C333.206 515.376 334.754 516.504 336.205 517.744L338.154 515.464C336.585 514.123 334.91 512.902 333.142 511.817L331.572 514.373ZM340.256 521.795C341.496 523.246 342.624 524.794 343.627 526.428L346.183 524.858C345.098 523.09 343.878 521.415 342.536 519.846L340.256 521.795ZM346.231 531.529C346.957 533.279 347.551 535.099 347.999 536.974L350.917 536.276C350.431 534.245 349.788 532.275 349.002 530.38L346.231 531.529ZM348.889 542.632C348.963 543.578 349 544.534 349 545.5H352C352 544.457 351.96 543.423 351.88 542.399L348.889 542.632ZM349 545.5V548.594H352V545.5H349ZM349 554.781V560.969H352V554.781H349ZM349 567.156V573.344H352V567.156H349ZM349 579.531V585.719H352V579.531H349ZM349 591.906V595H352V591.906H349ZM349 595C349 595.966 348.963 596.922 348.889 597.868L351.88 598.101C351.96 597.077 352 596.043 352 595H349ZM347.999 603.526C347.551 605.401 346.957 607.221 346.231 608.971L349.002 610.121C349.788 608.225 350.431 606.255 350.917 604.224L347.999 603.526ZM343.627 614.072C342.624 615.706 341.496 617.254 340.256 618.705L342.536 620.654C343.877 619.085 345.098 617.41 346.183 615.642L343.627 614.072ZM336.205 622.756C334.754 623.996 333.206 625.124 331.572 626.127L333.142 628.683C334.91 627.598 336.585 626.378 338.154 625.036L336.205 622.756ZM326.471 628.731C324.721 629.457 322.901 630.05 321.026 630.499L321.724 633.417C323.755 632.931 325.725 632.288 327.621 631.502L326.471 628.731ZM315.368 631.389C314.422 631.463 313.466 631.5 312.5 631.5V634.5C313.543 634.5 314.577 634.46 315.601 634.38L315.368 631.389ZM312.5 631.5H309.56V634.5H312.5V631.5ZM303.679 631.5H297.798V634.5H303.679V631.5ZM291.917 631.5H286.036V634.5H291.917V631.5ZM280.155 631.5H274.274V634.5H280.155V631.5ZM268.393 631.5H262.512V634.5H268.393V631.5ZM256.631 631.5H250.75V634.5H256.631V631.5ZM244.869 631.5H238.988V634.5H244.869V631.5ZM233.107 631.5H227.226V634.5H233.107V631.5ZM221.345 631.5H215.464V634.5H221.345V631.5ZM209.583 631.5H203.702V634.5H209.583V631.5ZM197.821 631.5H191.941V634.5H197.821V631.5ZM186.06 631.5H180.179V634.5H186.06V631.5ZM174.298 631.5H168.417V634.5H174.298V631.5ZM162.536 631.5H156.655V634.5H162.536V631.5ZM150.774 631.5H144.893V634.5H150.774V631.5ZM139.012 631.5H133.131V634.5H139.012V631.5ZM127.25 631.5H121.369V634.5H127.25V631.5ZM115.488 631.5H109.607V634.5H115.488V631.5ZM103.726 631.5H97.8453V634.5H103.726V631.5ZM91.9643 631.5H86.0834V634.5H91.9643V631.5ZM80.2024 631.5H74.3215V634.5H80.2024V631.5ZM68.4405 631.5H65.5V634.5H68.4405V631.5ZM65.5 631.5C64.4568 631.5 63.4228 631.54 62.3994 631.62L62.6318 634.611C63.5779 634.537 64.5344 634.5 65.5 634.5V631.5ZM56.2762 632.583C54.2452 633.069 52.2751 633.712 50.3795 634.498L51.5286 637.269C53.2793 636.543 55.0986 635.95 56.9743 635.501L56.2762 632.583ZM44.8578 637.317C43.0902 638.402 41.4149 639.622 39.846 640.964L41.7954 643.244C43.2458 642.004 44.7943 640.876 46.4277 639.873L44.8578 637.317ZM35.4637 645.346C34.1225 646.915 32.902 648.59 31.8165 650.358L34.373 651.928C35.376 650.294 36.5041 648.746 37.744 647.295L35.4637 645.346ZM28.9979 655.88C28.2118 657.775 27.569 659.745 27.0831 661.776L30.0007 662.474C30.4495 660.599 31.0431 658.779 31.769 657.029L28.9979 655.88ZM26.12 667.899C26.0405 668.923 26 669.957 26 671H29C29 670.034 29.0375 669.078 29.111 668.132L26.12 667.899ZM26 671V673.656H29V671H26ZM26 678.969V684.281H29V678.969H26ZM26 689.594V694.906H29V689.594H26ZM26 700.219V705.531H29V700.219H26ZM26 710.844V713.5H29V710.844H26ZM26 713.5C26 714.543 26.0405 715.577 26.12 716.601L29.111 716.368C29.0375 715.422 29 714.466 29 713.5H26ZM27.0831 722.724C27.569 724.755 28.2118 726.725 28.9979 728.621L31.7691 727.471C31.0431 725.721 30.4495 723.901 30.0007 722.026L27.0831 722.724ZM31.8166 734.142C32.902 735.91 34.1225 737.585 35.4637 739.154L37.744 737.205C36.5041 735.754 35.376 734.206 34.373 732.572L31.8166 734.142ZM39.846 743.536C41.4149 744.878 43.0902 746.098 44.8578 747.183L46.4277 744.627C44.7943 743.624 43.2458 742.496 41.7954 741.256L39.846 743.536ZM50.3795 750.002C52.2751 750.788 54.2452 751.431 56.2762 751.917L56.9743 748.999C55.0986 748.55 53.2793 747.957 51.5286 747.231L50.3795 750.002ZM62.3994 752.88C63.4228 752.96 64.4568 753 65.5 753V750C64.5344 750 63.5779 749.963 62.6318 749.889L62.3994 752.88ZM65.5 753H68.4405V750H65.5V753ZM74.3214 753H80.2024V750H74.3214V753ZM86.0833 753H91.9643V750H86.0833V753ZM97.8452 753H103.726V750H97.8452V753ZM109.607 753H115.488V750H109.607V753ZM121.369 753H127.25V750H121.369V753ZM133.131 753H139.012V750H133.131V753ZM144.893 753H150.774V750H144.893V753ZM156.655 753H162.536V750H156.655V753ZM168.417 753H174.298V750H168.417V753ZM180.179 753H186.059V750H180.179V753ZM191.94 753H197.821V750H191.94V753ZM203.702 753H209.583V750H203.702V753ZM215.464 753H221.345V750H215.464V753ZM227.226 753H233.107V750H227.226V753ZM238.988 753H244.869V750H238.988V753ZM250.75 753H256.631V750H250.75V753ZM262.512 753H268.393V750H262.512V753ZM274.274 753H280.155V750H274.274V753ZM286.036 753H291.917V750H286.036V753ZM297.798 753H303.679V750H297.798V753ZM309.559 753H312.5V750H309.559V753ZM312.5 753C313.466 753 314.422 753.037 315.368 753.111L315.601 750.12C314.577 750.04 313.543 750 312.5 750V753ZM321.026 754.001C322.901 754.45 324.721 755.043 326.471 755.769L327.621 752.998C325.725 752.212 323.755 751.569 321.724 751.083L321.026 754.001ZM331.572 758.373C333.206 759.376 334.754 760.504 336.205 761.744L338.154 759.464C336.585 758.122 334.91 756.902 333.142 755.817L331.572 758.373ZM340.256 765.795C341.496 767.246 342.624 768.794 343.627 770.428L346.183 768.858C345.098 767.09 343.878 765.415 342.536 763.846L340.256 765.795ZM346.231 775.529C346.957 777.279 347.551 779.099 347.999 780.974L350.917 780.276C350.431 778.245 349.788 776.275 349.002 774.38L346.231 775.529ZM348.889 786.632C348.963 787.578 349 788.534 349 789.5H352C352 788.457 351.96 787.423 351.88 786.399L348.889 786.632ZM349 789.5V792.656H352V789.5H349ZM349 798.969V805.281H352V798.969H349ZM349 811.594V817.906H352V811.594H349ZM349 824.219V830.531H352V824.219H349ZM349 836.844V840H352V836.844H349ZM349 840C349 840.966 348.963 841.922 348.889 842.868L351.88 843.101C351.96 842.077 352 841.043 352 840H349ZM347.999 848.526C347.551 850.401 346.957 852.221 346.231 853.971L349.002 855.121C349.788 853.225 350.431 851.255 350.917 849.224L347.999 848.526ZM343.627 859.072C342.624 860.706 341.496 862.254 340.256 863.705L342.536 865.654C343.877 864.085 345.098 862.41 346.183 860.642L343.627 859.072ZM336.205 867.756C334.754 868.996 333.206 870.124 331.572 871.127L333.142 873.683C334.91 872.598 336.585 871.378 338.154 870.036L336.205 867.756ZM326.471 873.731C324.721 874.457 322.901 875.05 321.026 875.499L321.724 878.417C323.755 877.931 325.725 877.288 327.621 876.502L326.471 873.731ZM315.368 876.389C314.422 876.463 313.466 876.5 312.5 876.5V879.5C313.543 879.5 314.577 879.46 315.601 879.38L315.368 876.389ZM312.5 876.5H309.56V879.5H312.5V876.5ZM303.679 876.5H297.798V879.5H303.679V876.5ZM291.917 876.5H286.036V879.5H291.917V876.5ZM280.155 876.5H274.274V879.5H280.155V876.5ZM268.393 876.5H262.512V879.5H268.393V876.5ZM256.631 876.5H250.75V879.5H256.631V876.5ZM244.869 876.5H238.988V879.5H244.869V876.5ZM233.107 876.5H227.226V879.5H233.107V876.5ZM221.345 876.5H215.464V879.5H221.345V876.5ZM209.583 876.5H203.702V879.5H209.583V876.5ZM197.821 876.5H191.941V879.5H197.821V876.5ZM186.06 876.5H180.179V879.5H186.06V876.5ZM174.298 876.5H168.417V879.5H174.298V876.5ZM162.536 876.5H156.655V879.5H162.536V876.5ZM150.774 876.5H144.893V879.5H150.774V876.5ZM139.012 876.5H133.131V879.5H139.012V876.5ZM127.25 876.5H121.369V879.5H127.25V876.5ZM115.488 876.5H109.607V879.5H115.488V876.5ZM103.726 876.5H97.8453V879.5H103.726V876.5ZM91.9643 876.5H86.0834V879.5H91.9643V876.5ZM80.2024 876.5H74.3215V879.5H80.2024V876.5ZM68.4405 876.5H65.5V879.5H68.4405V876.5ZM65.5 876.5C64.4568 876.5 63.4228 876.54 62.3994 876.62L62.6318 879.611C63.5779 879.537 64.5344 879.5 65.5 879.5V876.5ZM56.2762 877.583C54.2452 878.069 52.2751 878.712 50.3795 879.498L51.5286 882.269C53.2793 881.543 55.0986 880.95 56.9743 880.501L56.2762 877.583ZM44.8578 882.317C43.0902 883.402 41.4149 884.622 39.846 885.964L41.7954 888.244C43.2458 887.004 44.7943 885.876 46.4277 884.873L44.8578 882.317ZM35.4637 890.346C34.1225 891.915 32.902 893.59 31.8165 895.358L34.373 896.928C35.376 895.294 36.5041 893.746 37.744 892.295L35.4637 890.346ZM28.9979 900.88C28.2118 902.775 27.569 904.745 27.0831 906.776L30.0007 907.474C30.4495 905.599 31.0431 903.779 31.769 902.029L28.9979 900.88ZM26.12 912.899C26.0405 913.923 26 914.957 26 916H29C29 915.034 29.0375 914.078 29.111 913.132L26.12 912.899ZM26 916V919.125H29V916H26ZM26 925.375V931.625H29V925.375H26ZM26 937.875V944.125H29V937.875H26ZM26 950.375V956.625H29V950.375H26ZM26 962.875V966H29V962.875H26ZM26 966C26 967.043 26.0405 968.077 26.12 969.101L29.111 968.868C29.0375 967.922 29 966.966 29 966H26ZM27.0831 975.224C27.569 977.255 28.2118 979.225 28.9979 981.121L31.7691 979.971C31.0431 978.221 30.4495 976.401 30.0007 974.526L27.0831 975.224ZM31.8166 986.642C32.902 988.41 34.1225 990.085 35.4637 991.654L37.744 989.705C36.5041 988.254 35.376 986.706 34.373 985.072L31.8166 986.642ZM39.846 996.036C41.4149 997.378 43.0902 998.598 44.8578 999.683L46.4277 997.127C44.7943 996.124 43.2458 994.996 41.7954 993.756L39.846 996.036ZM50.3795 1002.5C52.2751 1003.29 54.2452 1003.93 56.2762 1004.42L56.9743 1001.5C55.0986 1001.05 53.2793 1000.46 51.5286 999.731L50.3795 1002.5ZM62.3994 1005.38C63.4228 1005.46 64.4568 1005.5 65.5 1005.5V1002.5C64.5344 1002.5 63.5779 1002.46 62.6318 1002.39L62.3994 1005.38ZM65.5 1005.5H68.4821V1002.5H65.5V1005.5ZM74.4464 1005.5H80.4107V1002.5H74.4464V1005.5ZM86.375 1005.5H92.3393V1002.5H86.375V1005.5ZM98.3036 1005.5H104.268V1002.5H98.3036V1005.5ZM110.232 1005.5H116.196V1002.5H110.232V1005.5ZM122.161 1005.5H128.125V1002.5H122.161V1005.5ZM134.089 1005.5H140.054V1002.5H134.089V1005.5ZM146.018 1005.5H149V1002.5H146.018V1005.5ZM149 1005.5C149.966 1005.5 150.922 1005.54 151.868 1005.61L152.101 1002.62C151.077 1002.54 150.043 1002.5 149 1002.5V1005.5ZM157.526 1006.5C159.401 1006.95 161.221 1007.54 162.971 1008.27L164.121 1005.5C162.225 1004.71 160.255 1004.07 158.224 1003.58L157.526 1006.5ZM168.072 1010.87C169.706 1011.88 171.254 1013 172.705 1014.24L174.654 1011.96C173.085 1010.62 171.41 1009.4 169.642 1008.32L168.072 1010.87ZM176.756 1018.3C177.996 1019.75 179.124 1021.29 180.127 1022.93L182.683 1021.36C181.598 1019.59 180.377 1017.91 179.036 1016.35L176.756 1018.3ZM182.731 1028.03C183.457 1029.78 184.051 1031.6 184.499 1033.47L187.417 1032.78C186.931 1030.75 186.288 1028.78 185.502 1026.88L182.731 1028.03ZM185.389 1039.13C185.463 1040.08 185.5 1041.03 185.5 1042H188.5C188.5 1040.96 188.46 1039.92 188.38 1038.9L185.389 1039.13ZM185.5 1042V1044.85H188.5V1042H185.5ZM185.5 1050.55V1056.25H188.5V1050.55H185.5ZM185.5 1061.95V1067.65H188.5V1061.95H185.5ZM185.5 1073.35V1079.05H188.5V1073.35H185.5ZM185.5 1084.75V1090.45H188.5V1084.75H185.5ZM185.5 1096.15V1099H188.5V1096.15H185.5Z" fill="white"/>
<defs>
<linearGradient id="paint0_linear_450_6466" x1="28.6195" y1="-21.9073" x2="464.013" y2="236.333" gradientUnits="userSpaceOnUse">
<stop stop-color="#DAE5F6" stop-opacity="0"/>
<stop offset="0.124233" stop-color="#42BACA" stop-opacity="0.971108"/>
<stop offset="0.384042" stop-color="#67DA6C" stop-opacity="0.948847"/>
<stop offset="0.59375" stop-color="#684CD9" stop-opacity="0.935738"/>
<stop offset="0.829547" stop-color="#331BC1" stop-opacity="0.921267"/>
<stop offset="1" stop-color="#20B01D"/>
</linearGradient>
</defs>
</svg>
