<svg width="40" height="40" viewBox="0 0 40 40" fill="none" xmlns="http://www.w3.org/2000/svg">
<path d="M0 20C0 8.95431 8.95431 0 20 0C31.0457 0 40 8.95431 40 20C40 31.0457 31.0457 40 20 40C8.95431 40 0 31.0457 0 20Z" fill="#1D9BF0"/>
<path d="M28.1296 15.6056C28.142 15.7955 28.142 15.9854 28.142 16.1771C28.142 22.0169 23.9224 28.752 16.2067 28.752V28.7485C13.9275 28.752 11.6956 28.0642 9.77686 26.7672C10.1083 26.8092 10.4414 26.8302 10.7753 26.8311C12.6641 26.8328 14.499 26.1651 15.985 24.9355C14.19 24.8996 12.6159 23.6666 12.0661 21.8664C12.6948 21.9942 13.3427 21.9679 13.9599 21.7903C12.0029 21.3737 10.595 19.5621 10.595 17.4583C10.595 17.439 10.595 17.4207 10.595 17.4023C11.1781 17.7445 11.831 17.9344 12.4988 17.9554C10.6557 16.6575 10.0875 14.0741 11.2005 12.0543C13.3303 14.8154 16.4725 16.4939 19.8457 16.6715C19.5077 15.1365 19.9695 13.528 21.0593 12.449C22.7488 10.7757 25.4059 10.8615 26.9941 12.6406C27.9335 12.4455 28.8339 12.0823 29.6579 11.5677C29.3448 12.5907 28.6894 13.4598 27.8139 14.012C28.6454 13.9087 29.4577 13.6742 30.2227 13.3162C29.6596 14.2054 28.9502 14.9799 28.1296 15.6056Z" fill="white"/>
</svg>
