<svg width="40" height="40" viewBox="0 0 40 40" fill="none" xmlns="http://www.w3.org/2000/svg">
<path d="M0 20C0 8.95431 8.95431 0 20 0V0C31.0457 0 40 8.95431 40 20V20C40 31.0457 31.0457 40 20 40V40C8.95431 40 0 31.0457 0 20V20Z" fill="#20B01D"/>
<g clip-path="url(#clip0_278_12655)">
<path d="M27.6239 13.0138C26.2217 12.372 24.7181 11.8992 23.1459 11.6283C23.1173 11.6231 23.0887 11.6362 23.0739 11.6623C22.8805 12.0054 22.6663 12.453 22.5163 12.8048C20.8254 12.5523 19.1431 12.5523 17.4868 12.8048C17.3368 12.4452 17.1148 12.0054 16.9205 11.6623C16.9058 11.637 16.8772 11.624 16.8485 11.6283C15.2773 11.8983 13.7736 12.3711 12.3705 13.0138C12.3584 13.019 12.348 13.0277 12.3411 13.039C9.48894 17.2895 8.70763 21.4354 9.09092 25.53C9.09265 25.55 9.10392 25.5692 9.11953 25.5814C11.0013 26.9599 12.8241 27.7967 14.613 28.3514C14.6416 28.3601 14.672 28.3497 14.6902 28.3262C15.1134 27.7497 15.4906 27.1419 15.814 26.5027C15.8331 26.4652 15.8149 26.4208 15.7759 26.406C15.1775 26.1796 14.6078 25.9036 14.0598 25.5901C14.0164 25.5648 14.0129 25.503 14.0528 25.4734C14.1681 25.3872 14.2835 25.2975 14.3936 25.2069C14.4135 25.1904 14.4413 25.1869 14.4647 25.1973C18.0652 26.8371 21.9631 26.8371 25.521 25.1973C25.5445 25.186 25.5722 25.1895 25.593 25.206C25.7032 25.2966 25.8185 25.3872 25.9347 25.4734C25.9746 25.503 25.972 25.5648 25.9286 25.5901C25.3806 25.9097 24.8108 26.1796 24.2116 26.4052C24.1726 26.42 24.1553 26.4652 24.1744 26.5027C24.5047 27.141 24.882 27.7488 25.2973 28.3253C25.3147 28.3497 25.3459 28.3601 25.3745 28.3514C27.1721 27.7967 28.9949 26.9599 30.8766 25.5814C30.8931 25.5692 30.9035 25.5509 30.9053 25.5309C31.364 20.7971 30.1369 16.6851 27.6525 13.0399C27.6465 13.0277 27.6361 13.019 27.6239 13.0138ZM16.3517 23.0368C15.2677 23.0368 14.3745 22.0441 14.3745 20.825C14.3745 19.6058 15.2504 18.6131 16.3517 18.6131C17.4616 18.6131 18.3462 19.6146 18.3288 20.825C18.3288 22.0441 17.453 23.0368 16.3517 23.0368ZM23.6619 23.0368C22.5779 23.0368 21.6847 22.0441 21.6847 20.825C21.6847 19.6058 22.5606 18.6131 23.6619 18.6131C24.7718 18.6131 25.6563 19.6146 25.639 20.825C25.639 22.0441 24.7718 23.0368 23.6619 23.0368Z" fill="white"/>
</g>
<defs>
<clipPath id="clip0_278_12655">
<rect width="22" height="17" fill="white" transform="translate(9 11.5)"/>
</clipPath>
</defs>
</svg>
