<svg width="40" height="40" viewBox="0 0 40 40" fill="none" xmlns="http://www.w3.org/2000/svg">
<g clip-path="url(#clip0_278_12658)">
<path d="M8.31313 19.0448C8.31309 18.8214 8.35717 18.6002 8.44284 18.3939C8.52851 18.1876 8.65407 18.0003 8.81232 17.8427C8.97058 17.6851 9.1584 17.5603 9.365 17.4755C9.57159 17.3908 9.7929 17.3477 10.0162 17.3487L12.8397 17.358C13.2899 17.358 13.7217 17.5369 14.04 17.8553C14.3584 18.1738 14.5372 18.6057 14.5372 19.0561V29.7366C14.8553 29.6423 15.2632 29.5418 15.7101 29.4369C16.0204 29.3639 16.2969 29.1881 16.4948 28.9382C16.6927 28.6882 16.8005 28.3787 16.8006 28.0599V14.8116C16.8006 14.5886 16.8445 14.3677 16.9298 14.1616C17.0151 13.9556 17.1401 13.7683 17.2977 13.6106C17.4554 13.4529 17.6425 13.3278 17.8485 13.2424C18.0545 13.157 18.2752 13.1131 18.4982 13.1131H21.3273C21.7775 13.1132 22.2092 13.2921 22.5275 13.6105C22.8459 13.929 23.0247 14.3608 23.0248 14.8112V27.1078C23.0248 27.1078 23.7328 26.8209 24.423 26.5296C24.6793 26.4211 24.898 26.2396 25.0518 26.0076C25.2056 25.7757 25.2878 25.5035 25.288 25.2251V10.5656C25.288 10.3426 25.3319 10.1218 25.4172 9.91579C25.5025 9.70976 25.6275 9.52257 25.7851 9.36489C25.9427 9.2072 26.1299 9.08212 26.3358 8.99678C26.5417 8.91144 26.7625 8.86752 26.9854 8.86752H29.8145C30.2647 8.86752 30.6965 9.04642 31.0148 9.36487C31.3332 9.68332 31.5121 10.1152 31.5121 10.5656V22.6369C33.9649 20.8588 36.4507 18.7199 38.4234 16.1482C38.7096 15.7749 38.899 15.3365 38.9746 14.8722C39.0503 14.4079 39.0099 13.932 38.857 13.4871C37.5223 9.59584 35.0186 6.21197 31.6884 3.79818C28.3582 1.38438 24.3639 0.0584986 20.2518 0.00181316C9.16316 -0.147197 -0.000993321 8.9077 9.59479e-05 20.0016C-0.0107917 23.5121 0.905109 26.9632 2.65519 30.006C2.89654 30.4222 3.2516 30.7608 3.67867 30.9822C4.10575 31.2035 4.58709 31.2983 5.06615 31.2554C5.60139 31.2083 6.26775 31.1417 7.05992 31.0487C7.40472 31.0094 7.72304 30.8447 7.95426 30.5858C8.18549 30.327 8.31346 29.9921 8.3138 29.6449V19.0448" fill="#21325B"/>
<path d="M8.2516 36.1739C11.2337 38.3441 14.7579 39.6468 18.4342 39.9377C22.1104 40.2287 25.7955 39.4967 29.0817 37.8226C32.3679 36.1486 35.1271 33.5977 37.054 30.4523C38.981 27.307 40.0006 23.6896 40 20.0006C40 19.5401 39.9786 19.0847 39.9478 18.6318C32.644 29.5284 19.1583 34.6225 8.25146 36.1743" fill="#979695"/>
</g>
<defs>
<clipPath id="clip0_278_12658">
<rect width="40" height="40" fill="white"/>
</clipPath>
</defs>
</svg>
