<svg width="40" height="42" viewBox="0 0 40 42" fill="none" xmlns="http://www.w3.org/2000/svg">
<g clip-path="url(#clip0_278_12657)">
<path d="M40 20.7692C40 32.2391 31.0451 41.5385 20 41.5385C8.95493 41.5385 0 32.2391 0 20.7692C0 9.29935 8.95493 0 20 0C31.0474 0 40 9.29935 40 20.7692Z" fill="#2081E2"/>
<path d="M9.86694 21.4671L9.95325 21.3263L15.156 12.8741C15.232 12.7504 15.4108 12.7632 15.4684 12.8976C16.3376 14.9205 17.0876 17.4363 16.7362 19.0025C16.5862 19.6469 16.1752 20.5197 15.7129 21.3263C15.6533 21.4437 15.5876 21.5589 15.5177 21.6699C15.4848 21.7211 15.4293 21.751 15.3697 21.751H10.019C9.87516 21.751 9.79094 21.5888 9.86694 21.4671Z" fill="white"/>
<path d="M33.0577 23.0376V24.3755C33.0577 24.4523 33.0125 24.5206 32.9467 24.5504C32.544 24.7297 31.1652 25.3869 30.5919 26.2148C29.1289 28.3295 28.0111 31.3532 25.5124 31.3532H15.0883C11.3938 31.3532 8.3999 28.2335 8.3999 24.384V24.2602C8.3999 24.1578 8.48004 24.0746 8.5787 24.0746H14.3897C14.5047 24.0746 14.589 24.1856 14.5787 24.3029C14.5376 24.6956 14.6075 25.0967 14.7863 25.4616C15.1315 26.1892 15.8466 26.6438 16.6192 26.6438H19.4959V24.3115H16.652C16.5062 24.3115 16.4199 24.1365 16.5041 24.0127C16.5349 23.9636 16.5699 23.9124 16.6068 23.8548C16.876 23.4579 17.2603 22.8412 17.6425 22.1392C17.9034 21.6655 18.1562 21.1598 18.3596 20.6519C18.4007 20.5602 18.4336 20.4663 18.4664 20.3745C18.5219 20.2124 18.5795 20.0608 18.6206 19.9094C18.6616 19.7813 18.6945 19.6469 18.7274 19.521C18.824 19.0899 18.8651 18.6333 18.8651 18.1596C18.8651 17.9739 18.8569 17.7798 18.8404 17.5941C18.8322 17.3914 18.8075 17.1887 18.7829 16.986C18.7664 16.8067 18.7356 16.6296 18.7027 16.444C18.6616 16.173 18.6041 15.9041 18.5383 15.6331L18.5158 15.5307C18.4664 15.3451 18.4254 15.1679 18.3678 14.9823C18.2055 14.3997 18.0185 13.8321 17.8212 13.3008C17.7493 13.0896 17.6671 12.8869 17.5849 12.6842C17.4637 12.379 17.3404 12.1016 17.2274 11.8391C17.1699 11.7196 17.1205 11.6108 17.0712 11.4998C17.0158 11.3739 16.9582 11.2481 16.9007 11.1285C16.8596 11.0368 16.8123 10.9514 16.7795 10.8661L16.4281 10.1918C16.3787 10.1 16.461 9.99122 16.5575 10.019L18.7562 10.6378H18.7623C18.7664 10.6378 18.7685 10.6399 18.7706 10.6399L19.0603 10.7231L19.3788 10.817L19.4959 10.8512V9.49405C19.4959 8.83894 20.0014 8.30762 20.6261 8.30762C20.9384 8.30762 21.2219 8.43989 21.4254 8.65543C21.6288 8.87097 21.7562 9.16543 21.7562 9.49405V11.5084L21.9904 11.5766C22.009 11.5831 22.0275 11.5916 22.0439 11.6044C22.1014 11.6492 22.1836 11.7154 22.2884 11.7964C22.3706 11.8647 22.459 11.948 22.5658 12.0333C22.7775 12.2104 23.0302 12.4388 23.3076 12.7012C23.3815 12.7674 23.4535 12.8356 23.5192 12.9039C23.8768 13.2496 24.2775 13.655 24.6597 14.1032C24.7665 14.229 24.8713 14.357 24.9782 14.4915C25.085 14.6281 25.198 14.7625 25.2967 14.897C25.4261 15.0762 25.5658 15.2618 25.6871 15.456C25.7446 15.5478 25.8103 15.6416 25.8659 15.7334C26.022 15.9788 26.1597 16.2327 26.2912 16.4866C26.3467 16.604 26.4042 16.732 26.4535 16.8579C26.5994 17.1972 26.7145 17.5429 26.7884 17.8886C26.8111 17.9633 26.8275 18.0444 26.8357 18.1169V18.134C26.8603 18.2364 26.8686 18.3453 26.8768 18.4562C26.9097 18.8104 26.8932 19.1646 26.8193 19.521C26.7884 19.6725 26.7474 19.8154 26.698 19.967C26.6487 20.1121 26.5994 20.2635 26.5357 20.4065C26.4124 20.7031 26.2665 20.9997 26.0939 21.2771C26.0384 21.3795 25.9727 21.4884 25.9069 21.5908C25.835 21.6996 25.7611 21.8021 25.6953 21.9024C25.6049 22.0304 25.5083 22.1648 25.4097 22.2843C25.3213 22.4102 25.2309 22.5361 25.1323 22.6471C24.9946 22.8156 24.8631 22.9757 24.7254 23.1293C24.6432 23.2296 24.5549 23.332 24.4644 23.4238C24.3761 23.5262 24.2857 23.618 24.2035 23.7033C24.0658 23.8463 23.9507 23.9572 23.8542 24.049L23.6281 24.2645C23.5953 24.2944 23.5521 24.3115 23.5069 24.3115H21.7562V26.6438H23.959C24.4521 26.6438 24.9206 26.4624 25.2987 26.1295C25.4282 26.0121 25.9932 25.5043 26.6611 24.7383C26.6836 24.7126 26.7124 24.6934 26.7453 24.6849L32.8296 22.8583C32.9426 22.8242 33.0577 22.9138 33.0577 23.0376Z" fill="white"/>
</g>
<defs>
<clipPath id="clip0_278_12657">
<rect width="40" height="41.5385" fill="white"/>
</clipPath>
</defs>
</svg>
