<svg width="103" height="102" viewBox="0 0 103 102" fill="none" xmlns="http://www.w3.org/2000/svg">
<g filter="url(#filter0_d_452_7880)">
<path d="M51.9202 10L61.2066 14.3426L71.4202 15.225L77.2912 23.629L85.6952 29.5L86.5776 39.7136L90.9202 49L86.5776 58.2864L85.6952 68.5L77.2912 74.371L71.4202 82.775L61.2066 83.6574L51.9202 88L42.6337 83.6574L32.4202 82.775L26.5492 74.371L18.1452 68.5L17.2627 58.2864L12.9202 49L17.2627 39.7136L18.1452 29.5L26.5492 23.629L32.4202 15.225L42.6337 14.3426L51.9202 10Z" fill="url(#paint0_linear_452_7880)"/>
<path fill-rule="evenodd" clip-rule="evenodd" d="M61.2066 14.3426L51.9202 10L42.6337 14.3426L32.4202 15.225L26.5492 23.629L18.1452 29.5L17.2627 39.7136L12.9202 49L17.2627 58.2864L18.1452 68.5L26.5492 74.371L32.4202 82.775L42.6337 83.6574L51.9202 88L61.2066 83.6574L71.4202 82.775L77.2912 74.371L85.6952 68.5L86.5776 58.2864L90.9202 49L86.5776 39.7136L85.6952 29.5L77.2912 23.629L71.4202 15.225L61.2066 14.3426ZM70.8682 16.181L61.1205 15.3389C61.0036 15.3288 60.8893 15.2982 60.783 15.2484L51.9202 11.1039L43.0573 15.2484C42.951 15.2982 42.8368 15.3288 42.7198 15.3389L32.9721 16.181L27.369 24.2017C27.3017 24.2979 27.2181 24.3816 27.1219 24.4488L19.1012 30.052L18.259 39.7997C18.2489 39.9166 18.2183 40.0309 18.1686 40.1372L14.0241 49L18.1686 57.8628C18.2183 57.9692 18.2489 58.0834 18.259 58.2004L19.1012 67.948L27.1219 73.5512C27.2181 73.6185 27.3017 73.7021 27.369 73.7983L32.9721 81.819L42.7198 82.6611C42.8368 82.6713 42.951 82.7019 43.0573 82.7516L51.9202 86.8961L60.783 82.7516C60.8893 82.7019 61.0036 82.6713 61.1205 82.6611L70.8682 81.819L76.4714 73.7983C76.5386 73.7021 76.6223 73.6185 76.7185 73.5512L84.7391 67.948L85.5813 58.2004C85.5914 58.0834 85.622 57.9692 85.6718 57.8628L89.8162 49L85.6718 40.1372C85.622 40.0309 85.5914 39.9166 85.5813 39.7997L84.7391 30.052L76.7185 24.4488C76.6223 24.3816 76.5386 24.2979 76.4714 24.2017L70.8682 16.181Z" fill="url(#paint1_linear_452_7880)"/>
<path d="M86.6066 48.7456C86.6066 68.0429 70.9632 83.6864 51.6659 83.6864C32.3687 83.6864 16.7252 68.0429 16.7252 48.7456C16.7252 29.4484 32.3687 13.8049 51.6659 13.8049C70.9632 13.8049 86.6066 29.4484 86.6066 48.7456Z" fill="url(#paint2_linear_452_7880)"/>
<path fill-rule="evenodd" clip-rule="evenodd" d="M51.6659 82.6864C70.4109 82.6864 85.6066 67.4906 85.6066 48.7456C85.6066 30.0007 70.4109 14.8049 51.6659 14.8049C32.921 14.8049 17.7252 30.0007 17.7252 48.7456C17.7252 67.4906 32.921 82.6864 51.6659 82.6864ZM51.6659 83.6864C70.9632 83.6864 86.6066 68.0429 86.6066 48.7456C86.6066 29.4484 70.9632 13.8049 51.6659 13.8049C32.3687 13.8049 16.7252 29.4484 16.7252 48.7456C16.7252 68.0429 32.3687 83.6864 51.6659 83.6864Z" fill="url(#paint3_linear_452_7880)"/>
<path d="M51.9201 15.7073L53.9731 18.6897L56.4212 16.022L58.0391 19.2611L60.8346 16.9601L61.986 20.3929L65.0746 18.5033L65.737 22.0629L69.0585 20.6216L69.219 24.2388L72.7088 23.2737L72.3644 26.878L75.9545 26.4081L75.1118 29.9294L78.7324 29.9636L77.4079 33.3334L80.9884 33.8712L79.2078 37.0238L82.6787 38.0547L80.4766 40.9288L83.7702 42.4327L81.1896 44.9724L84.2419 46.92L81.3329 49.0759L84.0844 51.4293L80.9037 53.1593L83.3009 55.8729L79.9104 57.1433L81.9066 60.1641L78.3723 60.9503L79.9286 64.2195L76.3193 64.5062L77.4055 67.9601L73.7914 67.7418L74.3864 71.3132L70.8378 70.594L70.9299 74.2135L67.516 73.0074L67.1035 76.6046L63.8907 74.9351L62.9815 78.4398L60.0323 76.3394L58.6443 79.6835L56.0161 77.1931L54.1761 80.3114L51.9201 77.4795L49.6641 80.3114L47.8241 77.1931L45.1959 79.6835L43.8079 76.3394L40.8587 78.4398L39.9495 74.9351L36.7367 76.6046L36.3242 73.0074L32.9103 74.2135L33.0024 70.594L29.4538 71.3132L30.0488 67.7418L26.4347 67.9601L27.5209 64.5062L23.9116 64.2195L25.4679 60.9503L21.9336 60.1641L23.9298 57.1433L20.5393 55.8729L22.9365 53.1593L19.7558 51.4293L22.5073 49.0759L19.5983 46.92L22.6506 44.9724L20.07 42.4327L23.3636 40.9288L21.1615 38.0547L24.6324 37.0238L22.8518 33.8712L26.4323 33.3334L25.1078 29.9636L28.7284 29.9294L27.8857 26.4081L31.4758 26.878L31.1314 23.2737L34.6211 24.2388L34.7817 20.6216L38.1032 22.0629L38.7656 18.5033L41.8542 20.3929L43.0056 16.9601L45.8011 19.2611L47.419 16.022L49.8671 18.6897L51.9201 15.7073Z" fill="url(#paint4_linear_452_7880)"/>
<g filter="url(#filter1_ii_452_7880)">
<path d="M79.0002 48C79.0002 62.9117 66.9119 75 52.0002 75C37.0886 75 25.0002 62.9117 25.0002 48C25.0002 33.0883 37.0886 21 52.0002 21C66.9119 21 79.0002 33.0883 79.0002 48Z" fill="#0A9807"/>
</g>
<g filter="url(#filter2_dd_452_7880)">
<path d="M49.3967 44.6769C50.1414 45.1938 50.8596 46.4431 51.1256 47.0031C51.7905 47.2615 52.9875 47.2615 54.0514 45.3231C55.1153 43.3846 55.3813 41.0585 56.5783 39.2492C57.7752 37.44 60.701 34.7262 66.6857 31.3662C71.4734 28.6782 71.8724 25.3354 71.4734 24C73.1757 26.4812 71.2961 29.3415 70.1435 30.4615C72.3777 29.6345 73.3796 27.6185 73.6013 26.7138C74.0268 29.0917 71.2074 31.6677 69.7445 32.6585C71.9788 32.2449 73.5126 30.5046 74.0002 29.6862C74.0002 31.6505 70.9858 33.9508 69.4785 34.8554C71.0744 34.9588 72.892 33.9508 73.6013 33.4338C72.9629 34.7778 70.4095 36.32 69.2125 36.9231C69.9573 37.1298 71.4734 36.6646 72.1384 36.4062C71.7128 37.0265 69.6558 38.4738 68.6806 39.12C69.7445 39.4302 71.0744 39.0769 71.6064 38.8615C71.0744 40.8258 68.2816 42.4369 66.9517 42.9969L69.4785 43.3846C69.1682 44.6338 68.122 47.8043 66.4197 50.4923C64.7174 53.1803 62.1639 54.8862 61.1 55.4031L60.435 54.8862C60.5237 55.8769 60.9138 58.1686 61.765 59.4092C62.6161 60.6498 66.9073 62.7692 68.9465 63.6738L65.4887 64.5785L65.2228 66C65.0454 65.9569 64.5578 65.7157 64.0258 65.0954C63.4939 64.4751 60.6124 62.08 59.2381 60.96C58.5731 60.8738 57.057 60.6498 56.3123 60.4431C55.5675 60.2363 53.8741 59.1508 53.1204 58.6338C53.546 59.4609 54.7164 60.3569 55.2483 60.7015L51.5245 61.9938L50.5936 60.7015C50.6823 61.1754 50.7798 62.1489 50.4606 62.2523C50.1414 62.3557 44.5646 62.8123 41.8161 63.0277C42.1353 62.304 42.1264 61.4338 42.0821 61.0892C41.2309 62.7434 38.447 63.2431 37.1614 63.2862C37.7997 62.7692 38.048 61.1754 38.0923 60.4431C37.1348 61.9938 35.5655 62.9846 34.9005 63.2862C35.5389 62.7692 35.9644 61.0031 36.0974 60.1846C35.1399 61.3218 33.0386 62.4677 32.1077 62.8985C33.7036 61.4511 33.8366 60.3138 33.7036 59.9262C32.3388 61.7259 29.5302 62.5782 27.9781 62.8409C27.8474 62.8709 27.7165 62.8905 27.5859 62.8985C27.7048 62.884 27.8362 62.8649 27.9781 62.8409C29.5511 62.4801 31.0947 60.6222 31.7087 59.6677C29.2616 61.632 25.724 61.4338 24.2611 61.0892C26.6018 61.296 28.9602 59.9692 29.8468 59.28C26.3358 60.8308 23.1528 59.2369 22.0002 58.2462C22.5765 58.6769 24.8197 59.28 29.1818 58.2462C34.6345 56.9538 35.4325 54.1108 38.2253 52.8185C41.0181 51.5262 44.343 52.1723 45.6729 51.9138C47.0028 51.6554 46.8698 50.7508 46.4708 49.7169C46.0719 48.6831 45.8059 48.1662 45.8059 46.6154C45.8059 45.3748 46.4265 44.6338 46.7368 44.4185L47.6678 42.48L48.51 44C48.776 44 48.6519 44.16 49.3967 44.6769Z" fill="url(#paint5_linear_452_7880)"/>
</g>
<path fill-rule="evenodd" clip-rule="evenodd" d="M50.7633 47.9351C50.5254 47.8427 50.3318 47.6627 50.2223 47.4321C50.1098 47.1953 49.8893 46.7889 49.6154 46.3886C49.3286 45.9695 49.0459 45.6507 48.8265 45.4984C48.6093 45.3477 48.4436 45.2147 48.3117 45.0957C48.2418 45.0327 48.1842 44.9762 48.1375 44.928C47.9841 44.8664 47.8472 44.7673 47.7405 44.6386L47.6383 44.8514C47.5633 45.0074 47.4492 45.1413 47.307 45.24C47.3133 45.2356 47.2784 45.2602 47.2206 45.3278C47.1661 45.3916 47.1012 45.482 47.0392 45.5995C46.917 45.8309 46.8059 46.1668 46.8059 46.6154C46.8059 47.3297 46.8668 47.7595 46.9572 48.1108C47.0352 48.414 47.136 48.6713 47.2839 49.0491C47.3208 49.1433 47.3606 49.2451 47.4038 49.3569C47.5993 49.8636 47.8502 50.6057 47.698 51.3158C47.6117 51.7182 47.4018 52.0923 47.0468 52.3818C46.7104 52.6563 46.2978 52.8111 45.8637 52.8955C45.417 52.9823 44.8598 52.9864 44.3334 52.9825C44.1876 52.9814 44.0398 52.9795 43.8896 52.9776C43.4577 52.9722 43.0057 52.9666 42.5217 52.9782C41.2225 53.0093 39.856 53.1658 38.6453 53.726C38.0606 53.9966 37.5646 54.3545 37.0474 54.7929C36.7992 55.0032 36.5541 55.225 36.2881 55.4657L36.2452 55.5045C35.9666 55.7566 35.6675 56.0263 35.3444 56.2979C34.2353 57.23 32.8652 58.164 30.7485 58.8476C30.7848 58.923 30.8108 59.0013 30.8269 59.0807C30.9138 59.0192 30.9991 58.9549 31.0827 58.8879C31.465 58.581 32.0134 58.5965 32.3778 58.9245C32.5683 59.0961 32.6792 59.3267 32.7036 59.5666C32.7757 59.4869 32.8435 59.4053 32.9068 59.3219C33.13 59.0276 33.4973 58.8802 33.8621 58.9388C34.2268 58.9973 34.5296 59.2522 34.6495 59.6017C34.7038 59.7602 34.7338 59.9322 34.741 60.1133C34.9761 59.9172 35.1779 59.7241 35.3325 59.5405C35.6222 59.1965 36.106 59.0882 36.5147 59.2758C36.86 59.4344 37.08 59.7713 37.0965 60.1397C37.1465 60.0672 37.1949 59.9932 37.2415 59.9177C37.4823 59.5277 37.9574 59.3513 38.3943 59.4898C38.8313 59.6282 39.1182 60.046 39.0905 60.5035C39.0675 60.8837 38.9983 61.4533 38.8604 62.0269C39.0583 61.976 39.258 61.9167 39.4543 61.848C40.3383 61.5386 40.9448 61.1139 41.1929 60.6317C41.3932 60.2423 41.8236 60.0286 42.2549 60.1043C42.6861 60.1799 43.018 60.5274 43.0739 60.9616C43.1008 61.1707 43.1193 61.5169 43.0883 61.9236C44.2926 61.8269 45.7044 61.7108 46.963 61.6017C47.8506 61.5248 48.6585 61.4518 49.2628 61.3917C49.4133 61.3767 49.5499 61.3627 49.6711 61.3497C49.6585 61.1845 49.6349 61.015 49.6107 60.8855C49.5245 60.4251 49.7694 59.9667 50.1999 59.7823C50.6304 59.5979 51.1312 59.737 51.405 60.117L51.9005 60.8049L53.2151 60.3486C52.8486 59.9919 52.4712 59.5578 52.2313 59.0914C52.0217 58.6841 52.1156 58.1865 52.4593 57.8836C52.8029 57.5808 53.3084 57.5501 53.6861 57.8092C54.0485 58.0578 54.6414 58.446 55.2295 58.7945C55.857 59.1663 56.3556 59.4173 56.5798 59.4795C57.2452 59.6643 58.6917 59.8808 59.3666 59.9683C59.5512 59.9922 59.7255 60.0672 59.8699 60.1848C60.5608 60.748 61.6305 61.6315 62.5961 62.4537C63.3628 63.1065 64.1304 63.7759 64.5606 64.2061C64.6771 63.9156 64.9255 63.6922 65.2356 63.611L66.0445 63.3994C65.5082 63.1279 64.9566 62.8377 64.424 62.5414C63.6915 62.1338 62.979 61.7057 62.3863 61.2913C61.824 60.898 61.2635 60.446 60.9404 59.975C60.4133 59.2068 60.0683 58.1856 59.8445 57.2987C59.6156 56.3921 59.4877 55.5192 59.439 54.9753C59.4035 54.5788 59.6065 54.1991 59.9559 54.0084C60.3053 53.8177 60.7345 53.8524 61.0488 54.0966L61.1954 54.2106C62.3225 53.5325 64.2386 52.0673 65.5748 49.9573C66.8366 47.9649 67.7279 45.678 68.2017 44.2004L66.8 43.9854C66.3576 43.9175 66.0142 43.5639 65.9592 43.1198C65.9042 42.6756 66.1511 42.249 66.5636 42.0753C67.1618 41.8234 68.115 41.3218 68.9674 40.6641C69.1485 40.5243 69.3184 40.3827 69.4754 40.2401C69.1236 40.2305 68.7579 40.1842 68.4007 40.08C68.0269 39.9711 67.7504 39.6551 67.6919 39.2702C67.6334 38.8853 67.8037 38.5014 68.1282 38.2864C68.3164 38.1617 68.5461 38.0062 68.7966 37.8325C68.4764 37.6862 68.2525 37.379 68.2173 37.0209C68.1769 36.6097 68.3936 36.216 68.7626 36.03C68.8869 35.9674 69.0276 35.8935 69.1802 35.8099C68.8505 35.707 68.5907 35.4377 68.5067 35.0911C68.4036 34.6659 68.5888 34.2231 68.9639 33.998C69.1343 33.8957 69.3259 33.7738 69.531 33.6355C69.2178 33.5669 68.947 33.3494 68.8193 33.0379C68.6397 32.5999 68.7918 32.0959 69.1837 31.8305C69.362 31.7097 69.5635 31.5621 69.7775 31.3922C69.5847 31.3164 69.4148 31.1806 69.2977 30.9951C69.2707 30.9523 69.2474 30.9082 69.2275 30.863C68.6393 31.3363 67.959 31.7981 67.1752 32.2381C61.2391 35.5709 58.4782 38.1898 57.4123 39.801C56.8956 40.5819 56.5648 41.4978 56.2139 42.5532C56.1832 42.6454 56.1523 42.7389 56.1211 42.8335C55.8084 43.7806 55.4606 44.834 54.928 45.8042C54.3226 46.9073 53.6058 47.5912 52.8162 47.913C52.0193 48.2377 51.2846 48.1378 50.7633 47.9351ZM70.9859 27.2543C71.6728 25.883 71.6768 24.6807 71.4734 24C72.297 25.2004 72.2821 26.4896 71.9169 27.6275C71.8602 27.8039 71.7952 27.9766 71.7236 28.1448C71.302 29.1345 70.652 29.9674 70.1435 30.4615C70.6422 30.2769 71.0796 30.033 71.4605 29.7555C71.9116 29.4269 72.2837 29.0511 72.585 28.6705C73.1692 27.9328 73.4877 27.1774 73.6013 26.7138C73.7849 27.7399 73.3643 28.8028 72.7093 29.7594C72.5368 30.0112 72.348 30.2557 72.1498 30.4902C71.3561 31.4291 70.41 32.2078 69.7445 32.6585C70.4271 32.5321 71.0444 32.2819 71.5864 31.972C72.4139 31.4988 73.0659 30.8865 73.5075 30.3632C73.7235 30.1074 73.889 29.8728 74.0002 29.6862C74.0002 30.7059 73.1878 31.8163 72.1955 32.7749C71.9352 33.0264 71.6625 33.2674 71.3889 33.4936C70.6964 34.0661 69.998 34.5436 69.4785 34.8554C69.9721 34.8874 70.4869 34.813 70.9835 34.6798C71.3013 34.5945 71.6116 34.4852 71.9042 34.3641C72.6329 34.0627 73.2517 33.6886 73.6013 33.4338C73.2583 34.1559 72.3625 34.9353 71.4213 35.5954C71.4157 35.5993 71.4101 35.6032 71.4045 35.6071C70.599 36.1705 69.7626 36.6459 69.2125 36.9231C69.428 36.9829 69.708 36.9865 70.0133 36.9551C70.6343 36.8912 71.3599 36.6827 71.8593 36.5086C71.9631 36.4724 72.0571 36.4377 72.1384 36.4062C71.9038 36.7481 71.1735 37.3413 70.4019 37.9132C70.2599 38.0184 70.1166 38.1228 69.9747 38.2249C69.4886 38.5744 69.0193 38.8956 68.6806 39.12C69.2142 39.2756 69.8148 39.2642 70.3481 39.1871C70.3599 39.1854 70.3717 39.1837 70.3834 39.1819C70.8985 39.1042 71.3472 38.9665 71.6064 38.8615C71.4903 39.2901 71.2666 39.7019 70.9739 40.0897C70.3321 40.94 69.3586 41.6745 68.4614 42.2169C67.8929 42.5606 67.355 42.8271 66.9517 42.9969L69.4785 43.3846C69.416 43.6363 69.3236 43.9659 69.202 44.3539C68.72 45.8917 67.779 48.3458 66.4197 50.4923C64.8941 52.9013 62.6848 54.5214 61.4768 55.2039C61.3369 55.2829 61.2104 55.3494 61.1 55.4031L60.435 54.8862C60.4613 55.1799 60.5141 55.5881 60.5976 56.0494C60.612 56.1291 60.6273 56.2104 60.6436 56.2929C60.8508 57.3438 61.2098 58.6001 61.765 59.4092C62.4483 60.4052 65.3488 61.9676 67.5212 63.0131C68.0548 63.2699 68.5444 63.4955 68.9465 63.6738L65.4887 64.5785L65.2228 66C65.0785 65.965 64.7288 65.7987 64.3169 65.4039C64.2226 65.3134 64.125 65.211 64.0258 65.0954C63.4939 64.4751 60.6124 62.08 59.2381 60.96C58.5731 60.8738 57.057 60.6498 56.3123 60.4431C56.2783 60.4337 56.2424 60.4224 56.2047 60.4095C56.0362 60.3516 55.8318 60.2601 55.6076 60.147C55.3942 60.0393 55.1628 59.9122 54.9272 59.7762C54.9194 59.7717 54.9116 59.7672 54.9037 59.7626C54.2345 59.375 53.5352 58.9183 53.1204 58.6338C53.3581 59.0957 53.828 59.579 54.2893 59.9759C54.654 60.2897 55.0134 60.5494 55.2483 60.7015L51.5245 61.9938L50.5936 60.7015C50.6809 61.1683 50.7769 62.1201 50.4746 62.2471C50.47 62.249 50.4653 62.2508 50.4606 62.2523C50.1796 62.3433 45.822 62.7083 42.9084 62.9412C42.5131 62.9728 42.1444 63.002 41.8161 63.0277C41.8492 62.9527 41.8787 62.8761 41.9051 62.7987C41.9954 62.5335 42.0482 62.2586 42.0765 62.0041C42.1197 61.6162 42.1061 61.2758 42.0821 61.0892C41.8519 61.5365 41.4804 61.8994 41.0354 62.1917C40.2854 62.6843 39.3265 62.9763 38.4838 63.1338C37.9776 63.2283 37.5133 63.2744 37.1614 63.2862C37.3587 63.1263 37.5188 62.8636 37.6471 62.5552C37.6898 62.4525 37.729 62.3448 37.7648 62.2341C37.9697 61.6019 38.0663 60.8736 38.0923 60.4431C37.7219 61.043 37.26 61.559 36.7942 61.9838C36.7482 62.0258 36.7022 62.0669 36.6562 62.1071C35.9641 62.7116 35.2828 63.1128 34.9005 63.2862C35.2037 63.0406 35.459 62.5132 35.6576 61.9393C35.7042 61.8048 35.7476 61.6678 35.7879 61.5313C35.9373 61.0239 36.0424 60.5232 36.0974 60.1846C35.7698 60.5737 35.3082 60.9639 34.8054 61.326C34.6647 61.4274 34.5208 61.5266 34.3757 61.6229C33.5239 62.1883 32.6309 62.6563 32.1077 62.8985C32.4815 62.5594 32.7751 62.2373 33.0038 61.938C33.2852 61.5695 33.4684 61.2354 33.5819 60.9462C33.7699 60.4672 33.7671 60.1112 33.7036 59.9262C33.3268 60.423 32.84 60.8476 32.3 61.2076C31.9877 61.4157 31.6576 61.6023 31.3207 61.7686C30.1299 62.3567 28.8539 62.6927 27.9781 62.8409C28.6398 62.6891 29.2964 62.2724 29.8807 61.7695C30.1807 61.5112 30.4617 61.2302 30.7145 60.9507C31.1398 60.4806 31.4856 60.0145 31.7087 59.6677C30.9968 60.2392 30.1926 60.6276 29.374 60.8827C29.2384 60.9249 29.1025 60.9635 28.9665 60.9986C27.101 61.4808 25.2279 61.317 24.2611 61.0892C24.9687 61.1517 25.6778 61.0741 26.3475 60.9163C27.192 60.7173 27.9736 60.3909 28.6098 60.0572C29.1381 59.7802 29.5662 59.4981 29.8468 59.28C28.5834 59.838 27.3625 59.9889 26.2634 59.9072C25.9877 59.8867 25.7197 59.8515 25.4605 59.8045C23.8819 59.5182 22.6341 58.791 22.0002 58.2462C22.386 58.5345 23.5185 58.9 25.5335 58.8002C26.5289 58.7509 27.7395 58.588 29.1818 58.2462C32.6278 57.4294 34.2147 55.9934 35.6209 54.7208C36.4398 53.9797 37.1975 53.2941 38.2253 52.8185C40.1444 51.9305 42.3146 51.9577 43.9162 51.9779C44.6455 51.987 45.2568 51.9947 45.6729 51.9138C47.0028 51.6554 46.8698 50.7508 46.4708 49.7169C46.4333 49.6196 46.3969 49.5269 46.3618 49.4374C46.0241 48.5766 45.8059 48.0202 45.8059 46.6154C45.8059 45.3748 46.4265 44.6338 46.7368 44.4185L47.6678 42.48L48.51 44C48.6421 44 48.678 44.0394 48.7717 44.1423C48.8669 44.2468 49.0216 44.4166 49.3967 44.6769C50.1414 45.1938 50.8596 46.4431 51.1256 47.0031C51.7905 47.2615 52.9875 47.2615 54.0514 45.3231C54.5373 44.4378 54.8567 43.4717 55.1744 42.5109C55.5524 41.3678 55.9279 40.2322 56.5783 39.2492C57.7752 37.44 60.701 34.7262 66.6857 31.3662C69.0329 30.0484 70.3252 28.5732 70.9859 27.2543ZM27.5859 62.8985C27.7048 62.884 27.8362 62.8649 27.9781 62.8409C27.8474 62.8709 27.7165 62.8905 27.5859 62.8985Z" fill="url(#paint6_linear_452_7880)"/>
</g>
<defs>
<filter id="filter0_d_452_7880" x="-7" y="-7" width="116" height="116" filterUnits="userSpaceOnUse" color-interpolation-filters="sRGB">
<feFlood flood-opacity="0" result="BackgroundImageFix"/>
<feColorMatrix in="SourceAlpha" type="matrix" values="0 0 0 0 0 0 0 0 0 0 0 0 0 0 0 0 0 0 127 0" result="hardAlpha"/>
<feOffset dy="2"/>
<feGaussianBlur stdDeviation="6"/>
<feComposite in2="hardAlpha" operator="out"/>
<feColorMatrix type="matrix" values="0 0 0 0 0 0 0 0 0 0 0 0 0 0 0 0 0 0 0.35 0"/>
<feBlend mode="normal" in2="BackgroundImageFix" result="effect1_dropShadow_452_7880"/>
<feBlend mode="normal" in="SourceGraphic" in2="effect1_dropShadow_452_7880" result="shape"/>
</filter>
<filter id="filter1_ii_452_7880" x="25.0002" y="9" width="56" height="70" filterUnits="userSpaceOnUse" color-interpolation-filters="sRGB">
<feFlood flood-opacity="0" result="BackgroundImageFix"/>
<feBlend mode="normal" in="SourceGraphic" in2="BackgroundImageFix" result="shape"/>
<feColorMatrix in="SourceAlpha" type="matrix" values="0 0 0 0 0 0 0 0 0 0 0 0 0 0 0 0 0 0 127 0" result="hardAlpha"/>
<feOffset dx="2" dy="6"/>
<feGaussianBlur stdDeviation="2"/>
<feComposite in2="hardAlpha" operator="arithmetic" k2="-1" k3="1"/>
<feColorMatrix type="matrix" values="0 0 0 0 0 0 0 0 0 0 0 0 0 0 0 0 0 0 0.25 0"/>
<feBlend mode="normal" in2="shape" result="effect1_innerShadow_452_7880"/>
<feColorMatrix in="SourceAlpha" type="matrix" values="0 0 0 0 0 0 0 0 0 0 0 0 0 0 0 0 0 0 127 0" result="hardAlpha"/>
<feOffset dy="-12"/>
<feGaussianBlur stdDeviation="10.5"/>
<feComposite in2="hardAlpha" operator="arithmetic" k2="-1" k3="1"/>
<feColorMatrix type="matrix" values="0 0 0 0 0 0 0 0 0 0 0 0 0 0 0 0 0 0 0.25 0"/>
<feBlend mode="normal" in2="effect1_innerShadow_452_7880" result="effect2_innerShadow_452_7880"/>
</filter>
<filter id="filter2_dd_452_7880" x="10.0002" y="16" width="76" height="66" filterUnits="userSpaceOnUse" color-interpolation-filters="sRGB">
<feFlood flood-opacity="0" result="BackgroundImageFix"/>
<feColorMatrix in="SourceAlpha" type="matrix" values="0 0 0 0 0 0 0 0 0 0 0 0 0 0 0 0 0 0 127 0" result="hardAlpha"/>
<feOffset dy="4"/>
<feGaussianBlur stdDeviation="6"/>
<feComposite in2="hardAlpha" operator="out"/>
<feColorMatrix type="matrix" values="0 0 0 0 0.02 0 0 0 0 1 0 0 0 0 0 0 0 0 1 0"/>
<feBlend mode="normal" in2="BackgroundImageFix" result="effect1_dropShadow_452_7880"/>
<feColorMatrix in="SourceAlpha" type="matrix" values="0 0 0 0 0 0 0 0 0 0 0 0 0 0 0 0 0 0 127 0" result="hardAlpha"/>
<feOffset dy="1"/>
<feGaussianBlur stdDeviation="1"/>
<feComposite in2="hardAlpha" operator="out"/>
<feColorMatrix type="matrix" values="0 0 0 0 0 0 0 0 0 0 0 0 0 0 0 0 0 0 0.4 0"/>
<feBlend mode="normal" in2="effect1_dropShadow_452_7880" result="effect2_dropShadow_452_7880"/>
<feBlend mode="normal" in="SourceGraphic" in2="effect2_dropShadow_452_7880" result="shape"/>
</filter>
<linearGradient id="paint0_linear_452_7880" x1="51.9202" y1="10" x2="49.9617" y2="110.909" gradientUnits="userSpaceOnUse">
<stop offset="0.147416" stop-color="#B4BCC6"/>
<stop offset="0.290375" stop-color="#A8ACB3"/>
<stop offset="0.388067" stop-color="#AAAAAA"/>
<stop offset="0.473078" stop-color="#8E8E8E"/>
<stop offset="0.599749" stop-color="#9F9F9F"/>
<stop offset="0.755907" stop-color="#989898"/>
</linearGradient>
<linearGradient id="paint1_linear_452_7880" x1="51.9202" y1="10" x2="51.9202" y2="88" gradientUnits="userSpaceOnUse">
<stop offset="0.134497" stop-color="white"/>
<stop offset="0.375" stop-color="#7C7C7C"/>
<stop offset="0.492772" stop-color="#C7C7C7"/>
<stop offset="0.726826" stop-color="#ACACAC"/>
<stop offset="0.836338" stop-color="#9E9E9E"/>
<stop offset="0.976929" stop-color="#6B6B6B"/>
</linearGradient>
<linearGradient id="paint2_linear_452_7880" x1="51.6659" y1="13.8049" x2="49.9113" y2="104.211" gradientUnits="userSpaceOnUse">
<stop offset="0.147416" stop-color="#E4E4E4"/>
<stop offset="0.290375" stop-color="#C2C2C2"/>
<stop offset="0.388067" stop-color="#A0A0A0"/>
<stop offset="0.473078" stop-color="#838383"/>
<stop offset="0.599749" stop-color="#B3B3B3"/>
<stop offset="0.751332" stop-color="#EFEFEF"/>
</linearGradient>
<linearGradient id="paint3_linear_452_7880" x1="51.6659" y1="13.8049" x2="51.6659" y2="83.6864" gradientUnits="userSpaceOnUse">
<stop offset="0.134497" stop-color="#F4F4F4"/>
<stop offset="0.399055" stop-color="#707070"/>
<stop offset="0.726826" stop-color="#ABABAB"/>
<stop offset="1" stop-color="#A7A7A7"/>
</linearGradient>
<linearGradient id="paint4_linear_452_7880" x1="52.403" y1="8.94936" x2="50.1863" y2="99.3785" gradientUnits="userSpaceOnUse">
<stop offset="0.0640383" stop-color="#CECECE"/>
<stop offset="0.290375" stop-color="#767676"/>
<stop offset="0.388067" stop-color="#818181"/>
<stop offset="0.473078" stop-color="#696969"/>
<stop offset="0.599749" stop-color="#646464"/>
<stop offset="0.744049" stop-color="#656565"/>
</linearGradient>
<linearGradient id="paint5_linear_452_7880" x1="48.0002" y1="24" x2="64.7636" y2="113.002" gradientUnits="userSpaceOnUse">
<stop offset="0.147416" stop-color="#EEEEEE"/>
<stop offset="0.290375" stop-color="#C0C0C0"/>
<stop offset="0.388067" stop-color="#B9B9B9"/>
<stop offset="0.473078" stop-color="#989898"/>
<stop offset="0.599749" stop-color="#B8B8B8"/>
<stop offset="0.78066" stop-color="#7A7A7A"/>
</linearGradient>
<linearGradient id="paint6_linear_452_7880" x1="48.0002" y1="24" x2="48.0002" y2="66" gradientUnits="userSpaceOnUse">
<stop stop-color="white"/>
<stop offset="0.0001" stop-color="white"/>
<stop offset="0.50496" stop-color="#979797"/>
<stop offset="0.927083" stop-color="#B5B5B5"/>
</linearGradient>
</defs>
</svg>
