<svg width="104" height="104" viewBox="0 0 104 104" fill="none" xmlns="http://www.w3.org/2000/svg">
<g filter="url(#filter0_d_452_7882)">
<path d="M52 10L63.2915 17.2484L76.687 18.0213L81.5615 30.5223L91.9444 39.0213L88.54 52L91.9444 64.9787L81.5615 73.4777L76.687 85.9787L63.2915 86.7516L52 94L40.7086 86.7516L27.3131 85.9787L22.4386 73.4777L12.0557 64.9787L15.46 52L12.0557 39.0213L22.4386 30.5223L27.3131 18.0213L40.7086 17.2484L52 10Z" fill="url(#paint0_linear_452_7882)"/>
<path fill-rule="evenodd" clip-rule="evenodd" d="M63.2915 17.2484L52 10L40.7086 17.2484L27.3131 18.0213L22.4386 30.5223L12.0557 39.0213L15.46 52L12.0557 64.9787L22.4386 73.4777L27.3131 85.9787L40.7086 86.7516L52 94L63.2915 86.7516L76.687 85.9787L81.5615 73.4777L91.9444 64.9787L88.54 52L91.9444 39.0213L81.5615 30.5223L76.687 18.0213L63.2915 17.2484ZM75.9885 18.9826L63.2339 18.2467C63.0622 18.2368 62.896 18.1828 62.7513 18.0899L52 11.1883L41.2488 18.0899C41.1041 18.1828 40.9378 18.2368 40.7662 18.2467L28.0115 18.9826L23.3702 30.8856C23.3078 31.0458 23.205 31.1872 23.072 31.2961L13.1858 39.3885L16.4273 51.7463C16.4709 51.9126 16.4709 52.0874 16.4273 52.2537L13.1858 64.6115L23.072 72.7039C23.205 72.8128 23.3078 72.9542 23.3702 73.1144L28.0115 85.0174L40.7662 85.7533C40.9378 85.7632 41.1041 85.8172 41.2488 85.9101L52 92.8117L62.7513 85.9101C62.896 85.8172 63.0622 85.7632 63.2339 85.7533L75.9885 85.0174L80.6298 73.1144C80.6923 72.9542 80.795 72.8128 80.9281 72.7039L90.8143 64.6115L87.5728 52.2537C87.5291 52.0874 87.5291 51.9126 87.5728 51.7463L90.8143 39.3885L80.9281 31.2961C80.795 31.1872 80.6923 31.0458 80.6298 30.8856L75.9885 18.9826Z" fill="url(#paint1_linear_452_7882)"/>
<path d="M52.5 18L56.1848 20.9746L60.4562 18.93L63.3557 22.6742L67.9836 21.6697L69.9414 25.9816L74.6762 26.0715L75.5868 30.7187L80.1732 31.898L79.9876 36.63L84.1784 38.8352L82.9066 43.3969L86.4758 46.5091L84.1863 50.6545L86.9416 54.506L83.7578 58.0116L85.5506 62.3947L81.6442 65.0716L82.3779 69.75L77.9594 71.4538L77.5944 76.1753L72.9021 76.8142L71.458 81.3243L66.7449 80.8639L64.2997 84.9194L59.8197 83.3844L56.5052 86.7667L52.5 84.24L48.4948 86.7667L45.1802 83.3844L40.7003 84.9194L38.2551 80.8639L33.5419 81.3243L32.0979 76.8142L27.4056 76.1753L27.0406 71.4538L22.6221 69.75L23.3558 65.0716L19.4493 62.3947L21.2422 58.0116L18.0583 54.506L20.8137 50.6545L18.5241 46.5091L22.0934 43.3969L20.8215 38.8352L25.0123 36.63L24.8267 31.898L29.4131 30.7187L30.3238 26.0715L35.0586 25.9816L37.0164 21.6697L41.6443 22.6742L44.5437 18.93L48.8152 20.9746L52.5 18Z" fill="url(#paint2_linear_452_7882)"/>
<path fill-rule="evenodd" clip-rule="evenodd" d="M56.1848 20.9746L52.5 18L48.8152 20.9746L44.5437 18.93L41.6443 22.6742L37.0164 21.6697L35.0586 25.9816L30.3238 26.0715L29.4131 30.7187L24.8267 31.898L25.0123 36.63L20.8215 38.8352L22.0934 43.3969L18.5241 46.5091L20.8137 50.6545L18.0583 54.506L21.2422 58.0116L19.4493 62.3947L23.3558 65.0716L22.6221 69.75L27.0406 71.4538L27.4056 76.1753L32.0979 76.8142L33.5419 81.3243L38.2551 80.8639L40.7003 84.9194L45.1802 83.3844L48.4948 86.7667L52.5 84.24L56.5052 86.7667L59.8197 83.3844L64.2997 84.9194L66.7449 80.8639L71.458 81.3243L72.9021 76.8142L77.5944 76.1753L77.9594 71.4538L82.3779 69.75L81.6442 65.0716L85.5506 62.3947L83.7578 58.0116L86.9416 54.506L84.1863 50.6545L86.4758 46.5091L82.9066 43.3969L84.1784 38.8352L79.9876 36.63L80.1732 31.898L75.5868 30.7187L74.6762 26.0715L69.9414 25.9816L67.9836 21.6697L63.3557 22.6742L60.4562 18.93L56.1848 20.9746ZM60.308 19.5552L56.4007 21.4256C56.2268 21.5088 56.0207 21.4847 55.8707 21.3637L52.5 18.6426L49.1293 21.3637C48.9793 21.4847 48.7731 21.5088 48.5993 21.4256L44.6919 19.5552L42.0396 22.9803C41.9216 23.1327 41.7265 23.2037 41.5382 23.1628L37.3048 22.2439L35.5138 26.1883C35.4342 26.3638 35.2607 26.4779 35.0681 26.4815L30.7369 26.5637L29.9038 30.8148C29.8668 31.004 29.7243 31.1549 29.5377 31.2029L25.3422 32.2818L25.512 36.6104C25.5195 36.803 25.4157 36.9827 25.2452 37.0725L21.4116 39.0898L22.575 43.2626C22.6268 43.4482 22.5672 43.6471 22.422 43.7737L19.1569 46.6207L21.2514 50.4127C21.3445 50.5814 21.3325 50.7887 21.2203 50.9454L18.6999 54.4686L21.6123 57.6754C21.7419 57.8181 21.7779 58.0225 21.705 58.2009L20.0649 62.2104L23.6384 64.6591C23.7974 64.7681 23.8796 64.9586 23.8498 65.149L23.1786 69.4287L27.2205 70.9873C27.4003 71.0566 27.5243 71.2231 27.5391 71.4153L27.873 75.7344L32.1654 76.3188C32.3563 76.3448 32.5153 76.4782 32.5741 76.6618L33.895 80.7875L38.2065 80.3663C38.3983 80.3475 38.5838 80.4407 38.6833 80.6057L40.9201 84.3156L45.0182 82.9114C45.2005 82.849 45.4025 82.8968 45.5373 83.0345L48.5694 86.1285L52.2332 83.8171C52.3962 83.7143 52.6038 83.7143 52.7668 83.8171L56.4306 86.1285L59.4626 83.0345C59.5975 82.8968 59.7995 82.849 59.9818 82.9114L64.0799 84.3156L66.3167 80.6057C66.4162 80.4407 66.6017 80.3475 66.7935 80.3663L71.1049 80.7875L72.4259 76.6618C72.4846 76.4782 72.6436 76.3448 72.8346 76.3188L77.127 75.7344L77.4609 71.4153C77.4757 71.2231 77.5997 71.0566 77.7795 70.9873L81.8214 69.4287L81.1502 65.149C81.1203 64.9586 81.2026 64.7681 81.3615 64.6591L84.935 62.2104L83.295 58.2009C83.222 58.0225 83.2581 57.8181 83.3876 57.6754L86.3001 54.4686L83.7796 50.9454C83.6675 50.7887 83.6554 50.5814 83.7486 50.4127L85.843 46.6207L82.578 43.7737C82.4327 43.6471 82.3732 43.4482 82.4249 43.2626L83.5884 39.0898L79.7548 37.0725C79.5842 36.9827 79.4805 36.803 79.488 36.6104L79.6578 32.2818L75.4623 31.2029C75.2757 31.1549 75.1332 31.004 75.0961 30.8148L74.2631 26.5637L69.9319 26.4815C69.7392 26.4779 69.5658 26.3638 69.4861 26.1883L67.6952 22.2439L63.4618 23.1628C63.2734 23.2037 63.0784 23.1327 62.9604 22.9803L60.308 19.5552Z" fill="url(#paint3_linear_452_7882)"/>
<g filter="url(#filter1_ii_452_7882)">
<path d="M80 52.5C80 67.6878 67.6878 80 52.5 80C37.3122 80 25 67.6878 25 52.5C25 37.3122 37.3122 25 52.5 25C67.6878 25 80 37.3122 80 52.5Z" fill="#11780F"/>
</g>
<g filter="url(#filter2_ii_452_7882)">
<path fill-rule="evenodd" clip-rule="evenodd" d="M52.5 79C67.1355 79 79 67.1355 79 52.5C79 37.8645 67.1355 26 52.5 26C37.8645 26 26 37.8645 26 52.5C26 67.1355 37.8645 79 52.5 79ZM52.5 80C67.6878 80 80 67.6878 80 52.5C80 37.3122 67.6878 25 52.5 25C37.3122 25 25 37.3122 25 52.5C25 67.6878 37.3122 80 52.5 80Z" fill="url(#paint4_linear_452_7882)"/>
</g>
<g filter="url(#filter3_dd_452_7882)">
<mask id="path-7-inside-1_452_7882" fill="white">
<path d="M71.0516 48.2751C70.3261 51.9585 69.4012 57.0027 69.1427 59.2854C61.728 71.9838 43.3784 71.9838 35.9636 59.2854C35.7051 57.0025 34.7802 51.9583 34.0548 48.2751C33.2242 47.8962 32.6445 47.0603 32.6445 46.0897C32.6445 44.765 33.7221 43.6875 35.0467 43.6875C36.3714 43.6875 37.4489 44.765 37.4489 46.0897C37.4489 46.5194 37.3341 46.9221 37.1357 47.2716L39.3043 49.4403C39.9524 47.918 40.2689 45.5721 40.3533 43.7784C39.6773 43.3529 39.2259 42.6023 39.2259 41.746C39.2259 40.4216 40.3035 39.3438 41.6281 39.3438C42.9528 39.3438 44.0303 40.4216 44.0303 41.746C44.0303 42.343 43.8101 42.8886 43.4484 43.3092C44.8529 45.7295 46.8108 48.0534 48.0258 49.4003C49.0948 47.1709 50.2994 42.7342 51.0461 39.2702C50.5008 38.8297 50.151 38.1563 50.151 37.4024C50.151 36.0777 51.2285 35 52.5532 35C53.8779 35 54.9553 36.0777 54.9553 37.4024C54.9553 38.1563 54.6054 38.8296 54.0605 39.2702C54.8073 42.7339 56.0119 47.1701 57.0804 49.3995C58.2961 48.0512 60.2549 45.7255 61.6578 43.3092C61.2962 42.8886 61.0759 42.343 61.0759 41.746C61.0759 40.4216 62.1535 39.3438 63.4782 39.3438C64.8028 39.3438 65.8804 40.4216 65.8804 41.746C65.8804 42.6017 65.4294 43.3524 64.7539 43.7779C64.8394 45.5717 65.1563 47.9178 65.8028 49.4395L67.9706 47.2716C67.7721 46.9221 67.6573 46.5194 67.6573 46.0897C67.6573 44.765 68.7349 43.6875 70.0596 43.6875C71.3842 43.6875 72.4618 44.765 72.4618 46.0897C72.4618 47.0603 71.8821 47.8962 71.0516 48.2751Z"/>
</mask>
<path d="M71.0516 48.2751C70.3261 51.9585 69.4012 57.0027 69.1427 59.2854C61.728 71.9838 43.3784 71.9838 35.9636 59.2854C35.7051 57.0025 34.7802 51.9583 34.0548 48.2751C33.2242 47.8962 32.6445 47.0603 32.6445 46.0897C32.6445 44.765 33.7221 43.6875 35.0467 43.6875C36.3714 43.6875 37.4489 44.765 37.4489 46.0897C37.4489 46.5194 37.3341 46.9221 37.1357 47.2716L39.3043 49.4403C39.9524 47.918 40.2689 45.5721 40.3533 43.7784C39.6773 43.3529 39.2259 42.6023 39.2259 41.746C39.2259 40.4216 40.3035 39.3438 41.6281 39.3438C42.9528 39.3438 44.0303 40.4216 44.0303 41.746C44.0303 42.343 43.8101 42.8886 43.4484 43.3092C44.8529 45.7295 46.8108 48.0534 48.0258 49.4003C49.0948 47.1709 50.2994 42.7342 51.0461 39.2702C50.5008 38.8297 50.151 38.1563 50.151 37.4024C50.151 36.0777 51.2285 35 52.5532 35C53.8779 35 54.9553 36.0777 54.9553 37.4024C54.9553 38.1563 54.6054 38.8296 54.0605 39.2702C54.8073 42.7339 56.0119 47.1701 57.0804 49.3995C58.2961 48.0512 60.2549 45.7255 61.6578 43.3092C61.2962 42.8886 61.0759 42.343 61.0759 41.746C61.0759 40.4216 62.1535 39.3438 63.4782 39.3438C64.8028 39.3438 65.8804 40.4216 65.8804 41.746C65.8804 42.6017 65.4294 43.3524 64.7539 43.7779C64.8394 45.5717 65.1563 47.9178 65.8028 49.4395L67.9706 47.2716C67.7721 46.9221 67.6573 46.5194 67.6573 46.0897C67.6573 44.765 68.7349 43.6875 70.0596 43.6875C71.3842 43.6875 72.4618 44.765 72.4618 46.0897C72.4618 47.0603 71.8821 47.8962 71.0516 48.2751Z" fill="url(#paint5_linear_452_7882)"/>
<path d="M69.1427 59.2854L70.0063 59.7897C70.0764 59.6696 70.1208 59.5362 70.1364 59.398L69.1427 59.2854ZM71.0516 48.2751L70.6365 47.3653C70.3434 47.499 70.1327 47.7658 70.0704 48.0819L71.0516 48.2751ZM67.9706 47.2716L68.6777 47.9787C68.9959 47.6605 69.0624 47.169 68.8401 46.7777L67.9706 47.2716ZM65.8028 49.4395L64.8824 49.8305C65.0124 50.1364 65.2859 50.3577 65.6121 50.4211C65.9384 50.4845 66.2749 50.3816 66.5099 50.1466L65.8028 49.4395ZM64.7539 43.7779L64.2209 42.9318C63.9158 43.1239 63.7378 43.4654 63.755 43.8255L64.7539 43.7779ZM61.6578 43.3092L62.5226 43.8113C62.7363 43.4432 62.6936 42.9801 62.4161 42.6573L61.6578 43.3092ZM57.0804 49.3995L56.1786 49.8317C56.3228 50.1325 56.6074 50.3416 56.9375 50.3892C57.2676 50.4369 57.5997 50.3169 57.8231 50.0692L57.0804 49.3995ZM54.0605 39.2702L53.4317 38.4926C53.1383 38.7299 53.0034 39.1121 53.0829 39.481L54.0605 39.2702ZM51.0461 39.2702L52.0237 39.481C52.1032 39.1119 51.9682 38.7295 51.6745 38.4923L51.0461 39.2702ZM48.0258 49.4003L47.2833 50.0701C47.5066 50.3177 47.8387 50.4377 48.1687 50.39C48.4987 50.3424 48.7833 50.1334 48.9275 49.8327L48.0258 49.4003ZM43.4484 43.3092L42.6903 42.6571C42.4127 42.9799 42.3698 43.4429 42.5835 43.8111L43.4484 43.3092ZM40.3533 43.7784L41.3522 43.8254C41.3691 43.4654 41.191 43.1242 40.886 42.9322L40.3533 43.7784ZM39.3043 49.4403L38.5972 50.1474C38.8322 50.3823 39.1684 50.4852 39.4946 50.422C39.8208 50.3588 40.0943 50.1377 40.2244 49.832L39.3043 49.4403ZM37.1357 47.2716L36.2661 46.7779C36.044 47.1692 36.1105 47.6606 36.4286 47.9787L37.1357 47.2716ZM34.0548 48.2751L35.0359 48.0819C34.9737 47.7658 34.7629 47.499 34.4698 47.3653L34.0548 48.2751ZM35.9636 59.2854L34.9699 59.3979C34.9856 59.5362 35.0299 59.6696 35.1 59.7897L35.9636 59.2854ZM70.1364 59.398C70.3895 57.1631 71.3057 52.1598 72.0327 48.4683L70.0704 48.0819C69.3466 51.7573 68.413 56.8424 68.1491 59.1729L70.1364 59.398ZM71.4666 49.1849C72.6374 48.6508 73.4618 47.4693 73.4618 46.0897H71.4618C71.4618 46.6514 71.1268 47.1417 70.6365 47.3653L71.4666 49.1849ZM73.4618 46.0897C73.4618 44.2127 71.9364 42.6875 70.0596 42.6875V44.6875C70.8319 44.6875 71.4618 45.3173 71.4618 46.0897H73.4618ZM70.0596 42.6875C68.1827 42.6875 66.6573 44.2127 66.6573 46.0897H68.6573C68.6573 45.3174 69.2871 44.6875 70.0596 44.6875V42.6875ZM66.6573 46.0897C66.6573 46.7001 66.8208 47.2722 67.1011 47.7656L68.8401 46.7777C68.7233 46.5721 68.6573 46.3387 68.6573 46.0897H66.6573ZM67.2635 46.5645L65.0957 48.7324L66.5099 50.1466L68.6777 47.9787L67.2635 46.5645ZM66.7232 49.0484C66.1479 47.6944 65.8368 45.493 65.7527 43.7303L63.755 43.8255C63.842 45.6504 64.1648 48.1413 64.8824 49.8305L66.7232 49.0484ZM65.2868 44.624C66.2382 44.0248 66.8804 42.9625 66.8804 41.746H64.8804C64.8804 42.241 64.6206 42.68 64.2209 42.9318L65.2868 44.624ZM66.8804 41.746C66.8804 39.8693 65.3551 38.3438 63.4782 38.3438V40.3438C64.2505 40.3438 64.8804 40.9738 64.8804 41.746H66.8804ZM63.4782 38.3438C61.6013 38.3438 60.0759 39.8693 60.0759 41.746H62.0759C62.0759 40.9739 62.7058 40.3438 63.4782 40.3438V38.3438ZM60.0759 41.746C60.0759 42.594 60.3898 43.3683 60.8995 43.9611L62.4161 42.6573C62.2026 42.409 62.0759 42.092 62.0759 41.746H60.0759ZM60.793 42.8071C59.4424 45.1333 57.5383 47.3983 56.3377 48.7299L57.8231 50.0692C59.0539 48.7041 61.0674 46.3176 62.5226 43.8113L60.793 42.8071ZM57.9822 48.9673C56.9695 46.8543 55.7845 42.5213 55.038 39.0594L53.0829 39.481C53.8302 42.9466 55.0543 47.486 56.1786 49.8317L57.9822 48.9673ZM54.6892 40.0478C55.4573 39.4268 55.9553 38.473 55.9553 37.4024H53.9553C53.9553 37.8396 53.7536 38.2323 53.4317 38.4926L54.6892 40.0478ZM55.9553 37.4024C55.9553 35.5256 54.4303 34 52.5532 34V36C53.3254 36 53.9553 36.6299 53.9553 37.4024H55.9553ZM52.5532 34C50.676 34 49.151 35.5256 49.151 37.4024H51.151C51.151 36.6299 51.7809 36 52.5532 36V34ZM49.151 37.4024C49.151 38.4728 49.6488 39.427 50.4178 40.0481L51.6745 38.4923C51.3527 38.2324 51.151 37.8397 51.151 37.4024H49.151ZM50.0686 39.0595C49.3223 42.5216 48.1373 46.8551 47.1241 48.9679L48.9275 49.8327C50.0524 47.4868 51.2765 42.9468 52.0237 39.481L50.0686 39.0595ZM48.7683 48.7305C47.5685 47.4004 45.6654 45.1374 44.3133 42.8073L42.5835 43.8111C44.0403 46.3216 46.053 48.7063 47.2833 50.0701L48.7683 48.7305ZM44.2066 43.9613C44.7166 43.3683 45.0303 42.5939 45.0303 41.746H43.0303C43.0303 42.0921 42.9037 42.409 42.6903 42.6571L44.2066 43.9613ZM45.0303 41.746C45.0303 39.8694 43.5051 38.3438 41.6281 38.3438V40.3438C42.4004 40.3438 43.0303 40.9738 43.0303 41.746H45.0303ZM41.6281 38.3438C39.7512 38.3438 38.2259 39.8693 38.2259 41.746H40.2259C40.2259 40.9738 40.8558 40.3438 41.6281 40.3438V38.3438ZM38.2259 41.746C38.2259 42.9633 38.8688 44.0256 39.8205 44.6247L40.886 42.9322C40.4858 42.6803 40.2259 42.2413 40.2259 41.746H38.2259ZM39.3544 43.7315C39.2715 45.4937 38.9608 47.6943 38.3842 49.0486L40.2244 49.832C40.944 48.1416 41.2664 45.6505 41.3522 43.8254L39.3544 43.7315ZM40.0114 48.7332L37.8428 46.5645L36.4286 47.9787L38.5972 50.1474L40.0114 48.7332ZM38.0053 47.7653C38.2854 47.2721 38.4489 46.7001 38.4489 46.0897H36.4489C36.4489 46.3387 36.3829 46.5722 36.2661 46.7779L38.0053 47.7653ZM38.4489 46.0897C38.4489 44.2127 36.9237 42.6875 35.0467 42.6875V44.6875C35.8191 44.6875 36.4489 45.3173 36.4489 46.0897H38.4489ZM35.0467 42.6875C33.1699 42.6875 31.6445 44.2127 31.6445 46.0897H33.6445C33.6445 45.3173 34.2744 44.6875 35.0467 44.6875V42.6875ZM31.6445 46.0897C31.6445 47.4693 32.4689 48.6508 33.6397 49.1849L34.4698 47.3653C33.9796 47.1417 33.6445 46.6514 33.6445 46.0897H31.6445ZM33.0736 48.4683C33.8006 52.1595 34.7169 57.1628 34.9699 59.3979L36.9572 59.1729C36.6933 56.8421 35.7598 51.757 35.0359 48.0819L33.0736 48.4683ZM35.1 59.7897C42.9008 73.1491 62.2056 73.1491 70.0063 59.7897L68.2792 58.7812C61.2504 70.8186 43.8559 70.8186 36.8271 58.7812L35.1 59.7897Z" fill="url(#paint6_linear_452_7882)" mask="url(#path-7-inside-1_452_7882)"/>
</g>
<path d="M48.684 63.028C48.252 63.028 47.852 63 47.484 62.944C47.124 62.888 46.748 62.792 46.356 62.656C45.932 62.512 45.6 62.28 45.36 61.96C45.12 61.632 45 61.236 45 60.772V57.364C45 56.98 45.084 56.636 45.252 56.332C45.428 56.028 45.652 55.788 45.924 55.612C46.164 55.46 46.46 55.332 46.812 55.228C47.164 55.124 47.492 55.06 47.796 55.036C48.076 55.012 48.372 55 48.684 55C49.052 55 49.372 55.016 49.644 55.048C49.916 55.072 50.22 55.128 50.556 55.216C50.94 55.328 51.256 55.464 51.504 55.624C51.752 55.784 51.96 56.008 52.128 56.296C52.304 56.592 52.392 56.948 52.392 57.364V60.772C52.392 61.204 52.276 61.576 52.044 61.888C51.82 62.2 51.508 62.436 51.108 62.596C50.388 62.884 49.58 63.028 48.684 63.028ZM48.708 61.696C48.972 61.696 49.192 61.688 49.368 61.672C49.552 61.648 49.74 61.608 49.932 61.552C50.124 61.496 50.268 61.404 50.364 61.276C50.468 61.14 50.52 60.972 50.52 60.772V57.352C50.52 56.984 50.372 56.724 50.076 56.572C49.78 56.412 49.32 56.332 48.696 56.332C48.072 56.332 47.612 56.408 47.316 56.56C47.02 56.712 46.872 56.976 46.872 57.352V60.772C46.872 60.972 46.924 61.14 47.028 61.276C47.132 61.404 47.284 61.496 47.484 61.552C47.676 61.608 47.86 61.648 48.036 61.672C48.22 61.688 48.444 61.696 48.708 61.696Z" fill="url(#paint7_linear_452_7882)"/>
<path d="M57.6065 63.028C57.1585 63.028 56.7625 63.008 56.4185 62.968C56.0745 62.928 55.7345 62.86 55.3985 62.764C55.0385 62.668 54.7425 62.54 54.5105 62.38C54.2785 62.212 54.0905 61.996 53.9465 61.732C53.8025 61.452 53.7305 61.132 53.7305 60.772V57.532C53.7305 57.14 53.8105 56.788 53.9705 56.476C54.1305 56.156 54.3465 55.904 54.6185 55.72C54.8745 55.552 55.1785 55.408 55.5305 55.288C55.8905 55.168 56.2425 55.088 56.5865 55.048C56.8745 55.016 57.2225 55 57.6305 55C58.7345 55 59.7905 55.084 60.7985 55.252V56.668C59.8705 56.444 58.8145 56.332 57.6305 56.332C56.2785 56.332 55.6025 56.724 55.6025 57.508V60.64C55.6025 61.024 55.7825 61.296 56.1425 61.456C56.5105 61.616 57.0625 61.696 57.7985 61.696C58.1905 61.696 58.6105 61.636 59.0585 61.516V59.704H57.7865V58.48H60.8465V62.524C60.4465 62.668 59.9345 62.788 59.3105 62.884C58.6945 62.98 58.1265 63.028 57.6065 63.028Z" fill="url(#paint8_linear_452_7882)"/>
</g>
<defs>
<filter id="filter0_d_452_7882" x="-4" y="-4" width="112" height="112" filterUnits="userSpaceOnUse" color-interpolation-filters="sRGB">
<feFlood flood-opacity="0" result="BackgroundImageFix"/>
<feColorMatrix in="SourceAlpha" type="matrix" values="0 0 0 0 0 0 0 0 0 0 0 0 0 0 0 0 0 0 127 0" result="hardAlpha"/>
<feOffset/>
<feGaussianBlur stdDeviation="5"/>
<feComposite in2="hardAlpha" operator="out"/>
<feColorMatrix type="matrix" values="0 0 0 0 0.447059 0 0 0 0 0.490196 0 0 0 0 0.560784 0 0 0 1 0"/>
<feBlend mode="normal" in2="BackgroundImageFix" result="effect1_dropShadow_452_7882"/>
<feBlend mode="normal" in="SourceGraphic" in2="effect1_dropShadow_452_7882" result="shape"/>
</filter>
<filter id="filter1_ii_452_7882" x="25" y="13" width="57" height="71" filterUnits="userSpaceOnUse" color-interpolation-filters="sRGB">
<feFlood flood-opacity="0" result="BackgroundImageFix"/>
<feBlend mode="normal" in="SourceGraphic" in2="BackgroundImageFix" result="shape"/>
<feColorMatrix in="SourceAlpha" type="matrix" values="0 0 0 0 0 0 0 0 0 0 0 0 0 0 0 0 0 0 127 0" result="hardAlpha"/>
<feOffset dx="2" dy="6"/>
<feGaussianBlur stdDeviation="2"/>
<feComposite in2="hardAlpha" operator="arithmetic" k2="-1" k3="1"/>
<feColorMatrix type="matrix" values="0 0 0 0 0 0 0 0 0 0 0 0 0 0 0 0 0 0 0.25 0"/>
<feBlend mode="normal" in2="shape" result="effect1_innerShadow_452_7882"/>
<feColorMatrix in="SourceAlpha" type="matrix" values="0 0 0 0 0 0 0 0 0 0 0 0 0 0 0 0 0 0 127 0" result="hardAlpha"/>
<feOffset dy="-12"/>
<feGaussianBlur stdDeviation="10.5"/>
<feComposite in2="hardAlpha" operator="arithmetic" k2="-1" k3="1"/>
<feColorMatrix type="matrix" values="0 0 0 0 0 0 0 0 0 0 0 0 0 0 0 0 0 0 0.25 0"/>
<feBlend mode="normal" in2="effect1_innerShadow_452_7882" result="effect2_innerShadow_452_7882"/>
</filter>
<filter id="filter2_ii_452_7882" x="25" y="13" width="57" height="71" filterUnits="userSpaceOnUse" color-interpolation-filters="sRGB">
<feFlood flood-opacity="0" result="BackgroundImageFix"/>
<feBlend mode="normal" in="SourceGraphic" in2="BackgroundImageFix" result="shape"/>
<feColorMatrix in="SourceAlpha" type="matrix" values="0 0 0 0 0 0 0 0 0 0 0 0 0 0 0 0 0 0 127 0" result="hardAlpha"/>
<feOffset dx="2" dy="6"/>
<feGaussianBlur stdDeviation="2"/>
<feComposite in2="hardAlpha" operator="arithmetic" k2="-1" k3="1"/>
<feColorMatrix type="matrix" values="0 0 0 0 0 0 0 0 0 0 0 0 0 0 0 0 0 0 0.25 0"/>
<feBlend mode="normal" in2="shape" result="effect1_innerShadow_452_7882"/>
<feColorMatrix in="SourceAlpha" type="matrix" values="0 0 0 0 0 0 0 0 0 0 0 0 0 0 0 0 0 0 127 0" result="hardAlpha"/>
<feOffset dy="-12"/>
<feGaussianBlur stdDeviation="10.5"/>
<feComposite in2="hardAlpha" operator="arithmetic" k2="-1" k3="1"/>
<feColorMatrix type="matrix" values="0 0 0 0 0 0 0 0 0 0 0 0 0 0 0 0 0 0 0.25 0"/>
<feBlend mode="normal" in2="effect1_innerShadow_452_7882" result="effect2_innerShadow_452_7882"/>
</filter>
<filter id="filter3_dd_452_7882" x="20.6445" y="27" width="63.8173" height="57.8093" filterUnits="userSpaceOnUse" color-interpolation-filters="sRGB">
<feFlood flood-opacity="0" result="BackgroundImageFix"/>
<feColorMatrix in="SourceAlpha" type="matrix" values="0 0 0 0 0 0 0 0 0 0 0 0 0 0 0 0 0 0 127 0" result="hardAlpha"/>
<feOffset dy="4"/>
<feGaussianBlur stdDeviation="6"/>
<feComposite in2="hardAlpha" operator="out"/>
<feColorMatrix type="matrix" values="0 0 0 0 0.02 0 0 0 0 1 0 0 0 0 0 0 0 0 1 0"/>
<feBlend mode="normal" in2="BackgroundImageFix" result="effect1_dropShadow_452_7882"/>
<feColorMatrix in="SourceAlpha" type="matrix" values="0 0 0 0 0 0 0 0 0 0 0 0 0 0 0 0 0 0 127 0" result="hardAlpha"/>
<feOffset dy="1"/>
<feGaussianBlur stdDeviation="1"/>
<feComposite in2="hardAlpha" operator="out"/>
<feColorMatrix type="matrix" values="0 0 0 0 0 0 0 0 0 0 0 0 0 0 0 0 0 0 0.4 0"/>
<feBlend mode="normal" in2="effect1_dropShadow_452_7882" result="effect2_dropShadow_452_7882"/>
<feBlend mode="normal" in="SourceGraphic" in2="effect2_dropShadow_452_7882" result="shape"/>
</filter>
<linearGradient id="paint0_linear_452_7882" x1="52" y1="10" x2="49.8909" y2="118.672" gradientUnits="userSpaceOnUse">
<stop offset="0.0616971" stop-color="#E3EBF4"/>
<stop offset="0.147416" stop-color="#B3BFCD"/>
<stop offset="0.278418" stop-color="#B9BFCA"/>
<stop offset="0.388067" stop-color="#5F6A7E"/>
<stop offset="0.473078" stop-color="#768193"/>
<stop offset="0.599749" stop-color="#9DA9B7"/>
<stop offset="0.755907" stop-color="#667792"/>
</linearGradient>
<linearGradient id="paint1_linear_452_7882" x1="52" y1="10" x2="52" y2="94" gradientUnits="userSpaceOnUse">
<stop stop-color="#DBE6F6"/>
<stop offset="0.0938671" stop-color="white"/>
<stop offset="0.117369" stop-color="#A0B3D2"/>
<stop offset="0.227046" stop-color="#93A6C7"/>
<stop offset="0.253681" stop-color="#DCE9FF"/>
<stop offset="0.336722" stop-color="white"/>
<stop offset="0.385293" stop-color="#5E697B"/>
<stop offset="0.501237" stop-color="#627087"/>
<stop offset="0.510637" stop-color="#8EA1BF"/>
<stop offset="0.645383" stop-color="#8FA3C4"/>
<stop offset="0.664184" stop-color="#556C91"/>
<stop offset="0.76446" stop-color="#687A97"/>
<stop offset="0.836338" stop-color="#748294"/>
<stop offset="1" stop-color="#CCDAF0"/>
</linearGradient>
<linearGradient id="paint2_linear_452_7882" x1="52.4998" y1="18" x2="50.7673" y2="107.266" gradientUnits="userSpaceOnUse">
<stop offset="0.04606" stop-color="#E5F0FD"/>
<stop offset="0.147416" stop-color="#B3BFCD"/>
<stop offset="0.278418" stop-color="#B9BFCA"/>
<stop offset="0.388067" stop-color="#5F6A7E"/>
<stop offset="0.473078" stop-color="#768193"/>
<stop offset="0.599749" stop-color="#9DA9B7"/>
<stop offset="0.755907" stop-color="#AEBFD7"/>
</linearGradient>
<linearGradient id="paint3_linear_452_7882" x1="52.5" y1="18" x2="52.5" y2="87" gradientUnits="userSpaceOnUse">
<stop stop-color="white"/>
<stop offset="0.0938671" stop-color="white"/>
<stop offset="0.117369" stop-color="#A0B3D2"/>
<stop offset="0.227046" stop-color="#93A6C7"/>
<stop offset="0.253681" stop-color="#DCE9FF"/>
<stop offset="0.336722" stop-color="white"/>
<stop offset="0.385293" stop-color="#8291AA"/>
<stop offset="0.501237" stop-color="#71829E"/>
<stop offset="0.510637" stop-color="#8EA1BF"/>
<stop offset="0.645383" stop-color="#8FA3C4"/>
<stop offset="0.664184" stop-color="#556C91"/>
<stop offset="0.76446" stop-color="#627594"/>
<stop offset="0.836338" stop-color="#748294"/>
<stop offset="1" stop-color="#CCDAF0"/>
</linearGradient>
<linearGradient id="paint4_linear_452_7882" x1="41.178" y1="6.37413" x2="51.3774" y2="79.3369" gradientUnits="userSpaceOnUse">
<stop stop-color="#D7E5E5"/>
<stop offset="0.184806" stop-color="#40485A"/>
<stop offset="0.275659" stop-color="#9DA5B7"/>
<stop offset="0.47051" stop-color="#AAB6C4"/>
<stop offset="0.558029" stop-color="#8994A8"/>
<stop offset="0.693258" stop-color="#BCC5D5"/>
<stop offset="1" stop-color="#B6C2CE"/>
</linearGradient>
<linearGradient id="paint5_linear_452_7882" x1="52.5532" y1="35" x2="66.6884" y2="106.388" gradientUnits="userSpaceOnUse">
<stop offset="0.147416" stop-color="#CEDDEE"/>
<stop offset="0.290375" stop-color="#8A9CBE"/>
<stop offset="0.388067" stop-color="#94A1B4"/>
<stop offset="0.473078" stop-color="#768193"/>
<stop offset="0.599749" stop-color="#9DA9B7"/>
<stop offset="0.78066" stop-color="#586377"/>
</linearGradient>
<linearGradient id="paint6_linear_452_7882" x1="52.5532" y1="35" x2="52.5532" y2="68.8092" gradientUnits="userSpaceOnUse">
<stop stop-color="white"/>
<stop offset="0.50496" stop-color="#3E5E98" stop-opacity="0.709614"/>
<stop offset="1" stop-color="#B1BFDA"/>
</linearGradient>
<linearGradient id="paint7_linear_452_7882" x1="52.9232" y1="55" x2="52.9232" y2="64.4614" gradientUnits="userSpaceOnUse">
<stop stop-color="#465268"/>
<stop offset="0.485479" stop-color="#7184A5"/>
<stop offset="1" stop-color="#687DA4"/>
</linearGradient>
<linearGradient id="paint8_linear_452_7882" x1="52.9232" y1="55" x2="52.9232" y2="64.4614" gradientUnits="userSpaceOnUse">
<stop stop-color="#465268"/>
<stop offset="0.485479" stop-color="#7184A5"/>
<stop offset="1" stop-color="#687DA4"/>
</linearGradient>
</defs>
</svg>
