<svg width="94" height="94" viewBox="0 0 94 94" fill="none" xmlns="http://www.w3.org/2000/svg">
<g filter="url(#filter0_d_452_7879)">
<path d="M84 46.9999C84 67.4342 67.4347 83.9995 47.0004 83.9995C26.566 83.9995 10.0007 67.4342 10.0007 46.9999C10.0007 26.5655 26.566 10.0002 47.0004 10.0002C67.4347 10.0002 84 26.5655 84 46.9999Z" fill="url(#paint0_linear_452_7879)"/>
<path d="M45.8096 13.7868C46.3839 12.9519 47.6167 12.9519 48.1911 13.7868C48.7175 14.552 49.8189 14.6291 50.4467 13.9445C51.1316 13.1978 52.3524 13.3697 52.805 14.2762C53.2198 15.1072 54.2998 15.337 55.0168 14.7466C55.7988 14.1025 56.9839 14.4428 57.3059 15.4034C57.6011 16.284 58.6386 16.6621 59.4308 16.1772C60.2948 15.6483 61.421 16.1504 61.6062 17.1464C61.7761 18.0595 62.7509 18.5785 63.6028 18.2086C64.5321 17.8051 65.5774 18.4592 65.6223 19.4713C65.6635 20.3992 66.5566 21.0489 67.4517 20.8013C68.4281 20.5311 69.3722 21.3244 69.2759 22.3329C69.1876 23.2575 69.9816 24.0253 70.9026 23.9047C71.9071 23.7731 72.7316 24.69 72.496 25.6754C72.2799 26.5788 72.9594 27.4496 73.8882 27.4584C74.9013 27.468 75.5902 28.4907 75.2198 29.4338C74.8801 30.2984 75.4318 31.2553 76.3504 31.3934C77.3525 31.544 77.8924 32.6525 77.3943 33.5349C76.9377 34.344 77.3509 35.3682 78.2414 35.6329C79.2128 35.9216 79.5934 37.0944 78.9773 37.899C78.4125 38.6367 78.6793 39.7084 79.5243 40.0945C80.4461 40.5157 80.66 41.7299 79.9379 42.441C79.2758 43.093 79.3911 44.1913 80.1742 44.6913C81.0285 45.2368 81.0715 46.4689 80.2573 47.0727C79.511 47.6261 79.4725 48.7298 80.1784 49.334C80.9484 49.993 80.8197 51.2192 79.9295 51.7037C79.1134 52.1478 78.9219 53.2355 79.5369 53.932C80.2076 54.6917 79.9096 55.8882 78.9607 56.244C78.0908 56.5701 77.75 57.6207 78.262 58.3959C78.8204 59.2415 78.359 60.385 77.3699 60.6052C76.4631 60.807 75.9795 61.8 76.3786 62.6389C76.8139 63.5538 76.198 64.6221 75.188 64.7024C74.262 64.776 73.6449 65.6921 73.9235 66.5782C74.2273 67.5448 73.4687 68.517 72.4574 68.4559C71.5303 68.3998 70.7917 69.2211 70.9443 70.1374C71.1106 71.1367 70.2242 71.9939 69.2313 71.7926C68.321 71.608 67.4754 72.3185 67.499 73.247C67.5248 74.2597 66.5277 74.9852 65.5725 74.6475C64.6969 74.338 63.7606 74.9238 63.6548 75.8465C63.5395 76.853 62.4511 77.4326 61.5523 76.9652C60.7282 76.5368 59.7195 76.9864 59.4865 77.8855C59.2322 78.8661 58.0738 79.2884 57.2487 78.7005C56.4923 78.1615 55.431 78.4661 55.0751 79.3241C54.6869 80.2599 53.481 80.5167 52.7458 79.8195C52.0717 79.1805 50.9783 79.3343 50.5065 80.1344C49.9919 81.0072 48.762 81.0933 48.1309 80.3006C47.5524 79.5739 46.4483 79.5739 45.8697 80.3006C45.2386 81.0933 44.0088 81.0072 43.4941 80.1344C43.0223 79.3343 41.9289 79.1805 41.2549 79.8195C40.5197 80.5167 39.3138 80.2599 38.9256 79.3241C38.5697 78.4661 37.5083 78.1615 36.7519 78.7005C35.9268 79.2884 34.7684 78.8661 34.5142 77.8855C34.2811 76.9864 33.2724 76.5368 32.4484 76.9652C31.5495 77.4326 30.4612 76.853 30.3458 75.8465C30.2401 74.9238 29.3038 74.338 28.4281 74.6475C27.4729 74.9852 26.4758 74.2597 26.5016 73.247C26.5252 72.3185 25.6796 71.608 24.7693 71.7926C23.7764 71.9939 22.89 71.1367 23.0564 70.1374C23.2089 69.2211 22.4704 68.3998 21.5432 68.4559C20.5319 68.517 19.7734 67.5448 20.0772 66.5782C20.3557 65.6921 19.7386 64.776 18.8127 64.7024C17.8026 64.6221 17.1867 63.5538 17.622 62.6389C18.0211 61.8 17.5375 60.807 16.6307 60.6052C15.6416 60.385 15.1802 59.2415 15.7387 58.3959C16.2506 57.6207 15.9098 56.5701 15.0399 56.244C14.091 55.8882 13.7931 54.6917 14.4638 53.932C15.0787 53.2355 14.8873 52.1478 14.0712 51.7037C13.1809 51.2192 13.0522 49.993 13.8222 49.334C14.5281 48.7298 14.4897 47.6261 13.7433 47.0727C12.9292 46.4689 12.9722 45.2368 13.8264 44.6913C14.6096 44.1913 14.7248 43.093 14.0628 42.441C13.3406 41.7299 13.5545 40.5157 14.4763 40.0945C15.3214 39.7084 15.5882 38.6367 15.0233 37.899C14.4073 37.0944 14.7878 35.9216 15.7592 35.6329C16.6497 35.3682 17.063 34.344 16.6063 33.5349C16.1082 32.6525 16.6482 31.544 17.6502 31.3934C18.5688 31.2553 19.1205 30.2984 18.7809 29.4338C18.4104 28.4907 19.0993 27.468 20.1125 27.4584C21.0413 27.4496 21.7207 26.5788 21.5047 25.6754C21.269 24.69 22.0935 23.7731 23.0981 23.9047C24.019 24.0253 24.813 23.2575 24.7247 22.3329C24.6284 21.3244 25.5725 20.5311 26.5489 20.8013C27.444 21.049 28.3372 20.3992 28.3783 19.4713C28.4232 18.4592 29.4685 17.8051 30.3978 18.2086C31.2497 18.5785 32.2246 18.0595 32.3944 17.1464C32.5797 16.1504 33.7058 15.6483 34.5699 16.1772C35.362 16.6621 36.3996 16.284 36.6948 15.4034C37.0168 14.4428 38.2018 14.1025 38.9839 14.7466C39.7008 15.337 40.7808 15.1072 41.1957 14.2762C41.6482 13.3697 42.8691 13.1978 43.5539 13.9445C44.1817 14.6291 45.2831 14.552 45.8096 13.7868Z" fill="url(#paint1_linear_452_7879)"/>
<g filter="url(#filter1_di_452_7879)">
<path d="M78.3076 47C78.3076 64.2906 64.2908 78.3074 47.0002 78.3074C29.7096 78.3074 15.6928 64.2906 15.6928 47C15.6928 29.7094 29.7096 15.6926 47.0002 15.6926C64.2908 15.6926 78.3076 29.7094 78.3076 47Z" fill="url(#paint2_linear_452_7879)"/>
</g>
<g filter="url(#filter2_di_452_7879)">
<path fill-rule="evenodd" clip-rule="evenodd" d="M47.0002 77.3074C63.7385 77.3074 77.3076 63.7383 77.3076 47C77.3076 30.2617 63.7385 16.6926 47.0002 16.6926C30.2619 16.6926 16.6928 30.2617 16.6928 47C16.6928 63.7383 30.2619 77.3074 47.0002 77.3074ZM47.0002 78.3074C64.2908 78.3074 78.3076 64.2906 78.3076 47C78.3076 29.7094 64.2908 15.6926 47.0002 15.6926C29.7096 15.6926 15.6928 29.7094 15.6928 47C15.6928 64.2906 29.7096 78.3074 47.0002 78.3074Z" fill="url(#paint3_linear_452_7879)" shape-rendering="crispEdges"/>
</g>
<path fill-rule="evenodd" clip-rule="evenodd" d="M47.0002 76.41C63.2429 76.41 76.4102 63.2427 76.4102 47C76.4102 30.7573 63.2429 17.59 47.0002 17.59C30.7575 17.59 17.5902 30.7573 17.5902 47C17.5902 63.2427 30.7575 76.41 47.0002 76.41ZM47.0002 78.3074C64.2908 78.3074 78.3076 64.2906 78.3076 47C78.3076 29.7094 64.2908 15.6926 47.0002 15.6926C29.7096 15.6926 15.6928 29.7094 15.6928 47C15.6928 64.2906 29.7096 78.3074 47.0002 78.3074Z" fill="url(#paint4_linear_452_7879)"/>
<g filter="url(#filter3_dd_452_7879)">
<path fill-rule="evenodd" clip-rule="evenodd" d="M42.4017 41.5278C40.4825 41.8896 36.584 41.2986 36.3441 36.0398C36.0683 29.9935 37.8222 29.3045 39.3187 28.7167C39.4492 28.6654 39.5777 28.615 39.7028 28.5618C41.2621 27.8984 44.8607 30.6122 45.2806 34.11C45.7004 37.6078 45.6404 40.5629 42.4017 41.5278ZM51.8235 41.5134C50.0736 41.1143 47.0004 39.1852 48.7067 34.6623C50.6687 29.4619 52.3978 29.5245 53.8733 29.578C54.002 29.5826 54.1287 29.5872 54.2534 29.5882C55.8093 29.601 57.8591 33.2103 56.9436 36.3142C56.0282 39.4181 54.905 41.8882 51.8235 41.5134ZM34.8812 49.5373C32.3343 50.7284 29.3301 50.3956 28.4067 45.6481C27.3132 40.0262 28.6322 39.2378 29.9036 38.4779C29.9743 38.4357 30.0448 38.3935 30.1148 38.3506C31.4432 37.5362 34.6741 39.8169 35.9907 42.7615C37.311 45.7143 37.6957 48.221 34.8812 49.5373ZM49.5384 46.1715C46.0192 44.214 44.6987 45.5865 43.0805 47.2684C42.7012 47.6626 42.3056 48.0738 41.8615 48.4632C41.0607 49.1651 40.3739 49.6543 39.7765 50.0799C38.2004 51.2025 37.2464 51.882 36.4636 54.8557C35.384 58.9566 38.023 61.8514 41.0218 61.8514C42.1157 61.8514 43.1776 61.7551 44.3008 61.6532L44.3009 61.6532H44.3009C46.2569 61.4759 48.3985 61.2817 51.2178 61.5498C55.656 61.972 57.5752 60.4643 57.8751 58.052C58.175 55.6397 57.1361 53.5649 54.9963 52.0213C53.6882 51.0777 53.0273 50.0664 52.3935 49.0966C51.6905 48.0208 51.0208 46.9961 49.5384 46.1715ZM58.2161 49.8301C55.8358 48.3307 54.4776 45.6157 57.935 42.2519C62.0291 38.2685 63.4049 38.9517 64.7311 39.6102L64.7322 39.6107L64.7323 39.6108C64.8056 39.6472 64.8787 39.6835 64.9522 39.719C66.3549 40.3959 66.2117 44.3626 64.4723 47.0764C62.7282 49.7978 60.8466 51.487 58.2161 49.8301Z" fill="url(#paint5_linear_452_7879)"/>
</g>
<path fill-rule="evenodd" clip-rule="evenodd" d="M64.2862 40.5058L64.2862 40.5058C63.6371 40.1835 63.2499 40.008 62.6041 40.1628C61.8555 40.3422 60.6497 41.0058 58.6323 42.9686C57.039 44.5188 56.7384 45.7319 56.874 46.5828C57.0161 47.4752 57.6891 48.3162 58.7491 48.984C59.2962 49.3286 59.745 49.4624 60.114 49.4831C60.4772 49.5034 60.8297 49.4182 61.1974 49.2174C61.9788 48.7908 62.7718 47.8765 63.6304 46.5368C64.3977 45.3397 64.8227 43.8401 64.8921 42.5789C64.9267 41.9487 64.8696 41.43 64.7578 41.0664C64.7026 40.8869 64.6413 40.7688 64.5906 40.6975C64.5662 40.6631 64.5466 40.643 64.5343 40.6321C64.5282 40.6267 64.5238 40.6235 64.5212 40.6218L64.5184 40.62L64.5176 40.6196L64.9522 39.719C66.3549 40.3959 66.2117 44.3626 64.4723 47.0764C62.7282 49.7978 60.8466 51.487 58.2161 49.8301C55.8358 48.3307 54.4776 45.6157 57.935 42.2519C62.0291 38.2685 63.4049 38.9517 64.7311 39.6102L64.7322 39.6107L64.7323 39.6108C64.8056 39.6472 64.8787 39.6835 64.9522 39.719L64.5176 40.6196C64.4391 40.5817 64.3617 40.5433 64.2899 40.5076C64.2898 40.5076 64.2897 40.5075 64.2896 40.5075L64.2875 40.5064L64.2862 40.5058Z" fill="url(#paint6_linear_452_7879)"/>
<path fill-rule="evenodd" clip-rule="evenodd" d="M42.1665 40.5541C41.3818 40.6905 40.224 40.6241 39.2643 40.0381C38.3482 39.4788 37.4504 38.3479 37.3431 35.9943C37.2079 33.0323 37.5865 31.5875 38.028 30.8396C38.4312 30.1564 38.9451 29.9378 39.6843 29.6475L39.6902 29.6452C39.8167 29.5954 39.9562 29.5407 40.0942 29.482C40.1412 29.462 40.3622 29.4171 40.8153 29.5907C41.241 29.7538 41.7473 30.0661 42.2499 30.5186C43.2625 31.4304 44.1131 32.7751 44.2877 34.2292C44.4978 35.9798 44.5581 37.412 44.2509 38.4962C44.1036 39.0163 43.8779 39.4295 43.56 39.7564C43.2506 40.0745 42.8116 40.3546 42.1665 40.5541ZM29.9036 38.4779C28.6322 39.2378 27.3132 40.0262 28.4067 45.648C29.3301 50.3956 32.3343 50.7284 34.8812 49.5373C37.6957 48.221 37.311 45.7143 35.9907 42.7615C34.6741 39.8169 31.4432 37.5362 30.1148 38.3506C30.0448 38.3935 29.9743 38.4357 29.9036 38.4779ZM51.9965 40.5268C51.3 40.3562 50.3687 39.8841 49.7863 39.0581C49.2332 38.2735 48.8869 37.0179 49.6424 35.0153C50.6018 32.4722 51.4381 31.412 52.0611 30.9583C52.623 30.5491 53.1086 30.5509 53.8371 30.5773L53.8434 30.5775C53.9679 30.5821 54.1064 30.5871 54.2452 30.5882C54.2616 30.5883 54.4458 30.6154 54.759 30.9224C55.0509 31.2083 55.3597 31.6493 55.6163 32.2089C56.1339 33.3374 56.3582 34.764 55.9845 36.0313C55.5262 37.5851 55.061 38.8 54.4203 39.587C54.1145 39.9626 53.7855 40.2182 53.4145 40.3707C53.0546 40.5187 52.5989 40.5929 51.9965 40.5268ZM31.442 48.9062C32.2584 49.2698 33.3228 49.1621 34.4575 48.6315C35.0425 48.3579 35.3994 48.052 35.6189 47.7503C35.835 47.4531 35.9566 47.1069 35.9895 46.6853C36.0594 45.7909 35.7275 44.6228 35.0778 43.1697C34.4969 41.8706 33.4778 40.6964 32.465 39.9523C31.9589 39.5803 31.4964 39.347 31.1343 39.2439C30.9557 39.1931 30.8252 39.1807 30.7397 39.1845C30.6984 39.1864 30.6716 39.1918 30.6564 39.1961C30.6488 39.1983 30.6439 39.2002 30.6412 39.2013L30.6383 39.2027C30.5636 39.2485 30.4882 39.2935 30.419 39.3349L30.4166 39.3363C29.7955 39.7075 29.4352 39.9397 29.211 40.5733C28.9518 41.3059 28.8495 42.687 29.3883 45.4571C29.8144 47.6482 30.6635 48.5594 31.442 48.9062ZM45.8992 46.3083C45.2139 46.5259 44.6541 47.0752 43.8011 47.9618L43.7898 47.9736C43.4172 48.3608 42.9968 48.7977 42.5207 49.2151C41.6819 49.9504 40.9614 50.4636 40.3634 50.8895L40.3567 50.8944C39.5504 51.4686 39.04 51.8403 38.6102 52.3897C38.19 52.927 37.8021 53.6991 37.4306 55.1103C36.5025 58.636 38.7384 60.8514 41.0218 60.8514C42.063 60.8514 43.08 60.7598 44.2106 60.6573L44.2245 60.656C46.1831 60.4784 48.4007 60.2773 51.3125 60.5543C53.4309 60.7558 54.7783 60.4764 55.5943 60.0002C56.3575 59.5547 56.7653 58.8738 56.8828 57.9286C57.1304 55.937 56.3056 54.1988 54.4113 52.8323C52.9525 51.78 52.207 50.6393 51.5711 49.6661L51.5564 49.6436C50.8599 48.5777 50.3029 47.7411 49.0523 47.0454C47.4157 46.1351 46.5034 46.1165 45.8992 46.3083ZM42.4017 41.5278C40.4825 41.8896 36.584 41.2986 36.3441 36.0398C36.0683 29.9935 37.8222 29.3045 39.3187 28.7167C39.4492 28.6654 39.5777 28.615 39.7028 28.5618C41.2621 27.8984 44.8607 30.6122 45.2806 34.11C45.7004 37.6078 45.6404 40.5629 42.4017 41.5278ZM51.8235 41.5134C50.0736 41.1143 47.0004 39.1852 48.7067 34.6623C50.6687 29.4619 52.3978 29.5245 53.8733 29.578C54.002 29.5826 54.1287 29.5872 54.2534 29.5882C55.8093 29.601 57.8591 33.2103 56.9436 36.3142C56.0282 39.4181 54.905 41.8882 51.8235 41.5134ZM49.5384 46.1715C46.0192 44.214 44.6987 45.5865 43.0805 47.2684C42.7012 47.6626 42.3056 48.0738 41.8615 48.4632C41.0607 49.1651 40.3739 49.6543 39.7765 50.0799C38.2004 51.2025 37.2464 51.882 36.4636 54.8557C35.384 58.9566 38.023 61.8514 41.0218 61.8514C42.1157 61.8514 43.1776 61.7551 44.3008 61.6532C46.2567 61.4759 48.3985 61.2817 51.2178 61.5498C55.656 61.972 57.5752 60.4643 57.8751 58.052C58.175 55.6397 57.1361 53.5649 54.9963 52.0213C53.6882 51.0777 53.0273 50.0664 52.3935 49.0966C51.6905 48.0208 51.0208 46.9961 49.5384 46.1715Z" fill="url(#paint7_linear_452_7879)"/>
</g>
<defs>
<filter id="filter0_d_452_7879" x="-9" y="-9" width="112" height="112" filterUnits="userSpaceOnUse" color-interpolation-filters="sRGB">
<feFlood flood-opacity="0" result="BackgroundImageFix"/>
<feColorMatrix in="SourceAlpha" type="matrix" values="0 0 0 0 0 0 0 0 0 0 0 0 0 0 0 0 0 0 127 0" result="hardAlpha"/>
<feOffset/>
<feGaussianBlur stdDeviation="5"/>
<feComposite in2="hardAlpha" operator="out"/>
<feColorMatrix type="matrix" values="0 0 0 0 0.662745 0 0 0 0 0.47451 0 0 0 0 0.235294 0 0 0 1 0"/>
<feBlend mode="normal" in2="BackgroundImageFix" result="effect1_dropShadow_452_7879"/>
<feBlend mode="normal" in="SourceGraphic" in2="effect1_dropShadow_452_7879" result="shape"/>
</filter>
<filter id="filter1_di_452_7879" x="10.6928" y="11.6926" width="72.6148" height="72.6147" filterUnits="userSpaceOnUse" color-interpolation-filters="sRGB">
<feFlood flood-opacity="0" result="BackgroundImageFix"/>
<feColorMatrix in="SourceAlpha" type="matrix" values="0 0 0 0 0 0 0 0 0 0 0 0 0 0 0 0 0 0 127 0" result="hardAlpha"/>
<feOffset dy="1"/>
<feGaussianBlur stdDeviation="2.5"/>
<feComposite in2="hardAlpha" operator="out"/>
<feColorMatrix type="matrix" values="0 0 0 0 0 0 0 0 0 0 0 0 0 0 0 0 0 0 0.25 0"/>
<feBlend mode="normal" in2="BackgroundImageFix" result="effect1_dropShadow_452_7879"/>
<feBlend mode="normal" in="SourceGraphic" in2="effect1_dropShadow_452_7879" result="shape"/>
<feColorMatrix in="SourceAlpha" type="matrix" values="0 0 0 0 0 0 0 0 0 0 0 0 0 0 0 0 0 0 127 0" result="hardAlpha"/>
<feOffset dy="4"/>
<feGaussianBlur stdDeviation="5.5"/>
<feComposite in2="hardAlpha" operator="arithmetic" k2="-1" k3="1"/>
<feColorMatrix type="matrix" values="0 0 0 0 0 0 0 0 0 0 0 0 0 0 0 0 0 0 0.79 0"/>
<feBlend mode="normal" in2="shape" result="effect2_innerShadow_452_7879"/>
</filter>
<filter id="filter2_di_452_7879" x="10.6928" y="11.6926" width="72.6148" height="72.6147" filterUnits="userSpaceOnUse" color-interpolation-filters="sRGB">
<feFlood flood-opacity="0" result="BackgroundImageFix"/>
<feColorMatrix in="SourceAlpha" type="matrix" values="0 0 0 0 0 0 0 0 0 0 0 0 0 0 0 0 0 0 127 0" result="hardAlpha"/>
<feOffset dy="1"/>
<feGaussianBlur stdDeviation="2.5"/>
<feComposite in2="hardAlpha" operator="out"/>
<feColorMatrix type="matrix" values="0 0 0 0 0 0 0 0 0 0 0 0 0 0 0 0 0 0 0.25 0"/>
<feBlend mode="normal" in2="BackgroundImageFix" result="effect1_dropShadow_452_7879"/>
<feBlend mode="normal" in="SourceGraphic" in2="effect1_dropShadow_452_7879" result="shape"/>
<feColorMatrix in="SourceAlpha" type="matrix" values="0 0 0 0 0 0 0 0 0 0 0 0 0 0 0 0 0 0 127 0" result="hardAlpha"/>
<feOffset dy="4"/>
<feGaussianBlur stdDeviation="5.5"/>
<feComposite in2="hardAlpha" operator="arithmetic" k2="-1" k3="1"/>
<feColorMatrix type="matrix" values="0 0 0 0 0 0 0 0 0 0 0 0 0 0 0 0 0 0 0.79 0"/>
<feBlend mode="normal" in2="shape" result="effect2_innerShadow_452_7879"/>
</filter>
<filter id="filter3_dd_452_7879" x="20.9998" y="25.4614" width="51.9024" height="47.3899" filterUnits="userSpaceOnUse" color-interpolation-filters="sRGB">
<feFlood flood-opacity="0" result="BackgroundImageFix"/>
<feColorMatrix in="SourceAlpha" type="matrix" values="0 0 0 0 0 0 0 0 0 0 0 0 0 0 0 0 0 0 127 0" result="hardAlpha"/>
<feOffset dy="4"/>
<feGaussianBlur stdDeviation="3.5"/>
<feComposite in2="hardAlpha" operator="out"/>
<feColorMatrix type="matrix" values="0 0 0 0 0.02 0 0 0 0 1 0 0 0 0 0 0 0 0 1 0"/>
<feBlend mode="normal" in2="BackgroundImageFix" result="effect1_dropShadow_452_7879"/>
<feColorMatrix in="SourceAlpha" type="matrix" values="0 0 0 0 0 0 0 0 0 0 0 0 0 0 0 0 0 0 127 0" result="hardAlpha"/>
<feOffset dy="1"/>
<feComposite in2="hardAlpha" operator="out"/>
<feColorMatrix type="matrix" values="0 0 0 0 0 0 0 0 0 0 0 0 0 0 0 0 0 0 0.4 0"/>
<feBlend mode="normal" in2="effect1_dropShadow_452_7879" result="effect2_dropShadow_452_7879"/>
<feBlend mode="normal" in="SourceGraphic" in2="effect2_dropShadow_452_7879" result="shape"/>
</filter>
<linearGradient id="paint0_linear_452_7879" x1="47.0004" y1="10.0002" x2="47.0004" y2="83.9995" gradientUnits="userSpaceOnUse">
<stop stop-color="#FFD69F"/>
<stop offset="0.164912" stop-color="#BF9D6C"/>
<stop offset="0.478485" stop-color="#A67435"/>
<stop offset="0.618052" stop-color="#B48D4C"/>
<stop offset="0.739583" stop-color="#C7AA82"/>
<stop offset="0.83169" stop-color="#CB7940"/>
<stop offset="1" stop-color="#EEE6E0"/>
</linearGradient>
<linearGradient id="paint1_linear_452_7879" x1="47.0009" y1="12.0559" x2="47.0009" y2="81.9441" gradientUnits="userSpaceOnUse">
<stop stop-color="#C5814B"/>
<stop offset="0.291667" stop-color="#6F4C30" stop-opacity="0.848967"/>
<stop offset="0.579774" stop-color="#8B5931"/>
<stop offset="1" stop-color="#B88A6A"/>
</linearGradient>
<linearGradient id="paint2_linear_452_7879" x1="47.0002" y1="15.6926" x2="47.0002" y2="78.3074" gradientUnits="userSpaceOnUse">
<stop stop-color="#20B01D"/>
<stop offset="1" stop-color="#346C33"/>
</linearGradient>
<linearGradient id="paint3_linear_452_7879" x1="47.0002" y1="15.6926" x2="47.0002" y2="78.3074" gradientUnits="userSpaceOnUse">
<stop stop-color="#FFF198"/>
<stop offset="0.111051" stop-color="#FFF6C0" stop-opacity="0.925253"/>
<stop offset="0.23417" stop-color="#CEBF64" stop-opacity="0.801818"/>
<stop offset="0.313725" stop-color="#FFFCED" stop-opacity="0.822145"/>
<stop offset="0.446315" stop-color="#BAA842" stop-opacity="0.912766"/>
<stop offset="0.544811" stop-color="#FFEE92" stop-opacity="0.956807"/>
<stop offset="0.641412" stop-color="#FFF0A2"/>
<stop offset="0.711496" stop-color="#AE9C3B" stop-opacity="0.841533"/>
<stop offset="0.849769" stop-color="#FFEE97" stop-opacity="0.903256"/>
<stop offset="1" stop-color="#FFF3B1"/>
</linearGradient>
<linearGradient id="paint4_linear_452_7879" x1="44.293" y1="16.7686" x2="44.293" y2="86.9208" gradientUnits="userSpaceOnUse">
<stop stop-color="#AE927B"/>
<stop offset="0.0967079" stop-color="#B88E6A"/>
<stop offset="0.203125" stop-color="#BE936C"/>
<stop offset="0.358729" stop-color="#BB9078"/>
<stop offset="0.49478" stop-color="#CCAB96"/>
<stop offset="0.713433" stop-color="#683A20"/>
<stop offset="0.87216" stop-color="#CC9E7C"/>
</linearGradient>
<linearGradient id="paint5_linear_452_7879" x1="46.9508" y1="28.4614" x2="61.3926" y2="98.761" gradientUnits="userSpaceOnUse">
<stop offset="0.147416" stop-color="#EEE1CE"/>
<stop offset="0.290375" stop-color="#BEAC8A"/>
<stop offset="0.388067" stop-color="#B4AD94"/>
<stop offset="0.473078" stop-color="#938B76"/>
<stop offset="0.599749" stop-color="#B7A89D"/>
<stop offset="0.78066" stop-color="#776B58"/>
</linearGradient>
<linearGradient id="paint6_linear_452_7879" x1="62.1525" y1="39.1062" x2="62.1525" y2="50.486" gradientUnits="userSpaceOnUse">
<stop stop-color="#C08E67"/>
<stop offset="0.427342" stop-color="#E9C9B1"/>
<stop offset="0.549094" stop-color="#C08E67"/>
<stop offset="1" stop-color="#EFCCAC"/>
</linearGradient>
<linearGradient id="paint7_linear_452_7879" x1="46.9508" y1="28.4614" x2="46.9508" y2="61.8514" gradientUnits="userSpaceOnUse">
<stop stop-color="#C08E67"/>
<stop offset="0.427342" stop-color="#E9C9B1"/>
<stop offset="0.549094" stop-color="#C08E67"/>
<stop offset="1" stop-color="#EFCCAC"/>
</linearGradient>
</defs>
</svg>
