<svg width="103" height="107" viewBox="0 0 103 107" fill="none" xmlns="http://www.w3.org/2000/svg">
<g filter="url(#filter0_d_452_7881)">
<path d="M50.8654 14.5211C51.2342 14.2182 51.7658 14.2182 52.1346 14.5211L61.3284 22.071C61.523 22.2308 61.7708 22.3113 62.0222 22.2964L73.8978 21.5924C74.3742 21.5642 74.8042 21.8766 74.9246 22.3385L77.9248 33.8503C77.9883 34.0941 78.1415 34.3048 78.3536 34.4405L88.375 40.8513C88.777 41.1085 88.9413 41.614 88.7672 42.0584L84.4279 53.1352C84.336 53.3697 84.336 53.6302 84.4279 53.8647L88.7672 64.9415C88.9413 65.3859 88.777 65.8914 88.375 66.1487L78.3536 72.5594C78.1415 72.6951 77.9883 72.9059 77.9248 73.1496L74.9246 84.6615C74.8042 85.1234 74.3742 85.4358 73.8978 85.4075L62.0222 84.7035C61.7708 84.6886 61.523 84.7691 61.3284 84.929L52.1346 92.4788C51.7658 92.7817 51.2342 92.7817 50.8654 92.4788L41.6716 84.929C41.477 84.7691 41.2292 84.6886 40.9778 84.7035L29.1023 85.4075C28.6258 85.4358 28.1958 85.1234 28.0754 84.6615L25.0752 73.1496C25.0117 72.9059 24.8585 72.6951 24.6464 72.5594L14.625 66.1487C14.223 65.8914 14.0587 65.3859 14.2328 64.9415L18.5721 53.8647C18.664 53.6302 18.664 53.3697 18.5721 53.1352L14.2328 42.0584C14.0587 41.614 14.223 41.1085 14.625 40.8513L24.6464 34.4405C24.8585 34.3048 25.0117 34.0941 25.0752 33.8503L28.0754 22.3385C28.1958 21.8766 28.6258 21.5642 29.1023 21.5924L40.9778 22.2964C41.2292 22.3113 41.477 22.2308 41.6716 22.071L50.8654 14.5211Z" fill="url(#paint0_linear_452_7881)"/>
<path fill-rule="evenodd" clip-rule="evenodd" d="M60.6938 22.8438L51.5 15.2939L42.3063 22.8438C41.917 23.1634 41.4215 23.3245 40.9187 23.2947L29.0431 22.5906L26.0429 34.1025C25.9158 34.59 25.6096 35.0115 25.1853 35.2829L15.1639 41.6937L19.5032 52.7704C19.687 53.2394 19.687 53.7605 19.5032 54.2295L15.1639 65.3063L25.1853 71.717C25.6096 71.9884 25.9158 72.41 26.0429 72.8974L29.0431 84.4093L40.9187 83.7053C41.4215 83.6755 41.917 83.8365 42.3063 84.1561L51.5 91.706L60.6938 84.1561C61.083 83.8365 61.5786 83.6755 62.0814 83.7053L73.9569 84.4093L76.9572 72.8974C77.0842 72.41 77.3904 71.9884 77.8148 71.717L87.8361 65.3063L83.4968 54.2295C83.3131 53.7605 83.3131 53.2394 83.4968 52.7704L87.8361 41.6937L77.8148 35.2829C77.3904 35.0115 77.0842 34.59 76.9572 34.1025L73.9569 22.5906L62.0814 23.2947C61.5786 23.3245 61.083 23.1634 60.6938 22.8438ZM52.1346 14.5211C51.7658 14.2182 51.2342 14.2182 50.8654 14.5211L41.6716 22.071C41.477 22.2308 41.2292 22.3113 40.9778 22.2964L29.1023 21.5924C28.6258 21.5642 28.1958 21.8766 28.0754 22.3385L25.0752 33.8503C25.0117 34.0941 24.8585 34.3048 24.6464 34.4405L14.625 40.8513C14.223 41.1085 14.0587 41.614 14.2328 42.0584L18.5721 53.1352C18.664 53.3697 18.664 53.6302 18.5721 53.8647L14.2328 64.9415C14.0587 65.3859 14.223 65.8914 14.625 66.1487L24.6464 72.5594C24.8585 72.6951 25.0117 72.9059 25.0752 73.1496L28.0754 84.6615C28.1958 85.1234 28.6258 85.4358 29.1023 85.4075L40.9778 84.7035C41.2292 84.6886 41.477 84.7691 41.6716 84.929L50.8654 92.4788C51.2342 92.7817 51.7658 92.7817 52.1346 92.4788L61.3284 84.929C61.523 84.7691 61.7708 84.6886 62.0222 84.7035L73.8978 85.4075C74.3742 85.4358 74.8042 85.1234 74.9246 84.6615L77.9248 73.1496C77.9883 72.9059 78.1415 72.6951 78.3536 72.5594L88.375 66.1487C88.777 65.8914 88.9413 65.3859 88.7672 64.9415L84.4279 53.8647C84.336 53.6302 84.336 53.3697 84.4279 53.1352L88.7672 42.0584C88.9413 41.614 88.777 41.1085 88.375 40.8513L78.3536 34.4405C78.1415 34.3048 77.9883 34.0941 77.9248 33.8503L74.9246 22.3385C74.8042 21.8766 74.3742 21.5642 73.8978 21.5924L62.0222 22.2964C61.7708 22.3113 61.523 22.2308 61.3284 22.071L52.1346 14.5211Z" fill="url(#paint1_linear_452_7881)"/>
<g filter="url(#filter1_d_452_7881)">
<path d="M49.5519 22.5483C50.6924 21.6418 52.3076 21.6418 53.4481 22.5483C54.3808 23.2897 55.6632 23.4327 56.7409 22.9248C58.0528 22.3065 59.6304 22.6703 60.5269 23.8102C61.2611 24.7437 62.4625 25.178 63.6239 24.9298L63.6716 24.9196C65.0832 24.6179 66.5154 25.3348 67.1199 26.6456C67.6155 27.7204 68.682 28.4171 69.8653 28.4393L69.9278 28.4404C71.3657 28.4673 72.5907 29.4919 72.8714 30.9023C73.1018 32.0597 73.9772 32.9814 75.1212 33.271L75.1822 33.2865C76.5735 33.6387 77.5281 34.9169 77.471 36.351C77.4241 37.528 78.0623 38.626 79.1082 39.1679L79.1525 39.1909C80.427 39.8512 81.0613 41.3169 80.6702 42.6979C80.3493 43.8311 80.7246 45.0549 81.6181 45.8221C82.7097 46.7592 82.9999 48.3459 82.296 49.6006C81.7191 50.6291 81.7941 51.9001 82.4873 52.8542C83.3345 54.0202 83.2371 55.628 82.2599 56.6874C81.461 57.5535 81.2353 58.809 81.6873 59.8971C82.2385 61.2238 81.7603 62.7675 80.5694 63.571C79.5932 64.2297 79.0731 65.4041 79.2584 66.5671C79.4841 67.9841 78.6842 69.365 77.3428 69.8743L77.2886 69.8949C76.1865 70.3133 75.4246 71.3299 75.3324 72.5051C75.2199 73.9369 74.123 75.0959 72.6994 75.2867L72.6356 75.2953C71.4644 75.4523 70.4869 76.267 70.1215 77.3908C69.676 78.7607 68.3388 79.6373 66.9048 79.4994L66.8479 79.4939C65.6678 79.3804 64.5263 79.9499 63.9072 80.9609C63.1516 82.1947 61.6231 82.7352 60.2522 82.2727C59.125 81.8924 57.864 82.1803 57.0248 83.0234C55.9993 84.0538 54.3935 84.2372 53.1586 83.4701C52.1453 82.8407 50.8547 82.8407 49.8414 83.4701C48.6065 84.2372 47.0007 84.0538 45.9752 83.0234C45.1361 82.1803 43.875 81.8924 42.7478 82.2727C41.3769 82.7352 39.8484 82.1947 39.0928 80.9609C38.4737 79.9499 37.3322 79.3804 36.1521 79.4939L36.0952 79.4994C34.6613 79.6373 33.324 78.7607 32.8785 77.3908C32.5131 76.267 31.5357 75.4523 30.3645 75.2953L30.3006 75.2867C28.8771 75.0959 27.7801 73.9369 27.6677 72.5051C27.5754 71.3299 26.8135 70.3133 25.7114 69.8949L25.6572 69.8743C24.3158 69.365 23.516 67.9841 23.7417 66.5671C23.9269 65.4041 23.4068 64.2297 22.4306 63.571C21.2397 62.7675 20.7616 61.2238 21.3127 59.8971C21.7647 58.809 21.539 57.5535 20.7402 56.6874C19.763 55.628 19.6656 54.0202 20.5127 52.8542C21.2059 51.9001 21.281 50.6291 20.704 49.6006C20.0002 48.3459 20.2903 46.7592 21.3819 45.8221C22.2754 45.0549 22.6507 43.8311 22.3299 42.6979C21.9388 41.3169 22.573 39.8512 23.8475 39.1909L23.8918 39.1679C24.9378 38.626 25.5759 37.528 25.529 36.351C25.4719 34.9169 26.4266 33.6387 27.8178 33.2865L27.8788 33.271C29.0228 32.9814 29.8983 32.0597 30.1286 30.9023C30.4093 29.4919 31.6344 28.4673 33.0722 28.4404L33.1347 28.4393C34.318 28.4171 35.3845 27.7204 35.8802 26.6456C36.4846 25.3348 37.9168 24.6179 39.3284 24.9196L39.3762 24.9298C40.5375 25.178 41.7389 24.7437 42.4731 23.8102C43.3696 22.6703 44.9472 22.3065 46.2591 22.9248C47.3368 23.4327 48.6192 23.2897 49.5519 22.5483Z" fill="url(#paint2_linear_452_7881)"/>
</g>
<g filter="url(#filter2_d_452_7881)">
<path fill-rule="evenodd" clip-rule="evenodd" d="M63.7761 25.4086L63.7284 25.4188C62.3804 25.7068 60.986 25.2027 60.1339 24.1193C59.383 23.1646 58.0576 22.857 56.9541 23.3771C55.7061 23.9653 54.2202 23.8007 53.137 22.9397C52.1786 22.178 50.8214 22.178 49.863 22.9397C48.7799 23.8007 47.2939 23.9653 46.0459 23.3771C44.9424 22.857 43.617 23.1646 42.8661 24.1193C42.014 25.2027 40.6196 25.7068 39.2717 25.4188L39.2239 25.4086C38.041 25.1557 36.8408 25.7565 36.3342 26.855C35.7583 28.1039 34.519 28.9135 33.144 28.9392L33.0815 28.9403C31.8787 28.9628 30.8538 29.8199 30.619 30.9999C30.351 32.3464 29.3325 33.4188 28.0015 33.7558L27.9405 33.7712C26.7784 34.0654 25.9809 35.1332 26.0286 36.3311C26.0832 37.702 25.34 38.9807 24.1218 39.6119L24.0775 39.6349C23.0139 40.1859 22.4846 41.4091 22.8109 42.5617C23.1855 43.8844 22.7473 45.3088 21.7076 46.2014C20.7945 46.9854 20.5542 48.3116 21.1401 49.356C21.8126 50.5549 21.7251 52.0362 20.9172 53.1481C20.2108 54.1204 20.2913 55.4634 21.1077 56.3484C22.0382 57.3572 22.3017 58.8197 21.7745 60.0889C21.3162 61.1919 21.7129 62.4836 22.7103 63.1565C23.845 63.9221 24.4518 65.2876 24.2354 66.6457C24.047 67.8288 24.7148 68.9816 25.8347 69.4068L25.8889 69.4274C27.1718 69.9145 28.0587 71.0979 28.1661 72.466C28.2601 73.6629 29.1771 74.6316 30.367 74.7912L30.4309 74.7997C31.7927 74.9823 32.9291 75.9296 33.354 77.2362C33.727 78.3832 34.8467 79.1172 36.0473 79.0017L36.1042 78.9962C37.4747 78.8644 38.8003 79.5257 39.5192 80.6998C40.1508 81.7312 41.4343 82.1881 42.588 81.7989C43.8928 81.3588 45.354 81.6904 46.3296 82.6707C47.1901 83.5353 48.5395 83.6902 49.5776 83.0454C50.7525 82.3156 52.2475 82.3156 53.4225 83.0454C54.4606 83.6902 55.8099 83.5353 56.6704 82.6707C57.646 81.6904 59.1073 81.3588 60.412 81.7989C61.5657 82.1881 62.8492 81.7312 63.4808 80.6998C64.1998 79.5257 65.5254 78.8644 66.8958 78.9962L66.9527 79.0017C68.1533 79.1172 69.273 78.3832 69.646 77.2362C70.0709 75.9296 71.2073 74.9823 72.5691 74.7997L72.633 74.7912C73.8229 74.6316 74.7399 73.6629 74.8339 72.466C74.9413 71.0979 75.8282 69.9145 77.1111 69.4274L77.1653 69.4068C78.2853 68.9816 78.953 67.8288 78.7646 66.6457C78.5483 65.2876 79.155 63.9221 80.2897 63.1565C81.2871 62.4836 81.6838 61.1919 81.2256 60.0889C80.6983 58.8197 80.9619 57.3572 81.8923 56.3484C82.7087 55.4634 82.7892 54.1204 82.0828 53.1481C81.275 52.0362 81.1874 50.5549 81.8599 49.356C82.4458 48.3116 82.2055 46.9854 81.2924 46.2014C80.2527 45.3088 79.8145 43.8844 80.1891 42.5617C80.5155 41.4091 79.9862 40.1859 78.9225 39.6349L78.8782 39.6119C77.66 38.9807 76.9168 37.7019 76.9714 36.3311C77.0191 35.1332 76.2217 34.0654 75.0595 33.7712L74.9985 33.7558C73.6675 33.4188 72.649 32.3464 72.381 30.9999C72.1462 29.8199 71.1213 28.9628 69.9185 28.9403L69.856 28.9392C68.481 28.9135 67.2417 28.1039 66.6658 26.855C66.1593 25.7565 64.9591 25.1557 63.7761 25.4086ZM53.4481 22.5483C52.3076 21.6418 50.6924 21.6418 49.5519 22.5483C48.6192 23.2897 47.3368 23.4327 46.2591 22.9248C44.9472 22.3065 43.3696 22.6703 42.4731 23.8102C41.7389 24.7437 40.5375 25.178 39.3762 24.9298L39.3284 24.9196C37.9168 24.6179 36.4846 25.3348 35.8802 26.6456C35.3845 27.7204 34.318 28.4171 33.1347 28.4393L33.0722 28.4404C31.6344 28.4673 30.4093 29.4919 30.1286 30.9023C29.8983 32.0597 29.0228 32.9814 27.8788 33.271L27.8178 33.2865C26.4266 33.6387 25.4719 34.9169 25.529 36.351C25.5759 37.528 24.9378 38.626 23.8918 39.1679L23.8475 39.1909C22.573 39.8512 21.9388 41.3169 22.3299 42.6979C22.6507 43.8311 22.2754 45.0549 21.3819 45.8221C20.2903 46.7592 20.0002 48.3459 20.704 49.6006C21.281 50.6291 21.2059 51.9001 20.5127 52.8542C19.6656 54.0202 19.763 55.628 20.7402 56.6874C21.539 57.5535 21.7647 58.809 21.3127 59.8971C20.7616 61.2238 21.2397 62.7675 22.4306 63.571C23.4068 64.2297 23.9269 65.4041 23.7417 66.5671C23.516 67.9841 24.3158 69.365 25.6572 69.8743L25.7114 69.8949C26.8135 70.3133 27.5754 71.3299 27.6677 72.5051C27.7801 73.9369 28.8771 75.0959 30.3006 75.2867L30.3645 75.2953C31.5357 75.4523 32.5131 76.267 32.8785 77.3908C33.324 78.7607 34.6613 79.6373 36.0952 79.4994L36.1521 79.4939C37.3322 79.3804 38.4737 79.9499 39.0928 80.9609C39.8484 82.1947 41.3769 82.7352 42.7478 82.2727C43.875 81.8924 45.1361 82.1803 45.9752 83.0234C47.0007 84.0538 48.6065 84.2372 49.8414 83.4701C50.8547 82.8407 52.1453 82.8407 53.1586 83.4701C54.3935 84.2372 55.9993 84.0538 57.0248 83.0234C57.864 82.1803 59.125 81.8924 60.2522 82.2727C61.6231 82.7352 63.1516 82.1947 63.9072 80.9609C64.5263 79.9499 65.6678 79.3804 66.8479 79.4939L66.9048 79.4994C68.3388 79.6373 69.676 78.7607 70.1215 77.3908C70.4869 76.267 71.4644 75.4523 72.6356 75.2953L72.6994 75.2867C74.123 75.0959 75.2199 73.9369 75.3324 72.5051C75.4246 71.3299 76.1865 70.3133 77.2886 69.8949L77.3428 69.8743C78.6842 69.365 79.4841 67.9841 79.2584 66.5671C79.0731 65.4041 79.5932 64.2297 80.5694 63.571C81.7603 62.7675 82.2385 61.2238 81.6873 59.8971C81.2353 58.809 81.461 57.5535 82.2599 56.6874C83.2371 55.628 83.3345 54.0202 82.4873 52.8542C81.7941 51.9001 81.7191 50.6291 82.296 49.6006C82.9999 48.3459 82.7097 46.7592 81.6181 45.8221C80.7246 45.0549 80.3493 43.8311 80.6702 42.6979C81.0613 41.3169 80.427 39.8512 79.1525 39.1909L79.1082 39.1679C78.0623 38.626 77.4241 37.528 77.471 36.351C77.5281 34.9169 76.5735 33.6387 75.1822 33.2865L75.1212 33.271C73.9772 32.9814 73.1018 32.0597 72.8714 30.9023C72.5907 29.4919 71.3657 28.4673 69.9278 28.4404L69.8653 28.4393C68.682 28.4171 67.6155 27.7204 67.1199 26.6456C66.5154 25.3348 65.0832 24.6179 63.6716 24.9196L63.6239 24.9298C62.4625 25.178 61.2611 24.7437 60.5269 23.8102C59.6304 22.6703 58.0528 22.3065 56.7409 22.9248C55.6632 23.4327 54.3808 23.2897 53.4481 22.5483Z" fill="url(#paint3_linear_452_7881)" shape-rendering="crispEdges"/>
</g>
<g filter="url(#filter3_di_452_7881)">
<path d="M80.4023 53.5001C80.4023 69.4625 67.4622 82.4025 51.4998 82.4025C35.5375 82.4025 22.5974 69.4625 22.5974 53.5001C22.5974 37.5377 35.5375 24.5977 51.4998 24.5977C67.4622 24.5977 80.4023 37.5377 80.4023 53.5001Z" fill="#20B01D"/>
</g>
<g filter="url(#filter4_di_452_7881)">
<path fill-rule="evenodd" clip-rule="evenodd" d="M51.4998 81.4025C66.9099 81.4025 79.4023 68.9102 79.4023 53.5001C79.4023 38.09 66.9099 25.5977 51.4998 25.5977C36.0898 25.5977 23.5974 38.09 23.5974 53.5001C23.5974 68.9102 36.0898 81.4025 51.4998 81.4025ZM51.4998 82.4025C67.4622 82.4025 80.4023 69.4625 80.4023 53.5001C80.4023 37.5377 67.4622 24.5977 51.4998 24.5977C35.5375 24.5977 22.5974 37.5377 22.5974 53.5001C22.5974 69.4625 35.5375 82.4025 51.4998 82.4025Z" fill="url(#paint4_linear_452_7881)" shape-rendering="crispEdges"/>
</g>
<g filter="url(#filter5_d_452_7881)">
<g filter="url(#filter6_dd_452_7881)">
<mask id="path-7-outside-1_452_7881" maskUnits="userSpaceOnUse" x="35.1135" y="36" width="33" height="36" fill="black">
<rect fill="white" x="35.1135" y="36" width="33" height="36"/>
<path fill-rule="evenodd" clip-rule="evenodd" d="M51.4997 43.9737C53.254 43.9737 54.6786 41.9368 54.6786 40.1799C54.6786 38.4237 53.254 37 51.4997 37C49.7429 37 48.3181 38.4237 48.3181 40.1799C48.3181 41.9368 49.7429 43.9737 51.4997 43.9737ZM44.482 42.8574C44.482 44.2611 43.344 45.8881 41.9415 45.8881C40.5378 45.8881 39.4001 44.2601 39.4001 42.8574C39.4001 41.4537 40.538 40.316 41.9415 40.316C43.3442 40.316 44.482 41.4527 44.482 42.8574ZM63.5982 42.8574C63.5982 44.2611 62.4604 45.8881 61.0574 45.8881C59.6544 45.8881 58.5164 44.2601 58.5164 42.8574C58.5164 41.4537 59.6544 40.316 61.0574 40.316C62.4604 40.316 63.5982 41.4527 63.5982 42.8574ZM43.6953 56.9635C43.3181 56.4917 43.1472 55.9003 43.2135 55.3011L44.2052 46.3701C43.7351 46.2687 43.3104 46.2991 42.8595 46.3313C42.6282 46.3478 42.3899 46.3649 42.1351 46.3649C41.8955 46.3649 41.6327 46.3521 41.3622 46.339H41.3622H41.3622C40.7467 46.3091 40.0919 46.2773 39.5832 46.3898C38.6438 46.5975 37.884 46.8522 37.6532 46.9326C37.6369 46.9373 37.6221 46.943 37.6065 46.9491L37.6051 46.9497C37.5977 46.9529 37.5872 46.9563 37.5822 46.9579L37.5801 46.9586C37.569 46.9628 37.56 46.9694 37.5509 46.976L37.5509 46.976C37.5435 46.9814 37.5361 46.9868 37.5275 46.991C37.4311 47.0333 37.3393 47.0823 37.2612 47.1525C37.2367 47.1738 37.2179 47.1985 37.1989 47.2234L37.1989 47.2234C37.189 47.2364 37.1791 47.2495 37.1683 47.2621L37.1541 47.2788C37.1087 47.3324 37.0643 47.3848 37.0327 47.4492C37.0079 47.497 36.9952 47.5485 36.9824 47.6002C36.9785 47.616 36.9746 47.6319 36.9703 47.6477C36.9651 47.6669 36.9578 47.6851 36.9505 47.7033C36.9391 47.7316 36.9277 47.76 36.9241 47.7926L36.1198 55.0279C36.0584 55.5791 36.4559 56.0762 37.0074 56.1382C37.0452 56.1421 37.0826 56.144 37.1199 56.144C37.6249 56.144 38.0608 55.7646 38.1172 55.2499L38.8492 48.659C38.8808 48.6498 38.9134 48.6401 38.947 48.6301C39.0047 48.613 39.0651 48.5951 39.1282 48.5773V55.4366L38.3283 65.383C38.2747 66.046 38.77 66.6279 39.4336 66.6808C39.467 66.6839 39.4995 66.6849 39.5314 66.6849C40.1543 66.6849 40.6826 66.2072 40.7326 65.5765L41.4561 56.5861C41.6049 56.651 41.769 56.6904 41.942 56.6904C42.1159 56.6904 42.28 56.6531 42.4288 56.5861L43.1523 65.5765C43.2025 66.2072 43.7307 66.6849 44.3525 66.6849C44.385 66.6849 44.4179 66.6837 44.4503 66.6808C45.114 66.6279 45.6092 66.046 45.5558 65.383L44.9412 57.7436C44.4568 57.6296 44.0161 57.3663 43.6953 56.9635ZM59.6436 55.3011C59.7099 55.9003 59.539 56.4917 59.1618 56.9635C58.841 57.3663 58.4003 57.6296 57.9159 57.7436L57.3013 65.383C57.2479 66.046 57.7431 66.6279 58.4068 66.6808C58.4392 66.6837 58.4721 66.6849 58.5046 66.6849C59.1264 66.6849 59.6546 66.2072 59.7048 65.5765L60.4283 56.5861C60.5771 56.6531 60.7412 56.6904 60.9151 56.6904C61.0881 56.6904 61.2522 56.651 61.401 56.5861L62.1245 65.5765C62.1745 66.2072 62.7028 66.6849 63.3257 66.6849C63.3576 66.6849 63.3901 66.6839 63.4235 66.6808C64.0871 66.6279 64.5824 66.046 64.5288 65.383L63.7289 55.4366V48.5773C63.7919 48.5951 63.8524 48.613 63.91 48.6301L63.9101 48.6301C63.9437 48.6401 63.9763 48.6498 64.0079 48.659L64.7398 55.2499C64.7963 55.7646 65.2322 56.144 65.7372 56.144C65.7745 56.144 65.8119 56.1421 65.8497 56.1382C66.4012 56.0762 66.7986 55.5791 66.7373 55.0279L65.9329 47.7926C65.9294 47.76 65.918 47.7316 65.9066 47.7033L65.9066 47.7032C65.8993 47.685 65.892 47.6669 65.8868 47.6477C65.8825 47.6319 65.8786 47.616 65.8747 47.6002L65.8747 47.6002C65.8619 47.5485 65.8492 47.497 65.8243 47.4492C65.7928 47.3848 65.7484 47.3324 65.703 47.2788L65.6888 47.2621C65.678 47.2495 65.6681 47.2364 65.6582 47.2234C65.6392 47.1985 65.6204 47.1738 65.5959 47.1525C65.5178 47.0823 65.4259 47.0333 65.3296 46.991C65.321 46.9868 65.3136 46.9814 65.3062 46.976C65.2971 46.9694 65.2881 46.9628 65.277 46.9586L65.2749 46.9579L65.2696 46.9561C65.2643 46.9544 65.2574 46.952 65.252 46.9497L65.2506 46.9491L65.2505 46.9491C65.2349 46.943 65.2202 46.9373 65.2039 46.9326C64.9731 46.8522 64.2133 46.5975 63.2739 46.3898C62.7652 46.2773 62.1104 46.3091 61.4949 46.339H61.4948C61.2244 46.3521 60.9615 46.3649 60.722 46.3649C60.4672 46.3649 60.2289 46.3478 59.9976 46.3313C59.5467 46.2991 59.122 46.2687 58.6519 46.3701L59.6436 55.3011ZM58.7858 55.4109C58.8622 56.1007 58.3651 56.7236 57.6754 56.7993C57.6273 56.8043 57.5802 56.8081 57.5346 56.808C56.9019 56.808 56.3576 56.3324 56.2858 55.688L55.3701 47.4415C55.2629 47.4081 55.145 47.3742 55.0202 47.3389V55.924L56.0225 68.3701C56.0893 69.2003 55.4703 69.9293 54.6391 69.9952C54.5978 69.9981 54.5565 70.0002 54.5163 70.0002C53.7381 70.0002 53.077 69.4018 53.0136 68.6118L52.1091 57.3626C51.9229 57.4452 51.7165 57.4923 51.5005 57.4923C51.2844 57.4923 51.079 57.4452 50.8918 57.3626L49.9874 68.6118C49.9242 69.4017 49.2629 70.0002 48.4842 70.0002C48.444 70.0002 48.4027 69.9982 48.3614 69.9952C47.5305 69.9293 46.9116 69.2005 46.9779 68.3701L47.9791 55.924V47.3392C47.9581 47.3453 47.9373 47.3513 47.9168 47.3573C47.8149 47.3868 47.7185 47.4148 47.6298 47.4418L46.7136 55.6883C46.6419 56.3318 46.0965 56.8083 45.4648 56.8083C45.4186 56.8083 45.3714 56.8064 45.3238 56.7994C44.6335 56.7237 44.1368 56.1007 44.213 55.4111L45.219 46.3558C45.2235 46.3155 45.2374 46.2805 45.2515 46.2451C45.2606 46.2223 45.2698 46.1993 45.2765 46.1746C45.2816 46.1556 45.2864 46.1366 45.2911 46.1178C45.3076 46.0518 45.3237 45.9872 45.3551 45.9265C45.3953 45.8464 45.4514 45.7802 45.5083 45.7131C45.5139 45.7064 45.5195 45.6998 45.5251 45.6931C45.5385 45.6772 45.5508 45.6609 45.5631 45.6447C45.5867 45.6134 45.6101 45.5824 45.6405 45.5552C45.7393 45.4667 45.8532 45.4064 45.9745 45.3528C45.9852 45.3479 45.9945 45.3411 46.0038 45.3342C46.015 45.326 46.0263 45.3176 46.0404 45.3125C46.0454 45.3106 46.0605 45.3057 46.0723 45.3007C46.0767 45.2991 46.081 45.2975 46.0852 45.2959C46.1009 45.29 46.1162 45.2843 46.1328 45.2796C46.2439 45.2409 46.3826 45.164 46.5567 45.0673C47.1304 44.749 48.0891 44.217 49.716 44.1351C50.8389 44.6966 52.1606 44.6966 53.2836 44.1351C55.3033 44.2392 56.5003 45.018 56.8548 45.2486C56.9087 45.2837 56.9431 45.3061 56.958 45.3115C56.9923 45.324 57.0205 45.3442 57.0484 45.3643C57.0678 45.3782 57.0871 45.3921 57.1084 45.4033C57.1213 45.4102 57.1342 45.4169 57.1471 45.4235C57.2173 45.46 57.2857 45.4954 57.3463 45.5482C57.394 45.5896 57.4307 45.6386 57.468 45.6884C57.4784 45.7022 57.4888 45.7161 57.4995 45.7299C57.5079 45.7401 57.5163 45.7502 57.5246 45.7602C57.5675 45.8117 57.6099 45.8626 57.6411 45.9231C57.6756 45.9894 57.6937 46.061 57.712 46.1331C57.7162 46.1493 57.7203 46.1656 57.7246 46.1819C57.7308 46.2072 57.7403 46.2309 57.7497 46.2545C57.7627 46.2871 57.7756 46.3194 57.7797 46.3557L58.7858 55.4109Z"/>
</mask>
<path fill-rule="evenodd" clip-rule="evenodd" d="M51.4997 43.9737C53.254 43.9737 54.6786 41.9368 54.6786 40.1799C54.6786 38.4237 53.254 37 51.4997 37C49.7429 37 48.3181 38.4237 48.3181 40.1799C48.3181 41.9368 49.7429 43.9737 51.4997 43.9737ZM44.482 42.8574C44.482 44.2611 43.344 45.8881 41.9415 45.8881C40.5378 45.8881 39.4001 44.2601 39.4001 42.8574C39.4001 41.4537 40.538 40.316 41.9415 40.316C43.3442 40.316 44.482 41.4527 44.482 42.8574ZM63.5982 42.8574C63.5982 44.2611 62.4604 45.8881 61.0574 45.8881C59.6544 45.8881 58.5164 44.2601 58.5164 42.8574C58.5164 41.4537 59.6544 40.316 61.0574 40.316C62.4604 40.316 63.5982 41.4527 63.5982 42.8574ZM43.6953 56.9635C43.3181 56.4917 43.1472 55.9003 43.2135 55.3011L44.2052 46.3701C43.7351 46.2687 43.3104 46.2991 42.8595 46.3313C42.6282 46.3478 42.3899 46.3649 42.1351 46.3649C41.8955 46.3649 41.6327 46.3521 41.3622 46.339H41.3622H41.3622C40.7467 46.3091 40.0919 46.2773 39.5832 46.3898C38.6438 46.5975 37.884 46.8522 37.6532 46.9326C37.6369 46.9373 37.6221 46.943 37.6065 46.9491L37.6051 46.9497C37.5977 46.9529 37.5872 46.9563 37.5822 46.9579L37.5801 46.9586C37.569 46.9628 37.56 46.9694 37.5509 46.976L37.5509 46.976C37.5435 46.9814 37.5361 46.9868 37.5275 46.991C37.4311 47.0333 37.3393 47.0823 37.2612 47.1525C37.2367 47.1738 37.2179 47.1985 37.1989 47.2234L37.1989 47.2234C37.189 47.2364 37.1791 47.2495 37.1683 47.2621L37.1541 47.2788C37.1087 47.3324 37.0643 47.3848 37.0327 47.4492C37.0079 47.497 36.9952 47.5485 36.9824 47.6002C36.9785 47.616 36.9746 47.6319 36.9703 47.6477C36.9651 47.6669 36.9578 47.6851 36.9505 47.7033C36.9391 47.7316 36.9277 47.76 36.9241 47.7926L36.1198 55.0279C36.0584 55.5791 36.4559 56.0762 37.0074 56.1382C37.0452 56.1421 37.0826 56.144 37.1199 56.144C37.6249 56.144 38.0608 55.7646 38.1172 55.2499L38.8492 48.659C38.8808 48.6498 38.9134 48.6401 38.947 48.6301C39.0047 48.613 39.0651 48.5951 39.1282 48.5773V55.4366L38.3283 65.383C38.2747 66.046 38.77 66.6279 39.4336 66.6808C39.467 66.6839 39.4995 66.6849 39.5314 66.6849C40.1543 66.6849 40.6826 66.2072 40.7326 65.5765L41.4561 56.5861C41.6049 56.651 41.769 56.6904 41.942 56.6904C42.1159 56.6904 42.28 56.6531 42.4288 56.5861L43.1523 65.5765C43.2025 66.2072 43.7307 66.6849 44.3525 66.6849C44.385 66.6849 44.4179 66.6837 44.4503 66.6808C45.114 66.6279 45.6092 66.046 45.5558 65.383L44.9412 57.7436C44.4568 57.6296 44.0161 57.3663 43.6953 56.9635ZM59.6436 55.3011C59.7099 55.9003 59.539 56.4917 59.1618 56.9635C58.841 57.3663 58.4003 57.6296 57.9159 57.7436L57.3013 65.383C57.2479 66.046 57.7431 66.6279 58.4068 66.6808C58.4392 66.6837 58.4721 66.6849 58.5046 66.6849C59.1264 66.6849 59.6546 66.2072 59.7048 65.5765L60.4283 56.5861C60.5771 56.6531 60.7412 56.6904 60.9151 56.6904C61.0881 56.6904 61.2522 56.651 61.401 56.5861L62.1245 65.5765C62.1745 66.2072 62.7028 66.6849 63.3257 66.6849C63.3576 66.6849 63.3901 66.6839 63.4235 66.6808C64.0871 66.6279 64.5824 66.046 64.5288 65.383L63.7289 55.4366V48.5773C63.7919 48.5951 63.8524 48.613 63.91 48.6301L63.9101 48.6301C63.9437 48.6401 63.9763 48.6498 64.0079 48.659L64.7398 55.2499C64.7963 55.7646 65.2322 56.144 65.7372 56.144C65.7745 56.144 65.8119 56.1421 65.8497 56.1382C66.4012 56.0762 66.7986 55.5791 66.7373 55.0279L65.9329 47.7926C65.9294 47.76 65.918 47.7316 65.9066 47.7033L65.9066 47.7032C65.8993 47.685 65.892 47.6669 65.8868 47.6477C65.8825 47.6319 65.8786 47.616 65.8747 47.6002L65.8747 47.6002C65.8619 47.5485 65.8492 47.497 65.8243 47.4492C65.7928 47.3848 65.7484 47.3324 65.703 47.2788L65.6888 47.2621C65.678 47.2495 65.6681 47.2364 65.6582 47.2234C65.6392 47.1985 65.6204 47.1738 65.5959 47.1525C65.5178 47.0823 65.4259 47.0333 65.3296 46.991C65.321 46.9868 65.3136 46.9814 65.3062 46.976C65.2971 46.9694 65.2881 46.9628 65.277 46.9586L65.2749 46.9579L65.2696 46.9561C65.2643 46.9544 65.2574 46.952 65.252 46.9497L65.2506 46.9491L65.2505 46.9491C65.2349 46.943 65.2202 46.9373 65.2039 46.9326C64.9731 46.8522 64.2133 46.5975 63.2739 46.3898C62.7652 46.2773 62.1104 46.3091 61.4949 46.339H61.4948C61.2244 46.3521 60.9615 46.3649 60.722 46.3649C60.4672 46.3649 60.2289 46.3478 59.9976 46.3313C59.5467 46.2991 59.122 46.2687 58.6519 46.3701L59.6436 55.3011ZM58.7858 55.4109C58.8622 56.1007 58.3651 56.7236 57.6754 56.7993C57.6273 56.8043 57.5802 56.8081 57.5346 56.808C56.9019 56.808 56.3576 56.3324 56.2858 55.688L55.3701 47.4415C55.2629 47.4081 55.145 47.3742 55.0202 47.3389V55.924L56.0225 68.3701C56.0893 69.2003 55.4703 69.9293 54.6391 69.9952C54.5978 69.9981 54.5565 70.0002 54.5163 70.0002C53.7381 70.0002 53.077 69.4018 53.0136 68.6118L52.1091 57.3626C51.9229 57.4452 51.7165 57.4923 51.5005 57.4923C51.2844 57.4923 51.079 57.4452 50.8918 57.3626L49.9874 68.6118C49.9242 69.4017 49.2629 70.0002 48.4842 70.0002C48.444 70.0002 48.4027 69.9982 48.3614 69.9952C47.5305 69.9293 46.9116 69.2005 46.9779 68.3701L47.9791 55.924V47.3392C47.9581 47.3453 47.9373 47.3513 47.9168 47.3573C47.8149 47.3868 47.7185 47.4148 47.6298 47.4418L46.7136 55.6883C46.6419 56.3318 46.0965 56.8083 45.4648 56.8083C45.4186 56.8083 45.3714 56.8064 45.3238 56.7994C44.6335 56.7237 44.1368 56.1007 44.213 55.4111L45.219 46.3558C45.2235 46.3155 45.2374 46.2805 45.2515 46.2451C45.2606 46.2223 45.2698 46.1993 45.2765 46.1746C45.2816 46.1556 45.2864 46.1366 45.2911 46.1178C45.3076 46.0518 45.3237 45.9872 45.3551 45.9265C45.3953 45.8464 45.4514 45.7802 45.5083 45.7131C45.5139 45.7064 45.5195 45.6998 45.5251 45.6931C45.5385 45.6772 45.5508 45.6609 45.5631 45.6447C45.5867 45.6134 45.6101 45.5824 45.6405 45.5552C45.7393 45.4667 45.8532 45.4064 45.9745 45.3528C45.9852 45.3479 45.9945 45.3411 46.0038 45.3342C46.015 45.326 46.0263 45.3176 46.0404 45.3125C46.0454 45.3106 46.0605 45.3057 46.0723 45.3007C46.0767 45.2991 46.081 45.2975 46.0852 45.2959C46.1009 45.29 46.1162 45.2843 46.1328 45.2796C46.2439 45.2409 46.3826 45.164 46.5567 45.0673C47.1304 44.749 48.0891 44.217 49.716 44.1351C50.8389 44.6966 52.1606 44.6966 53.2836 44.1351C55.3033 44.2392 56.5003 45.018 56.8548 45.2486C56.9087 45.2837 56.9431 45.3061 56.958 45.3115C56.9923 45.324 57.0205 45.3442 57.0484 45.3643C57.0678 45.3782 57.0871 45.3921 57.1084 45.4033C57.1213 45.4102 57.1342 45.4169 57.1471 45.4235C57.2173 45.46 57.2857 45.4954 57.3463 45.5482C57.394 45.5896 57.4307 45.6386 57.468 45.6884C57.4784 45.7022 57.4888 45.7161 57.4995 45.7299C57.5079 45.7401 57.5163 45.7502 57.5246 45.7602C57.5675 45.8117 57.6099 45.8626 57.6411 45.9231C57.6756 45.9894 57.6937 46.061 57.712 46.1331C57.7162 46.1493 57.7203 46.1656 57.7246 46.1819C57.7308 46.2072 57.7403 46.2309 57.7497 46.2545C57.7627 46.2871 57.7756 46.3194 57.7797 46.3557L58.7858 55.4109Z" fill="url(#paint5_linear_452_7881)"/>
<path d="M53.0747 43.6809L52.8369 43.7902L53.2546 44.6988L53.4924 44.5894L53.0747 43.6809ZM43.2135 55.3011L42.2196 55.1907L42.2196 55.1911L43.2135 55.3011ZM43.6953 56.9635L44.4775 56.3405L44.4763 56.339L43.6953 56.9635ZM44.2052 46.3701L45.1991 46.4804C45.2557 45.9706 44.9174 45.5006 44.4159 45.3925L44.2052 46.3701ZM42.8595 46.3313L42.7882 45.3339L42.7882 45.3339L42.8595 46.3313ZM41.3622 46.339L41.4108 45.3401C41.3946 45.3394 41.3784 45.339 41.3622 45.339V46.339ZM41.3622 46.339L41.3137 47.3378C41.3299 47.3386 41.346 47.339 41.3622 47.339V46.339ZM39.5832 46.3898L39.7991 47.3662L39.7991 47.3662L39.5832 46.3898ZM37.6532 46.9326L37.9304 47.8934C37.9477 47.8884 37.9649 47.8829 37.982 47.877L37.6532 46.9326ZM37.6065 46.9491L37.2431 46.0175L37.243 46.0175L37.6065 46.9491ZM37.6051 46.9497L37.2416 46.0181C37.2293 46.0229 37.2172 46.0279 37.2051 46.0331L37.6051 46.9497ZM37.5822 46.9579L37.2775 46.0054L37.275 46.0062L37.5822 46.9579ZM37.5801 46.9586L37.2728 46.0069C37.2556 46.0125 37.2385 46.0185 37.2216 46.025L37.5801 46.9586ZM37.5509 46.976L38.1276 47.7929C38.1318 47.79 38.1359 47.787 38.1401 47.784L37.5509 46.976ZM37.5509 46.976L36.9742 46.159C36.9701 46.1619 36.9659 46.1649 36.9618 46.1679L37.5509 46.976ZM37.5275 46.991L37.9293 47.9067C37.9415 47.9013 37.9536 47.8957 37.9656 47.8899L37.5275 46.991ZM37.2612 47.1525L37.9176 47.9069C37.9217 47.9034 37.9257 47.8998 37.9297 47.8963L37.2612 47.1525ZM37.1989 47.2234L37.983 47.8441C37.9867 47.8393 37.9905 47.8345 37.9942 47.8297L37.1989 47.2234ZM37.1989 47.2234L36.4149 46.6027C36.4111 46.6075 36.4073 46.6123 36.4037 46.6172L37.1989 47.2234ZM37.1683 47.2621L36.4083 46.6121L36.4048 46.6162L37.1683 47.2621ZM37.1541 47.2788L37.917 47.9253L37.9176 47.9247L37.1541 47.2788ZM37.0327 47.4492L37.9202 47.9102C37.9238 47.9032 37.9273 47.8962 37.9308 47.8891L37.0327 47.4492ZM36.9824 47.6002L37.9532 47.8402L37.9532 47.8402L36.9824 47.6002ZM36.9703 47.6477L36.0051 47.3862L36.0048 47.3873L36.9703 47.6477ZM36.9505 47.7033L36.0227 47.3302L36.0227 47.3302L36.9505 47.7033ZM36.9241 47.7926L37.918 47.9031L37.9183 47.9004L36.9241 47.7926ZM36.1198 55.0279L37.1136 55.1384L37.1136 55.1384L36.1198 55.0279ZM37.0074 56.1382L36.8958 57.132L36.9054 57.133L37.0074 56.1382ZM38.1172 55.2499L37.1234 55.1395L37.1232 55.1408L38.1172 55.2499ZM38.8492 48.659L38.5699 47.6987C38.1819 47.8116 37.8999 48.1469 37.8553 48.5486L38.8492 48.659ZM38.947 48.6301L38.6625 47.6715L38.6625 47.6715L38.947 48.6301ZM39.1282 48.5773H40.1282C40.1282 48.2642 39.9815 47.9692 39.7319 47.7801C39.4823 47.5911 39.1586 47.5299 38.8572 47.6147L39.1282 48.5773ZM39.1282 55.4366L40.125 55.5168C40.1271 55.4901 40.1282 55.4633 40.1282 55.4366H39.1282ZM38.3283 65.383L39.3251 65.4636L39.3251 65.4632L38.3283 65.383ZM39.4336 66.6808L39.5251 65.685L39.5131 65.684L39.4336 66.6808ZM40.7326 65.5765L39.7358 65.4963L39.7357 65.4974L40.7326 65.5765ZM41.4561 56.5861L41.8558 55.6695C41.5597 55.5404 41.2194 55.5622 40.9423 55.7282C40.6651 55.8942 40.4853 56.1839 40.4593 56.5059L41.4561 56.5861ZM42.4288 56.5861L43.4256 56.5059C43.3995 56.1818 43.2175 55.8907 42.9376 55.7252C42.6577 55.5598 42.3148 55.5408 42.0184 55.6742L42.4288 56.5861ZM43.1523 65.5765L44.1492 65.4972L44.1491 65.4963L43.1523 65.5765ZM44.4503 66.6808L44.3708 65.684L44.3611 65.6848L44.4503 66.6808ZM45.5558 65.383L44.559 65.4632L44.559 65.4633L45.5558 65.383ZM44.9412 57.7436L45.938 57.6634C45.9031 57.2305 45.5929 56.8695 45.1701 56.7701L44.9412 57.7436ZM59.1618 56.9635L58.3807 56.339L58.3796 56.3405L59.1618 56.9635ZM59.6436 55.3011L60.6375 55.1911L60.6375 55.1907L59.6436 55.3011ZM57.9159 57.7436L57.687 56.7701C57.2642 56.8695 56.954 57.2305 56.9191 57.6634L57.9159 57.7436ZM57.3013 65.383L58.2981 65.4633L58.2981 65.4632L57.3013 65.383ZM58.4068 66.6808L58.496 65.6848L58.4863 65.684L58.4068 66.6808ZM59.7048 65.5765L58.708 65.4963L58.7079 65.4972L59.7048 65.5765ZM60.4283 56.5861L60.8387 55.6742C60.5422 55.5408 60.1994 55.5598 59.9195 55.7252C59.6396 55.8907 59.4576 56.1818 59.4315 56.5059L60.4283 56.5861ZM61.401 56.5861L62.3977 56.5059C62.3718 56.1839 62.192 55.8942 61.9148 55.7282C61.6377 55.5622 61.2974 55.5404 61.0013 55.6695L61.401 56.5861ZM62.1245 65.5765L63.1214 65.4974L63.1213 65.4963L62.1245 65.5765ZM63.4235 66.6808L63.344 65.6839L63.332 65.685L63.4235 66.6808ZM64.5288 65.383L63.532 65.4632L63.532 65.4636L64.5288 65.383ZM63.7289 55.4366H62.7289C62.7289 55.4633 62.73 55.4901 62.7321 55.5168L63.7289 55.4366ZM63.7289 48.5773L63.9999 47.6147C63.6986 47.5299 63.3748 47.5911 63.1252 47.7801C62.8756 47.9692 62.7289 48.2642 62.7289 48.5773H63.7289ZM63.91 48.6301L63.6255 49.5888L63.6353 49.5916L63.91 48.6301ZM63.9101 48.6301L64.1946 47.6714L64.1848 47.6686L63.9101 48.6301ZM64.0079 48.659L65.0018 48.5486C64.9572 48.1469 64.6752 47.8116 64.2871 47.6987L64.0079 48.659ZM64.7398 55.2499L65.7339 55.1408L65.7337 55.1395L64.7398 55.2499ZM65.8497 56.1382L65.9517 57.133L65.9613 57.1319L65.8497 56.1382ZM66.7373 55.0279L65.7434 55.1384L65.7435 55.1384L66.7373 55.0279ZM65.9329 47.7926L64.9388 47.9005L64.9391 47.9031L65.9329 47.7926ZM65.9066 47.7033L66.8344 47.3302C66.8299 47.3191 66.8253 47.308 66.8204 47.2971L65.9066 47.7033ZM65.9066 47.7032L64.9788 48.0763C64.9832 48.0874 64.9879 48.0984 64.9928 48.1094L65.9066 47.7032ZM65.8868 47.6477L66.8523 47.3873L66.852 47.3862L65.8868 47.6477ZM65.8747 47.6002L64.8985 47.8171C64.9002 47.8248 64.902 47.8325 64.9039 47.8402L65.8747 47.6002ZM65.8747 47.6002L66.8509 47.3832C66.8491 47.3755 66.8473 47.3678 66.8454 47.3601L65.8747 47.6002ZM65.8243 47.4492L64.9263 47.8891C64.9297 47.8962 64.9333 47.9032 64.9369 47.9102L65.8243 47.4492ZM65.703 47.2788L64.9395 47.9246L64.9401 47.9253L65.703 47.2788ZM65.6888 47.2621L66.4523 46.6162L66.4487 46.6121L65.6888 47.2621ZM65.6582 47.2234L66.4535 46.6172L66.4534 46.6172L65.6582 47.2234ZM65.5959 47.1525L64.9274 47.8963C64.9314 47.8998 64.9354 47.9034 64.9394 47.9069L65.5959 47.1525ZM65.3296 46.991L64.8915 47.8899C64.9035 47.8957 64.9156 47.9013 64.9278 47.9067L65.3296 46.991ZM65.3062 46.976L65.8953 46.168L65.8952 46.1679L65.3062 46.976ZM65.277 46.9586L65.6355 46.025C65.6186 46.0185 65.6015 46.0125 65.5843 46.0069L65.277 46.9586ZM65.2749 46.9579L64.9671 47.9093L64.9676 47.9095L65.2749 46.9579ZM65.2696 46.9561L64.9567 47.906L64.9618 47.9076L65.2696 46.9561ZM65.252 46.9497L65.6519 46.0331C65.64 46.0279 65.628 46.0229 65.6158 46.0182L65.252 46.9497ZM65.2506 46.9491L64.8849 47.8799L64.8867 47.8806L65.2506 46.9491ZM65.2505 46.9491L65.6161 46.0183L65.6138 46.0174L65.2505 46.9491ZM65.2039 46.9326L64.8751 47.877C64.8922 47.8829 64.9094 47.8884 64.9267 47.8934L65.2039 46.9326ZM63.2739 46.3898L63.058 47.3662L63.058 47.3662L63.2739 46.3898ZM61.4949 46.339V47.339C61.511 47.339 61.5272 47.3386 61.5434 47.3378L61.4949 46.339ZM61.4948 46.339V45.339C61.4787 45.339 61.4625 45.3394 61.4463 45.3401L61.4948 46.339ZM59.9976 46.3313L60.0689 45.3339L60.0689 45.3339L59.9976 46.3313ZM58.6519 46.3701L58.4412 45.3925C57.9397 45.5006 57.6014 45.9706 57.658 46.4804L58.6519 46.3701ZM57.6754 56.7993L57.7789 57.7939L57.7845 57.7933L57.6754 56.7993ZM58.7858 55.4109L59.7797 55.3007L59.7796 55.3005L58.7858 55.4109ZM57.5346 56.808L57.5381 55.808H57.5346V56.808ZM56.2858 55.688L55.2919 55.7983L55.2919 55.7987L56.2858 55.688ZM55.3701 47.4415L56.364 47.3311C56.3201 46.9364 56.0469 46.605 55.6677 46.4868L55.3701 47.4415ZM55.0202 47.3389L55.2928 46.3767C54.9913 46.2913 54.6672 46.3522 54.4172 46.5412C54.1672 46.7302 54.0202 47.0255 54.0202 47.3389H55.0202ZM55.0202 55.924H54.0202C54.0202 55.9508 54.0213 55.9776 54.0235 56.0043L55.0202 55.924ZM56.0225 68.3701L57.0192 68.2899L57.0192 68.2898L56.0225 68.3701ZM54.6391 69.9952L54.7093 70.9927L54.7181 70.992L54.6391 69.9952ZM53.0136 68.6118L54.0104 68.5318L54.0103 68.5317L53.0136 68.6118ZM52.1091 57.3626L53.1059 57.2824C53.0799 56.9593 52.8989 56.6688 52.6203 56.5031C52.3416 56.3374 51.9999 56.317 51.7036 56.4485L52.1091 57.3626ZM50.8918 57.3626L51.2956 56.4477C50.9994 56.3169 50.6581 56.3378 50.3799 56.5036C50.1017 56.6693 49.921 56.9596 49.8951 57.2824L50.8918 57.3626ZM49.9874 68.6118L48.9906 68.5317L48.9906 68.532L49.9874 68.6118ZM48.3614 69.9952L48.2824 70.992L48.2873 70.9924L48.3614 69.9952ZM46.9779 68.3701L45.9811 68.2899L45.9811 68.2905L46.9779 68.3701ZM47.9791 55.924L48.9759 56.0042C48.978 55.9775 48.9791 55.9508 48.9791 55.924H47.9791ZM47.9791 47.3392H48.9791C48.9791 47.0246 48.8311 46.7283 48.5795 46.5394C48.3279 46.3506 48.0021 46.2911 47.7 46.3789L47.9791 47.3392ZM47.9168 47.3573L47.6381 46.3969L47.638 46.3969L47.9168 47.3573ZM47.6298 47.4418L47.3388 46.4851C46.9564 46.6013 46.68 46.9341 46.6359 47.3314L47.6298 47.4418ZM46.7136 55.6883L47.7074 55.7989L47.7075 55.7987L46.7136 55.6883ZM45.3238 56.7994L45.468 55.8099C45.4563 55.8082 45.4445 55.8067 45.4327 55.8054L45.3238 56.7994ZM44.213 55.4111L43.2191 55.3006L43.219 55.3013L44.213 55.4111ZM45.219 46.3558L46.2129 46.4663L46.2131 46.4647L45.219 46.3558ZM45.2515 46.2451L46.1805 46.6154L46.1805 46.6154L45.2515 46.2451ZM45.2765 46.1746L46.2415 46.4369L46.242 46.4352L45.2765 46.1746ZM45.2911 46.1178L46.2613 46.3602L46.2613 46.3602L45.2911 46.1178ZM45.3551 45.9265L46.2436 46.3854L46.2485 46.3756L45.3551 45.9265ZM45.5083 45.7131L44.7453 45.0667L44.7453 45.0667L45.5083 45.7131ZM45.5251 45.6931L46.2897 46.3377L46.2905 46.3367L45.5251 45.6931ZM45.5631 45.6447L46.3612 46.2472L46.3612 46.2472L45.5631 45.6447ZM45.6405 45.5552L46.3075 46.3003L46.3076 46.3002L45.6405 45.5552ZM45.9745 45.3528L46.3784 46.2676C46.3828 46.2657 46.3872 46.2637 46.3916 46.2617L45.9745 45.3528ZM46.0038 45.3342L45.4104 44.5293L45.4103 44.5294L46.0038 45.3342ZM46.0404 45.3125L46.3831 46.2519C46.3892 46.2497 46.3953 46.2474 46.4013 46.2451L46.0404 45.3125ZM46.0723 45.3007L45.727 44.3622C45.7117 44.3679 45.6965 44.3739 45.6815 44.3803L46.0723 45.3007ZM46.0852 45.2959L45.7339 44.3597L45.7338 44.3597L46.0852 45.2959ZM46.1328 45.2796L46.4046 46.2419C46.4238 46.2365 46.4428 46.2305 46.4616 46.224L46.1328 45.2796ZM46.5567 45.0673L46.0715 44.1929L46.0715 44.1929L46.5567 45.0673ZM49.716 44.1351L50.1632 43.2407C50.0091 43.1637 49.8378 43.1278 49.6658 43.1364L49.716 44.1351ZM53.2836 44.1351L53.335 43.1365C53.1626 43.1276 52.9908 43.1635 52.8363 43.2407L53.2836 44.1351ZM56.8548 45.2486L56.3095 46.0868L56.3095 46.0868L56.8548 45.2486ZM56.958 45.3115L56.6146 46.2507L56.6161 46.2512L56.958 45.3115ZM57.0484 45.3643L57.6318 44.5521L57.6318 44.5521L57.0484 45.3643ZM57.1084 45.4033L57.576 44.5194L57.5753 44.519L57.1084 45.4033ZM57.1471 45.4235L56.6865 46.3112L56.6865 46.3112L57.1471 45.4235ZM57.3463 45.5482L56.6892 46.3021L56.6909 46.3035L57.3463 45.5482ZM57.468 45.6884L58.268 45.0884L58.268 45.0884L57.468 45.6884ZM57.4995 45.7299L56.7095 46.343C56.7149 46.3499 56.7203 46.3567 56.7258 46.3634L57.4995 45.7299ZM57.5246 45.7602L58.2931 45.1203L58.2931 45.1203L57.5246 45.7602ZM57.6411 45.9231L56.7523 46.3814L56.7538 46.3843L57.6411 45.9231ZM57.712 46.1331L56.7428 46.3793L56.7428 46.3793L57.712 46.1331ZM57.7246 46.1819L58.6963 45.9455C58.6946 45.9385 58.6928 45.9314 58.6909 45.9244L57.7246 46.1819ZM57.7497 46.2545L56.8211 46.6255L56.8211 46.6255L57.7497 46.2545ZM57.7797 46.3557L56.7858 46.4661L56.7858 46.4661L57.7797 46.3557ZM53.6786 40.1799C53.6786 40.8087 53.4144 41.5432 52.9622 42.116C52.5074 42.692 51.9745 42.9737 51.4997 42.9737V44.9737C52.7792 44.9737 53.8358 44.237 54.5319 43.3553C55.2305 42.4705 55.6786 41.308 55.6786 40.1799H53.6786ZM51.4997 38C52.7017 38 53.6786 38.976 53.6786 40.1799H55.6786C55.6786 37.8714 53.8063 36 51.4997 36V38ZM49.3181 40.1799C49.3181 38.9765 50.2947 38 51.4997 38V36C49.1912 36 47.3181 37.8708 47.3181 40.1799H49.3181ZM51.4997 42.9737C51.0232 42.9737 50.4897 42.6915 50.0348 42.1157C49.5823 41.543 49.3181 40.8087 49.3181 40.1799H47.3181C47.3181 41.3081 47.7663 42.4706 48.4655 43.3556C49.1622 44.2374 50.2194 44.9737 51.4997 44.9737V42.9737ZM41.9415 46.8881C43.0448 46.8881 43.9418 46.2541 44.5225 45.5189C45.1055 44.7805 45.482 43.8088 45.482 42.8574H43.482C43.482 43.3096 43.2894 43.8532 42.9529 44.2793C42.6139 44.7085 42.2407 44.8881 41.9415 44.8881V46.8881ZM38.4001 42.8574C38.4001 43.8084 38.7765 44.7801 39.3596 45.5185C39.9404 46.2539 40.8376 46.8881 41.9415 46.8881V44.8881C41.6417 44.8881 41.2682 44.7083 40.9292 44.279C40.5925 43.8527 40.4001 43.3091 40.4001 42.8574H38.4001ZM41.9415 39.316C39.9857 39.316 38.4001 40.9014 38.4001 42.8574H40.4001C40.4001 42.006 41.0902 41.316 41.9415 41.316V39.316ZM45.482 42.8574C45.482 40.9005 43.8965 39.316 41.9415 39.316V41.316C42.7919 41.316 43.482 42.005 43.482 42.8574H45.482ZM61.0574 46.8881C62.1609 46.8881 63.058 46.2542 63.6387 45.5189C64.2218 44.7805 64.5982 43.8088 64.5982 42.8574H62.5982C62.5982 43.3097 62.4056 43.8533 62.0692 44.2793C61.7302 44.7085 61.3569 44.8881 61.0574 44.8881V46.8881ZM57.5164 42.8574C57.5164 43.8084 57.8929 44.7801 58.476 45.5185C59.0566 46.2537 59.9537 46.8881 61.0574 46.8881V44.8881C60.758 44.8881 60.3847 44.7084 60.0456 44.279C59.7089 43.8527 59.5164 43.3091 59.5164 42.8574H57.5164ZM61.0574 39.316C59.102 39.316 57.5164 40.9015 57.5164 42.8574H59.5164C59.5164 42.0059 60.2067 41.316 61.0574 41.316V39.316ZM64.5982 42.8574C64.5982 40.9004 63.0126 39.316 61.0574 39.316V41.316C61.9082 41.316 62.5982 42.0051 62.5982 42.8574H64.5982ZM42.2196 55.1911C42.1241 56.0534 42.3713 56.909 42.9143 57.588L44.4763 56.339C44.2648 56.0745 44.1702 55.7473 44.2074 55.411L42.2196 55.1911ZM43.2113 46.2597L42.2196 55.1907L44.2074 55.4114L45.1991 46.4804L43.2113 46.2597ZM42.9307 47.3288C43.3958 47.2955 43.6835 47.2806 43.9945 47.3476L44.4159 45.3925C43.7866 45.2569 43.2251 45.3026 42.7882 45.3339L42.9307 47.3288ZM42.1351 47.3649C42.4309 47.3649 42.7034 47.345 42.9307 47.3288L42.7882 45.3339C42.5529 45.3507 42.349 45.3649 42.1351 45.3649V47.3649ZM41.3137 47.3378C41.5783 47.3506 41.8666 47.3649 42.1351 47.3649V45.3649C41.9244 45.3649 41.6871 45.3536 41.4108 45.3401L41.3137 47.3378ZM41.3622 47.339H41.3622V45.339H41.3622V47.339ZM41.3622 47.339H41.3622V45.339H41.3622V47.339ZM39.7991 47.3662C40.1492 47.2887 40.6544 47.3058 41.3137 47.3378L41.4107 45.3401C40.839 45.3124 40.0346 45.2658 39.3673 45.4133L39.7991 47.3662ZM37.982 47.877C38.1923 47.8037 38.9119 47.5624 39.7991 47.3662L39.3673 45.4133C38.3757 45.6326 37.5756 45.9007 37.3244 45.9882L37.982 47.877ZM37.97 47.8807C37.9744 47.879 37.9755 47.8786 37.9761 47.8784C37.9764 47.8782 37.9743 47.879 37.9709 47.8803C37.9639 47.8828 37.9495 47.8879 37.9304 47.8934L37.376 45.9718C37.3092 45.991 37.2532 46.0136 37.2431 46.0175L37.97 47.8807ZM37.9686 47.8813L37.97 47.8807L37.243 46.0175L37.2416 46.0181L37.9686 47.8813ZM37.887 47.9103C37.8894 47.9095 37.9033 47.9051 37.9197 47.8994C37.9326 47.895 37.9657 47.8834 38.005 47.8662L37.2051 46.0331C37.2231 46.0253 37.2375 46.0197 37.2457 46.0166C37.2545 46.0133 37.2615 46.0108 37.2658 46.0093C37.2738 46.0066 37.28 46.0046 37.2775 46.0054L37.887 47.9103ZM37.8873 47.9102L37.8895 47.9095L37.275 46.0062L37.2728 46.0069L37.8873 47.9102ZM38.1401 47.784C38.149 47.7775 38.1261 47.7947 38.0969 47.813C38.0633 47.8342 38.0094 47.8649 37.9386 47.8921L37.2216 46.025C37.1396 46.0565 37.0757 46.0926 37.0325 46.1198C36.9938 46.1441 36.9619 46.1679 36.9618 46.1679L38.1401 47.784ZM38.1276 47.793L38.1276 47.7929L36.9742 46.159L36.9742 46.159L38.1276 47.793ZM37.9656 47.8899C38.02 47.8634 38.0628 47.8369 38.0913 47.818C38.1173 47.8008 38.1392 47.7846 38.14 47.7841L36.9618 46.1679C36.9552 46.1727 36.9697 46.1619 36.988 46.1499C37.0088 46.1361 37.0436 46.1144 37.0893 46.0921L37.9656 47.8899ZM37.9297 47.8963C37.9098 47.9141 37.8956 47.9226 37.8945 47.9233C37.8939 47.9236 37.8961 47.9223 37.902 47.9193C37.908 47.9164 37.9167 47.9122 37.9293 47.9067L37.1256 46.0753C36.9893 46.1351 36.7861 46.235 36.5928 46.4088L37.9297 47.8963ZM37.9942 47.8297C38.0063 47.8138 38.0001 47.8223 37.9905 47.8336C37.9785 47.8477 37.9539 47.8753 37.9176 47.9069L36.6048 46.3981C36.4913 46.4969 36.4139 46.6037 36.4037 46.6171L37.9942 47.8297ZM37.983 47.8441L37.983 47.8441L36.4149 46.6027L36.4149 46.6027L37.983 47.8441ZM37.9283 47.912C37.9603 47.8746 37.9869 47.8392 37.9942 47.8297L36.4037 46.6172C36.401 46.6206 36.3996 46.6225 36.3984 46.6241C36.3973 46.6255 36.397 46.6258 36.3974 46.6254C36.3979 46.6247 36.4019 46.6196 36.4083 46.6121L37.9283 47.912ZM37.9176 47.9247L37.9318 47.9079L36.4048 46.6162L36.3906 46.633L37.9176 47.9247ZM37.9308 47.8891C37.9121 47.9273 37.8948 47.9512 37.8906 47.9569C37.8886 47.9595 37.8889 47.959 37.8935 47.9534C37.8987 47.947 37.9048 47.9397 37.917 47.9253L36.3912 46.6323C36.3576 46.672 36.2296 46.8156 36.1347 47.0094L37.9308 47.8891ZM37.9532 47.8402C37.9567 47.826 37.9581 47.8204 37.9593 47.8159C37.9602 47.8123 37.9597 47.8147 37.9578 47.8206C37.9542 47.8323 37.943 47.8663 37.9202 47.9102L36.1453 46.9883C36.0567 47.1589 36.0198 47.3273 36.0116 47.3602L37.9532 47.8402ZM37.9355 47.9093C37.9432 47.8809 37.9497 47.8542 37.9532 47.8402L36.0116 47.3602C36.0073 47.3778 36.006 47.3829 36.0051 47.3862L37.9355 47.9093ZM37.8783 48.0763C37.8821 48.0668 37.9126 47.9942 37.9358 47.9082L36.0048 47.3873C36.0122 47.3598 36.0193 47.3397 36.0226 47.3308C36.0235 47.3284 36.0242 47.3266 36.0247 47.3254C36.0251 47.3242 36.0254 47.3235 36.0254 47.3235C36.0254 47.3235 36.0252 47.3239 36.0248 47.3251C36.0242 47.3263 36.0237 47.3277 36.0227 47.3302L37.8783 48.0763ZM37.9183 47.9004C37.9109 47.9687 37.8963 48.0214 37.8866 48.0518C37.8785 48.0769 37.8705 48.0958 37.8783 48.0763L36.0227 47.3302C36.0176 47.3428 35.9506 47.4945 35.93 47.6848L37.9183 47.9004ZM37.1136 55.1384L37.918 47.9031L35.9303 47.6821L35.1259 54.9174L37.1136 55.1384ZM37.1191 55.1444C37.1182 55.1443 37.1176 55.1442 37.1173 55.1442C37.117 55.1441 37.1169 55.1441 37.1169 55.1441C37.1168 55.1441 37.1169 55.1441 37.1169 55.1441C37.117 55.1441 37.117 55.1441 37.117 55.1441C37.117 55.1441 37.116 55.1435 37.1149 55.1421C37.1137 55.1406 37.1134 55.1396 37.1134 55.1398C37.1135 55.1399 37.1135 55.1401 37.1135 55.1403C37.1135 55.1405 37.1135 55.14 37.1136 55.1384L35.1259 54.9173C35.0035 56.0176 35.7964 57.0084 36.8958 57.1319L37.1191 55.1444ZM37.1199 55.144C37.1174 55.144 37.114 55.1439 37.1095 55.1434L36.9054 57.133C36.9763 57.1403 37.0478 57.144 37.1199 57.144V55.144ZM37.1232 55.1408C37.123 55.1424 37.1229 55.1428 37.1229 55.1426C37.123 55.1424 37.1231 55.1421 37.1233 55.1418C37.1236 55.1412 37.1235 55.1416 37.1226 55.1424C37.1216 55.1433 37.1206 55.1438 37.1202 55.144C37.1201 55.144 37.1203 55.144 37.1199 55.144V57.144C38.1273 57.144 38.9983 56.3884 39.1113 55.359L37.1232 55.1408ZM37.8553 48.5486L37.1234 55.1395L39.1111 55.3603L39.8431 48.7693L37.8553 48.5486ZM38.6625 47.6715C38.6284 47.6816 38.5985 47.6904 38.5699 47.6987L39.1284 49.6192C39.1632 49.6091 39.1984 49.5986 39.2315 49.5888L38.6625 47.6715ZM38.8572 47.6147C38.7863 47.6347 38.7193 47.6546 38.6625 47.6715L39.2315 49.5888C39.29 49.5714 39.3439 49.5555 39.3992 49.5399L38.8572 47.6147ZM40.1282 55.4366V48.5773H38.1282V55.4366H40.1282ZM39.3251 65.4632L40.125 55.5168L38.1314 55.3564L37.3315 65.3029L39.3251 65.4632ZM39.5131 65.684C39.4003 65.675 39.316 65.5756 39.3251 65.4636L37.3316 65.3025C37.2335 66.5165 38.1396 67.5808 39.3541 67.6777L39.5131 65.684ZM39.5314 65.6849C39.5194 65.6849 39.5191 65.6845 39.5251 65.685L39.3422 67.6767C39.415 67.6833 39.4796 67.6849 39.5314 67.6849V65.6849ZM39.7357 65.4974C39.7275 65.6016 39.6393 65.6849 39.5314 65.6849V67.6849C40.6692 67.6849 41.6377 66.8129 41.7294 65.6555L39.7357 65.4974ZM40.4593 56.5059L39.7358 65.4963L41.7294 65.6567L42.4529 56.6663L40.4593 56.5059ZM41.942 55.6904C41.9223 55.6904 41.8937 55.686 41.8558 55.6695L41.0565 57.5028C41.316 57.616 41.6157 57.6904 41.942 57.6904V55.6904ZM42.0184 55.6742C41.9954 55.6846 41.9709 55.6904 41.942 55.6904V57.6904C42.261 57.6904 42.5647 57.6216 42.8392 57.498L42.0184 55.6742ZM44.1491 65.4963L43.4256 56.5059L41.432 56.6663L42.1556 65.6567L44.1491 65.4963ZM44.3525 65.6849C44.2463 65.6849 44.1576 65.6022 44.1492 65.4972L42.1555 65.6558C42.2475 66.8123 43.215 67.6849 44.3525 67.6849V65.6849ZM44.3611 65.6848C44.3648 65.6845 44.3625 65.6849 44.3525 65.6849V67.6849C44.4075 67.6849 44.471 67.683 44.5395 67.6769L44.3611 65.6848ZM44.559 65.4633C44.5681 65.5755 44.4836 65.675 44.3708 65.684L44.5298 67.6777C45.7444 67.5808 46.6504 66.5165 46.5526 65.3027L44.559 65.4633ZM43.9444 57.8238L44.559 65.4632L46.5526 65.3028L45.938 57.6634L43.9444 57.8238ZM42.9131 57.5866C43.3829 58.1764 44.0241 58.5552 44.7123 58.717L45.1701 56.7701C44.8895 56.7041 44.6493 56.5562 44.4775 56.3405L42.9131 57.5866ZM59.9428 57.588C60.4858 56.909 60.733 56.0534 60.6375 55.1911L58.6497 55.411C58.6869 55.7473 58.5923 56.0745 58.3807 56.3391L59.9428 57.588ZM58.1448 58.717C58.833 58.5552 59.4742 58.1764 59.944 57.5866L58.3796 56.3405C58.2078 56.5562 57.9676 56.7041 57.687 56.7701L58.1448 58.717ZM58.2981 65.4632L58.9127 57.8238L56.9191 57.6634L56.3045 65.3028L58.2981 65.4632ZM58.4863 65.684C58.3735 65.675 58.289 65.5755 58.2981 65.4633L56.3045 65.3027C56.2067 66.5165 57.1127 67.5808 58.3273 67.6777L58.4863 65.684ZM58.5046 65.6849C58.4946 65.6849 58.4923 65.6845 58.496 65.6848L58.3176 67.6769C58.3861 67.683 58.4496 67.6849 58.5046 67.6849V65.6849ZM58.7079 65.4972C58.6995 65.6022 58.6108 65.6849 58.5046 65.6849V67.6849C59.6421 67.6849 60.6096 66.8123 60.7016 65.6558L58.7079 65.4972ZM59.4315 56.5059L58.708 65.4963L60.7015 65.6567L61.4251 56.6663L59.4315 56.5059ZM60.9151 55.6904C60.8862 55.6904 60.8617 55.6846 60.8387 55.6742L60.0179 57.498C60.2924 57.6216 60.5961 57.6904 60.9151 57.6904V55.6904ZM61.0013 55.6695C60.9633 55.686 60.9348 55.6904 60.9151 55.6904V57.6904C61.2414 57.6904 61.5411 57.616 61.8006 57.5028L61.0013 55.6695ZM63.1213 65.4963L62.3977 56.5059L60.4042 56.6663L61.1277 65.6567L63.1213 65.4963ZM63.3257 65.6849C63.2178 65.6849 63.1296 65.6016 63.1214 65.4974L61.1276 65.6555C61.2194 66.8129 62.1879 67.6849 63.3257 67.6849V65.6849ZM63.332 65.685C63.338 65.6845 63.3377 65.6849 63.3257 65.6849V67.6849C63.3775 67.6849 63.4421 67.6833 63.5149 67.6767L63.332 65.685ZM63.532 65.4636C63.5411 65.5756 63.4568 65.675 63.344 65.684L63.503 67.6777C64.7175 67.5808 65.6236 66.5165 65.5255 65.3025L63.532 65.4636ZM62.7321 55.5168L63.532 65.4632L65.5256 65.3029L64.7257 55.3564L62.7321 55.5168ZM62.7289 48.5773V55.4366H64.7289V48.5773H62.7289ZM64.1945 47.6714C64.1377 47.6546 64.0708 47.6347 63.9999 47.6147L63.4579 49.5399C63.5131 49.5554 63.567 49.5714 63.6255 49.5888L64.1945 47.6714ZM64.1848 47.6686L64.1848 47.6686L63.6353 49.5916L63.6354 49.5917L64.1848 47.6686ZM64.2871 47.6987C64.2586 47.6904 64.2287 47.6816 64.1946 47.6715L63.6256 49.5888C63.6587 49.5986 63.6939 49.6091 63.7287 49.6192L64.2871 47.6987ZM65.7337 55.1395L65.0018 48.5486L63.014 48.7693L63.746 55.3603L65.7337 55.1395ZM65.7372 55.144C65.7367 55.144 65.737 55.144 65.7369 55.144C65.7365 55.1438 65.7355 55.1433 65.7345 55.1424C65.7336 55.1416 65.7335 55.1412 65.7338 55.1418C65.734 55.1421 65.7341 55.1424 65.7342 55.1426C65.7342 55.1428 65.734 55.1424 65.7339 55.1408L63.7458 55.359C63.8588 56.3884 64.7298 57.144 65.7372 57.144V55.144ZM65.7476 55.1434C65.7431 55.1439 65.7397 55.144 65.7372 55.144V57.144C65.8092 57.144 65.8807 57.1403 65.9517 57.133L65.7476 55.1434ZM65.7435 55.1384C65.7436 55.14 65.7435 55.1405 65.7436 55.1403C65.7436 55.1401 65.7436 55.1399 65.7437 55.1398C65.7437 55.1396 65.7434 55.1406 65.7422 55.1421C65.7411 55.1435 65.7401 55.1441 65.7401 55.1441C65.7401 55.1441 65.7401 55.1441 65.7401 55.1441C65.7402 55.1441 65.7402 55.1441 65.7402 55.1441C65.7402 55.1441 65.7401 55.1441 65.7398 55.1442C65.7395 55.1442 65.7389 55.1443 65.738 55.1444L65.9613 57.1319C67.0606 57.0084 67.8536 56.0176 67.7312 54.9173L65.7435 55.1384ZM64.9391 47.9031L65.7434 55.1384L67.7312 54.9174L66.9268 47.6821L64.9391 47.9031ZM64.9788 48.0763C64.9866 48.0958 64.9786 48.0769 64.9705 48.0518C64.9607 48.0214 64.9462 47.9687 64.9388 47.9005L66.9271 47.6848C66.9065 47.4945 66.8395 47.3428 66.8344 47.3302L64.9788 48.0763ZM64.9928 48.1094L64.9928 48.1094L66.8204 47.2971L66.8204 47.2971L64.9928 48.1094ZM64.9213 47.9081C64.9445 47.9941 64.9749 48.0667 64.9788 48.0763L66.8344 47.3302C66.8334 47.3278 66.8329 47.3264 66.8324 47.3251C66.8319 47.324 66.8317 47.3235 66.8317 47.3235C66.8317 47.3236 66.832 47.3242 66.8325 47.3254C66.8329 47.3266 66.8336 47.3285 66.8345 47.3308C66.8378 47.3398 66.8449 47.3599 66.8523 47.3873L64.9213 47.9081ZM64.9039 47.8402C64.9074 47.8543 64.9139 47.8809 64.9216 47.9092L66.852 47.3862C66.8511 47.3829 66.8498 47.3778 66.8455 47.3602L64.9039 47.8402ZM64.8985 47.8171L64.8985 47.8171L66.8509 47.3833L66.8509 47.3832L64.8985 47.8171ZM64.9369 47.9102C64.9141 47.8663 64.9029 47.8323 64.8993 47.8206C64.8974 47.8147 64.8968 47.8123 64.8978 47.8159C64.899 47.8204 64.9004 47.8261 64.9039 47.8402L66.8454 47.3601C66.8373 47.3272 66.8004 47.1589 66.7118 46.9883L64.9369 47.9102ZM64.9401 47.9253C64.9523 47.9397 64.9584 47.947 64.9636 47.9534C64.9682 47.959 64.9685 47.9595 64.9665 47.9569C64.9623 47.9512 64.945 47.9273 64.9263 47.8891L66.7224 47.0094C66.6275 46.8155 66.4995 46.672 66.4659 46.6323L64.9401 47.9253ZM64.9253 47.9079L64.9395 47.9246L66.4664 46.633L66.4523 46.6162L64.9253 47.9079ZM64.8629 47.8297C64.8702 47.8392 64.8968 47.8746 64.9289 47.9121L66.4487 46.6121C66.4552 46.6196 66.4592 46.6247 66.4597 46.6254C66.46 46.6258 66.4598 46.6255 66.4587 46.6241C66.4575 46.6225 66.4561 46.6207 66.4535 46.6172L64.8629 47.8297ZM64.9394 47.9069C64.9032 47.8753 64.8786 47.8477 64.8666 47.8336C64.857 47.8223 64.8508 47.8138 64.8629 47.8297L66.4534 46.6172C66.4432 46.6037 66.3658 46.4969 66.2523 46.3981L64.9394 47.9069ZM64.9278 47.9067C64.9404 47.9122 64.9491 47.9164 64.9551 47.9193C64.961 47.9223 64.9632 47.9236 64.9626 47.9233C64.9615 47.9226 64.9473 47.9141 64.9274 47.8963L66.2643 46.4088C66.071 46.235 65.8678 46.1351 65.7315 46.0753L64.9278 47.9067ZM64.717 47.784C64.7178 47.7845 64.7397 47.8007 64.7657 47.8179C64.7942 47.8368 64.837 47.8634 64.8915 47.8899L65.7677 46.0921C65.8136 46.1144 65.8483 46.1361 65.8692 46.1499C65.8874 46.162 65.902 46.1728 65.8953 46.168L64.717 47.784ZM64.9185 47.8921C64.8476 47.8649 64.7938 47.8342 64.7602 47.813C64.7311 47.7947 64.7081 47.7775 64.7171 47.7841L65.8952 46.1679C65.8952 46.1679 65.8632 46.1441 65.8245 46.1198C65.7814 46.0926 65.7175 46.0565 65.6355 46.025L64.9185 47.8921ZM64.9676 47.9095L64.9698 47.9102L65.5843 46.0069L65.5821 46.0062L64.9676 47.9095ZM64.9618 47.9076L64.9671 47.9093L65.5826 46.0064L65.5773 46.0047L64.9618 47.9076ZM64.8521 47.8662C64.9035 47.8887 64.9487 47.9033 64.9567 47.906L65.5824 46.0063C65.5851 46.0072 65.5918 46.0095 65.6009 46.0128C65.6084 46.0155 65.6274 46.0224 65.6519 46.0331L64.8521 47.8662ZM64.8867 47.8806L64.8882 47.8811L65.6158 46.0182L65.6144 46.0176L64.8867 47.8806ZM64.8848 47.8798L64.8849 47.8799L65.6162 46.0184L65.6161 46.0183L64.8848 47.8798ZM64.9267 47.8934C64.9076 47.8879 64.8932 47.8828 64.8862 47.8803C64.8828 47.879 64.8808 47.8783 64.8811 47.8784C64.8817 47.8786 64.8828 47.879 64.8872 47.8808L65.6138 46.0174C65.6038 46.0135 65.5478 45.991 65.4811 45.9718L64.9267 47.8934ZM63.058 47.3662C63.9452 47.5624 64.6648 47.8037 64.8751 47.877L65.5327 45.9882C65.2815 45.9007 64.4814 45.6326 63.4898 45.4133L63.058 47.3662ZM61.5434 47.3378C62.2027 47.3058 62.7079 47.2887 63.058 47.3662L63.4898 45.4133C62.8225 45.2658 62.0181 45.3124 61.4464 45.3401L61.5434 47.3378ZM61.4948 47.339H61.4949V45.339H61.4948V47.339ZM60.722 47.3649C60.9905 47.3649 61.2788 47.3506 61.5434 47.3378L61.4463 45.3401C61.17 45.3536 60.9326 45.3649 60.722 45.3649V47.3649ZM59.9263 47.3288C60.1537 47.345 60.4262 47.3649 60.722 47.3649V45.3649C60.5081 45.3649 60.3041 45.3507 60.0689 45.3339L59.9263 47.3288ZM58.8626 47.3476C59.1736 47.2806 59.4613 47.2955 59.9263 47.3288L60.0689 45.3339C59.632 45.3026 59.0704 45.2569 58.4412 45.3925L58.8626 47.3476ZM60.6375 55.1907L59.6458 46.2597L57.658 46.4804L58.6497 55.4114L60.6375 55.1907ZM57.7845 57.7933C59.0259 57.6571 59.9168 56.5375 59.7797 55.3007L57.7918 55.5211C57.8077 55.6639 57.7042 55.7901 57.5663 55.8052L57.7845 57.7933ZM57.531 57.808C57.6313 57.8083 57.721 57.7999 57.7789 57.7939L57.572 55.8046C57.5543 55.8065 57.5438 55.8073 57.5373 55.8078C57.5309 55.8082 57.5319 55.808 57.5381 55.808L57.531 57.808ZM55.2919 55.7987C55.4207 56.9543 56.3974 57.808 57.5346 57.808V55.808C57.4064 55.808 57.2945 55.7105 57.2796 55.5772L55.2919 55.7987ZM54.3762 47.5518L55.2919 55.7983L57.2797 55.5776L56.364 47.3311L54.3762 47.5518ZM54.7477 48.301C54.872 48.3362 54.9789 48.367 55.0725 48.3962L55.6677 46.4868C55.5469 46.4491 55.4179 46.4122 55.2928 46.3767L54.7477 48.301ZM56.0202 55.924V47.3389H54.0202V55.924H56.0202ZM57.0192 68.2898L56.017 55.8438L54.0235 56.0043L55.0257 68.4504L57.0192 68.2898ZM54.7181 70.992C56.102 70.8824 57.1302 69.6694 57.0192 68.2899L55.0257 68.4503C55.0483 68.7312 54.8386 68.9762 54.5602 68.9983L54.7181 70.992ZM54.5163 71.0002C54.5895 71.0002 54.6567 70.9964 54.7093 70.9927L54.5689 68.9976C54.5389 68.9997 54.5235 69.0002 54.5163 69.0002V71.0002ZM52.0168 68.6918C52.1223 70.0061 53.2216 71.0002 54.5163 71.0002V69.0002C54.2546 69.0002 54.0317 68.7975 54.0104 68.5318L52.0168 68.6918ZM51.1124 57.4427L52.0168 68.692L54.0103 68.5317L53.1059 57.2824L51.1124 57.4427ZM51.5005 58.4923C51.8628 58.4923 52.2069 58.4132 52.5147 58.2766L51.7036 56.4485C51.6389 56.4772 51.5703 56.4923 51.5005 56.4923V58.4923ZM50.488 58.2774C50.7947 58.4128 51.1372 58.4923 51.5005 58.4923V56.4923C51.4317 56.4923 51.3633 56.4776 51.2956 56.4477L50.488 58.2774ZM50.9842 68.692L51.8886 57.4427L49.8951 57.2824L48.9906 68.5317L50.9842 68.692ZM48.4842 71.0002C49.7791 71.0002 50.8789 70.0062 50.9842 68.6916L48.9906 68.532C48.9694 68.7971 48.7467 69.0002 48.4842 69.0002V71.0002ZM48.2873 70.9924C48.3458 70.9968 48.4128 71.0002 48.4842 71.0002V69.0002C48.4752 69.0002 48.4595 68.9997 48.4354 68.9979L48.2873 70.9924ZM45.9811 68.2905C45.8709 69.6695 46.8987 70.8824 48.2824 70.992L48.4404 68.9983C48.1624 68.9763 47.9522 68.7314 47.9747 68.4497L45.9811 68.2905ZM46.9823 55.8438L45.9811 68.2899L47.9747 68.4503L48.9759 56.0042L46.9823 55.8438ZM46.9791 47.3392V55.924H48.9791V47.3392H46.9791ZM48.1954 48.3177C48.216 48.3117 48.237 48.3056 48.2583 48.2994L47.7 46.3789C47.6792 46.385 47.6587 46.3909 47.6381 46.3969L48.1954 48.3177ZM47.9207 48.3985C48.0022 48.3738 48.0922 48.3476 48.1955 48.3177L47.638 46.3969C47.5377 46.426 47.4348 46.4559 47.3388 46.4851L47.9207 48.3985ZM47.7075 55.7987L48.6237 47.5522L46.6359 47.3314L45.7197 55.5779L47.7075 55.7987ZM45.4648 57.8083C46.601 57.8083 47.5789 56.9537 47.7074 55.7989L45.7197 55.5776C45.705 55.7098 45.5921 55.8083 45.4648 55.8083V57.8083ZM45.1795 57.789C45.2927 57.8055 45.3925 57.8083 45.4648 57.8083V55.8083C45.4554 55.8083 45.4518 55.8081 45.4521 55.8081C45.4526 55.8081 45.4583 55.8085 45.468 55.8099L45.1795 57.789ZM43.219 55.3013C43.0825 56.5373 43.9723 57.6572 45.2148 57.7935L45.4327 55.8054C45.2947 55.7902 45.1911 55.6642 45.2069 55.5208L43.219 55.3013ZM44.2252 46.2454L43.2191 55.3006L45.2068 55.5215L46.2129 46.4663L44.2252 46.2454ZM44.3226 45.8749C44.3146 45.8948 44.2464 46.0514 44.225 46.247L46.2131 46.4647C46.2062 46.5276 46.1929 46.5757 46.1845 46.6022C46.1777 46.6233 46.1713 46.6384 46.1805 46.6154L44.3226 45.8749ZM44.3115 45.9124C44.3177 45.8897 44.3234 45.8736 44.3256 45.8676C44.3267 45.8646 44.3272 45.8632 44.3267 45.8645C44.326 45.8663 44.3251 45.8686 44.3226 45.8749L46.1805 46.6154C46.1866 46.6001 46.2175 46.5253 46.2415 46.4369L44.3115 45.9124ZM44.3209 45.8753C44.3158 45.8957 44.3133 45.9056 44.311 45.9141L46.242 46.4352C46.2499 46.4056 46.2569 46.3776 46.2613 46.3602L44.3209 45.8753ZM44.4666 45.4675C44.3731 45.6486 44.3329 45.8273 44.3209 45.8753L46.2613 46.3602C46.2634 46.3516 46.265 46.3452 46.2666 46.339C46.2681 46.3331 46.2692 46.3286 46.2702 46.3251C46.2721 46.3179 46.2725 46.3167 46.2718 46.319C46.2703 46.3237 46.262 46.3496 46.2436 46.3854L44.4666 45.4675ZM44.7453 45.0667C44.7002 45.1199 44.5639 45.2738 44.4616 45.4773L46.2485 46.3756C46.2346 46.4032 46.2235 46.4176 46.226 46.4142C46.2273 46.4125 46.2309 46.4078 46.2387 46.3983C46.2425 46.3937 46.247 46.3883 46.2525 46.3817C46.2581 46.375 46.264 46.3681 46.2713 46.3595L44.7453 45.0667ZM44.7606 45.0485C44.7559 45.0541 44.751 45.0599 44.7453 45.0667L46.2713 46.3595C46.2768 46.353 46.2832 46.3455 46.2897 46.3377L44.7606 45.0485ZM44.7649 45.0422C44.7617 45.0465 44.7596 45.0492 44.7577 45.0517C44.756 45.0541 44.755 45.0554 44.7545 45.056C44.7535 45.0573 44.7556 45.0546 44.7598 45.0496L46.2905 46.3367C46.3236 46.2974 46.3514 46.2602 46.3612 46.2472L44.7649 45.0422ZM44.9736 44.8101C44.8594 44.9123 44.7806 45.0215 44.7649 45.0422L46.3612 46.2472C46.3677 46.2385 46.3699 46.2357 46.3714 46.2338C46.3724 46.2324 46.3704 46.2351 46.3662 46.2401C46.3578 46.2502 46.3378 46.2731 46.3075 46.3003L44.9736 44.8101ZM45.5707 44.438C45.4129 44.5077 45.1876 44.6185 44.9734 44.8102L46.3076 46.3002C46.2983 46.3084 46.2951 46.3093 46.3049 46.3035C46.3162 46.2969 46.3375 46.2857 46.3784 46.2676L45.5707 44.438ZM45.4103 44.5294C45.4022 44.5354 45.4183 44.5232 45.4388 44.5097C45.4621 44.4943 45.5029 44.469 45.5575 44.444L46.3916 46.2617C46.4569 46.2318 46.5076 46.2006 46.5406 46.1789C46.5706 46.159 46.5961 46.14 46.5972 46.1391L45.4103 44.5294ZM45.6976 44.3731C45.6069 44.4061 45.5365 44.4456 45.4891 44.4754C45.4464 44.5022 45.4112 44.5287 45.4104 44.5293L46.5972 46.1392C46.6076 46.1315 46.5837 46.1497 46.553 46.1689C46.5175 46.1912 46.4598 46.224 46.3831 46.2519L45.6976 44.3731ZM45.6815 44.3803C45.6887 44.3772 45.6948 44.3747 45.6994 44.3729C45.7041 44.371 45.708 44.3695 45.711 44.3684C45.7166 44.3663 45.7204 44.365 45.7212 44.3647C45.7216 44.3645 45.7217 44.3645 45.7211 44.3647C45.7207 44.3649 45.7203 44.365 45.7196 44.3652C45.719 44.3654 45.718 44.3658 45.717 44.3662C45.7152 44.3668 45.7111 44.3682 45.7063 44.3699C45.7037 44.3708 45.7002 44.3721 45.6961 44.3736C45.6922 44.375 45.6864 44.3772 45.6794 44.3799L46.4013 46.2451C46.3899 46.2495 46.3812 46.2526 46.3791 46.2533C46.3762 46.2544 46.3741 46.2551 46.3747 46.2549C46.3765 46.2543 46.3743 46.255 46.3781 46.2537C46.3801 46.253 46.383 46.252 46.3864 46.2508C46.3931 46.2485 46.4032 46.2448 46.4152 46.2404C46.4267 46.236 46.4435 46.2295 46.4632 46.2212L45.6815 44.3803ZM45.7338 44.3597C45.729 44.3615 45.7278 44.3619 45.727 44.3622L46.4176 46.2392C46.4256 46.2363 46.4329 46.2335 46.4367 46.2321L45.7338 44.3597ZM45.8611 44.3172C45.7978 44.3351 45.7442 44.3558 45.7339 44.3597L46.4366 46.2321C46.4409 46.2305 46.4423 46.23 46.4432 46.2297C46.4439 46.2294 46.4424 46.23 46.4397 46.2309C46.4343 46.2328 46.4218 46.2371 46.4046 46.2419L45.8611 44.3172ZM46.0715 44.1929C45.9805 44.2434 45.9173 44.2784 45.8639 44.3058C45.8087 44.3342 45.7944 44.3385 45.8041 44.3352L46.4616 46.224C46.6736 46.1502 46.9008 46.02 47.042 45.9417L46.0715 44.1929ZM49.6658 43.1364C47.8118 43.2297 46.6929 43.8481 46.0715 44.1929L47.042 45.9417C47.5679 45.6499 48.3665 45.2043 49.7662 45.1339L49.6658 43.1364ZM52.8363 43.2407C51.995 43.6614 51.0046 43.6614 50.1632 43.2407L49.2688 45.0296C50.6732 45.7318 52.3263 45.7318 53.7308 45.0296L52.8363 43.2407ZM57.4002 44.4104C56.9804 44.1373 55.608 43.2536 53.335 43.1365L53.2321 45.1338C54.9987 45.2249 56.0203 45.8987 56.3095 46.0868L57.4002 44.4104ZM57.3015 44.3723C57.3419 44.3871 57.3726 44.4015 57.3888 44.4094C57.4066 44.418 57.4201 44.4253 57.4276 44.4295C57.442 44.4374 57.4502 44.4427 57.4478 44.4412C57.4466 44.4404 57.4424 44.4378 57.4334 44.432C57.4245 44.4262 57.4141 44.4195 57.4002 44.4104L56.3095 46.0868C56.3327 46.1019 56.3655 46.1234 56.3943 46.1412C56.4091 46.1503 56.4321 46.1644 56.4587 46.1791C56.4771 46.1893 56.5364 46.2221 56.6146 46.2507L57.3015 44.3723ZM57.6318 44.5521C57.6188 44.5428 57.4836 44.4386 57.3 44.3718L56.6161 46.2512C56.5525 46.2281 56.5062 46.2019 56.4813 46.1866C56.4609 46.174 56.4464 46.1631 56.4651 46.1765L57.6318 44.5521ZM57.5753 44.519C57.6039 44.5341 57.6242 44.5473 57.6327 44.553C57.6371 44.5559 57.6397 44.5578 57.6393 44.5575C57.6386 44.557 57.6372 44.556 57.6318 44.5521L56.465 46.1765C56.4754 46.184 56.5496 46.2391 56.6415 46.2876L57.5753 44.519ZM57.6076 44.5359C57.5942 44.5289 57.5848 44.5241 57.576 44.5194L56.6409 46.2873C56.6579 46.2963 56.6743 46.3048 56.6865 46.3112L57.6076 44.5359ZM58.0033 44.7944C57.8382 44.6505 57.6621 44.5641 57.6076 44.5359L56.6865 46.3112C56.6956 46.3159 56.7027 46.3195 56.7094 46.3231C56.716 46.3265 56.7211 46.3292 56.7254 46.3315C56.734 46.3362 56.737 46.3379 56.7366 46.3377C56.7356 46.3371 56.7159 46.3253 56.6892 46.3021L58.0033 44.7944ZM58.268 45.0884C58.2405 45.0516 58.1429 44.9155 58.0016 44.7929L56.6909 46.3035C56.6634 46.2797 56.6475 46.261 56.6446 46.2575C56.6432 46.2558 56.644 46.2566 56.6481 46.262C56.6501 46.2647 56.6527 46.268 56.656 46.2724C56.6595 46.2771 56.6632 46.2819 56.668 46.2884L58.268 45.0884ZM58.2895 45.1168C58.2847 45.1106 58.2792 45.1032 58.268 45.0884L56.668 46.2883C56.6776 46.3012 56.6929 46.3216 56.7095 46.343L58.2895 45.1168ZM58.2931 45.1203C58.2843 45.1098 58.2786 45.1029 58.2733 45.0964L56.7258 46.3634C56.7372 46.3773 56.7482 46.3906 56.7562 46.4001L58.2931 45.1203ZM58.5299 45.4648C58.4404 45.2912 58.3251 45.1588 58.2931 45.1203L56.7562 46.4001C56.7617 46.4068 56.766 46.4119 56.77 46.4168C56.7739 46.4215 56.7769 46.4251 56.7793 46.4281C56.7842 46.4342 56.7854 46.4358 56.7845 46.4347C56.7828 46.4323 56.7687 46.4133 56.7523 46.3814L58.5299 45.4648ZM58.6813 45.8869C58.6677 45.8333 58.625 45.6479 58.5283 45.4618L56.7538 46.3843C56.7451 46.3675 56.739 46.3536 56.7352 46.344C56.7314 46.3344 56.7295 46.3285 56.7293 46.3278C56.7291 46.3273 56.7301 46.3303 56.7325 46.3393C56.7337 46.3437 56.7351 46.349 56.7368 46.3557C56.7386 46.3627 56.7405 46.37 56.7428 46.3793L58.6813 45.8869ZM58.6909 45.9244C58.6883 45.9147 58.6856 45.9041 58.6813 45.8868L56.7428 46.3793C56.7467 46.3945 56.7523 46.4165 56.7584 46.4394L58.6909 45.9244ZM58.6783 45.8835C58.6757 45.8769 58.675 45.8752 58.6746 45.8742C58.6744 45.8736 58.6755 45.8765 58.6773 45.8815C58.6808 45.8912 58.6887 45.9141 58.6963 45.9455L56.753 46.4183C56.7786 46.5235 56.8156 46.6119 56.8211 46.6255L58.6783 45.8835ZM58.7736 46.2453C58.7522 46.0533 58.6841 45.898 58.6783 45.8834L56.8211 46.6255C56.8297 46.6472 56.823 46.6314 56.816 46.6096C56.8074 46.5829 56.7932 46.5326 56.7858 46.4661L58.7736 46.2453ZM59.7796 55.3005L58.7736 46.2453L56.7858 46.4661L57.7919 55.5213L59.7796 55.3005Z" fill="url(#paint6_linear_452_7881)" mask="url(#path-7-outside-1_452_7881)"/>
</g>
</g>
</g>
<defs>
<filter id="filter0_d_452_7881" x="-9" y="-6" width="120" height="120" filterUnits="userSpaceOnUse" color-interpolation-filters="sRGB">
<feFlood flood-opacity="0" result="BackgroundImageFix"/>
<feColorMatrix in="SourceAlpha" type="matrix" values="0 0 0 0 0 0 0 0 0 0 0 0 0 0 0 0 0 0 127 0" result="hardAlpha"/>
<feOffset/>
<feGaussianBlur stdDeviation="7"/>
<feComposite in2="hardAlpha" operator="out"/>
<feColorMatrix type="matrix" values="0 0 0 0 0.933333 0 0 0 0 0.886667 0 0 0 0 0.63 0 0 0 1 0"/>
<feBlend mode="normal" in2="BackgroundImageFix" result="effect1_dropShadow_452_7881"/>
<feBlend mode="normal" in="SourceGraphic" in2="effect1_dropShadow_452_7881" result="shape"/>
</filter>
<filter id="filter1_d_452_7881" x="14.9369" y="17.8684" width="73.1262" height="72.073" filterUnits="userSpaceOnUse" color-interpolation-filters="sRGB">
<feFlood flood-opacity="0" result="BackgroundImageFix"/>
<feColorMatrix in="SourceAlpha" type="matrix" values="0 0 0 0 0 0 0 0 0 0 0 0 0 0 0 0 0 0 127 0" result="hardAlpha"/>
<feOffset dy="1"/>
<feGaussianBlur stdDeviation="2.5"/>
<feComposite in2="hardAlpha" operator="out"/>
<feColorMatrix type="matrix" values="0 0 0 0 0 0 0 0 0 0 0 0 0 0 0 0 0 0 0.25 0"/>
<feBlend mode="normal" in2="BackgroundImageFix" result="effect1_dropShadow_452_7881"/>
<feBlend mode="normal" in="SourceGraphic" in2="effect1_dropShadow_452_7881" result="shape"/>
</filter>
<filter id="filter2_d_452_7881" x="14.9369" y="17.8684" width="73.1262" height="72.073" filterUnits="userSpaceOnUse" color-interpolation-filters="sRGB">
<feFlood flood-opacity="0" result="BackgroundImageFix"/>
<feColorMatrix in="SourceAlpha" type="matrix" values="0 0 0 0 0 0 0 0 0 0 0 0 0 0 0 0 0 0 127 0" result="hardAlpha"/>
<feOffset dy="1"/>
<feGaussianBlur stdDeviation="2.5"/>
<feComposite in2="hardAlpha" operator="out"/>
<feColorMatrix type="matrix" values="0 0 0 0 0 0 0 0 0 0 0 0 0 0 0 0 0 0 0.25 0"/>
<feBlend mode="normal" in2="BackgroundImageFix" result="effect1_dropShadow_452_7881"/>
<feBlend mode="normal" in="SourceGraphic" in2="effect1_dropShadow_452_7881" result="shape"/>
</filter>
<filter id="filter3_di_452_7881" x="17.5974" y="20.5977" width="67.8048" height="67.8049" filterUnits="userSpaceOnUse" color-interpolation-filters="sRGB">
<feFlood flood-opacity="0" result="BackgroundImageFix"/>
<feColorMatrix in="SourceAlpha" type="matrix" values="0 0 0 0 0 0 0 0 0 0 0 0 0 0 0 0 0 0 127 0" result="hardAlpha"/>
<feOffset dy="1"/>
<feGaussianBlur stdDeviation="2.5"/>
<feComposite in2="hardAlpha" operator="out"/>
<feColorMatrix type="matrix" values="0 0 0 0 0 0 0 0 0 0 0 0 0 0 0 0 0 0 0.25 0"/>
<feBlend mode="normal" in2="BackgroundImageFix" result="effect1_dropShadow_452_7881"/>
<feBlend mode="normal" in="SourceGraphic" in2="effect1_dropShadow_452_7881" result="shape"/>
<feColorMatrix in="SourceAlpha" type="matrix" values="0 0 0 0 0 0 0 0 0 0 0 0 0 0 0 0 0 0 127 0" result="hardAlpha"/>
<feOffset dy="4"/>
<feGaussianBlur stdDeviation="5.5"/>
<feComposite in2="hardAlpha" operator="arithmetic" k2="-1" k3="1"/>
<feColorMatrix type="matrix" values="0 0 0 0 0 0 0 0 0 0 0 0 0 0 0 0 0 0 0.79 0"/>
<feBlend mode="normal" in2="shape" result="effect2_innerShadow_452_7881"/>
</filter>
<filter id="filter4_di_452_7881" x="17.5974" y="20.5977" width="67.8048" height="67.8049" filterUnits="userSpaceOnUse" color-interpolation-filters="sRGB">
<feFlood flood-opacity="0" result="BackgroundImageFix"/>
<feColorMatrix in="SourceAlpha" type="matrix" values="0 0 0 0 0 0 0 0 0 0 0 0 0 0 0 0 0 0 127 0" result="hardAlpha"/>
<feOffset dy="1"/>
<feGaussianBlur stdDeviation="2.5"/>
<feComposite in2="hardAlpha" operator="out"/>
<feColorMatrix type="matrix" values="0 0 0 0 0 0 0 0 0 0 0 0 0 0 0 0 0 0 0.25 0"/>
<feBlend mode="normal" in2="BackgroundImageFix" result="effect1_dropShadow_452_7881"/>
<feBlend mode="normal" in="SourceGraphic" in2="effect1_dropShadow_452_7881" result="shape"/>
<feColorMatrix in="SourceAlpha" type="matrix" values="0 0 0 0 0 0 0 0 0 0 0 0 0 0 0 0 0 0 127 0" result="hardAlpha"/>
<feOffset dy="4"/>
<feGaussianBlur stdDeviation="5.5"/>
<feComposite in2="hardAlpha" operator="arithmetic" k2="-1" k3="1"/>
<feColorMatrix type="matrix" values="0 0 0 0 0 0 0 0 0 0 0 0 0 0 0 0 0 0 0.79 0"/>
<feBlend mode="normal" in2="shape" result="effect2_innerShadow_452_7881"/>
</filter>
<filter id="filter5_d_452_7881" x="29" y="30" width="45" height="47.0002" filterUnits="userSpaceOnUse" color-interpolation-filters="sRGB">
<feFlood flood-opacity="0" result="BackgroundImageFix"/>
<feColorMatrix in="SourceAlpha" type="matrix" values="0 0 0 0 0 0 0 0 0 0 0 0 0 0 0 0 0 0 127 0" result="hardAlpha"/>
<feOffset/>
<feGaussianBlur stdDeviation="3"/>
<feComposite in2="hardAlpha" operator="out"/>
<feColorMatrix type="matrix" values="0 0 0 0 0.629167 0 0 0 0 0.382114 0 0 0 0 0.304097 0 0 0 1 0"/>
<feBlend mode="normal" in2="BackgroundImageFix" result="effect1_dropShadow_452_7881"/>
<feBlend mode="normal" in="SourceGraphic" in2="effect1_dropShadow_452_7881" result="shape"/>
</filter>
<filter id="filter6_dd_452_7881" x="23.1134" y="26" width="56.6302" height="61.0002" filterUnits="userSpaceOnUse" color-interpolation-filters="sRGB">
<feFlood flood-opacity="0" result="BackgroundImageFix"/>
<feColorMatrix in="SourceAlpha" type="matrix" values="0 0 0 0 0 0 0 0 0 0 0 0 0 0 0 0 0 0 127 0" result="hardAlpha"/>
<feOffset dy="4"/>
<feGaussianBlur stdDeviation="6"/>
<feComposite in2="hardAlpha" operator="out"/>
<feColorMatrix type="matrix" values="0 0 0 0 0.02 0 0 0 0 1 0 0 0 0 0 0 0 0 1 0"/>
<feBlend mode="normal" in2="BackgroundImageFix" result="effect1_dropShadow_452_7881"/>
<feColorMatrix in="SourceAlpha" type="matrix" values="0 0 0 0 0 0 0 0 0 0 0 0 0 0 0 0 0 0 127 0" result="hardAlpha"/>
<feOffset dy="1"/>
<feGaussianBlur stdDeviation="5.5"/>
<feComposite in2="hardAlpha" operator="out"/>
<feColorMatrix type="matrix" values="0 0 0 0 0 0 0 0 0 0 0 0 0 0 0 0 0 0 0.4 0"/>
<feBlend mode="normal" in2="effect1_dropShadow_452_7881" result="effect2_dropShadow_452_7881"/>
<feBlend mode="normal" in="SourceGraphic" in2="effect2_dropShadow_452_7881" result="shape"/>
</filter>
<linearGradient id="paint0_linear_452_7881" x1="51.4997" y1="14" x2="51.4997" y2="93" gradientUnits="userSpaceOnUse">
<stop stop-color="#E5C313"/>
<stop offset="0.291667" stop-color="#FFFCCA"/>
<stop offset="0.536458" stop-color="#FFFBC8"/>
<stop offset="1" stop-color="#C9A838"/>
</linearGradient>
<linearGradient id="paint1_linear_452_7881" x1="51.5" y1="14" x2="51.5" y2="93" gradientUnits="userSpaceOnUse">
<stop stop-color="#FFF198"/>
<stop offset="0.111051" stop-color="#FFF6C0" stop-opacity="0.925253"/>
<stop offset="0.23417" stop-color="#CEBF64" stop-opacity="0.801818"/>
<stop offset="0.313725" stop-color="#FFFCED" stop-opacity="0.822145"/>
<stop offset="0.446315" stop-color="#BAA842" stop-opacity="0.912766"/>
<stop offset="0.544811" stop-color="#FFEE92" stop-opacity="0.956807"/>
<stop offset="0.641412" stop-color="#FFF0A2"/>
<stop offset="0.711496" stop-color="#AE9C3B" stop-opacity="0.841533"/>
<stop offset="0.849769" stop-color="#FFEE97" stop-opacity="0.903256"/>
<stop offset="1" stop-color="#FFF3B1"/>
</linearGradient>
<linearGradient id="paint2_linear_452_7881" x1="51.5004" y1="20.9999" x2="51.5004" y2="84.9999" gradientUnits="userSpaceOnUse">
<stop stop-color="#E5C313"/>
<stop offset="0.291667" stop-color="#FFFCCA"/>
<stop offset="0.536458" stop-color="#FFFBC8"/>
<stop offset="1" stop-color="#C9A838"/>
</linearGradient>
<linearGradient id="paint3_linear_452_7881" x1="51.5" y1="20.9999" x2="51.5" y2="84.9999" gradientUnits="userSpaceOnUse">
<stop stop-color="#FFF198"/>
<stop offset="0.111051" stop-color="#FFF6C0" stop-opacity="0.925253"/>
<stop offset="0.23417" stop-color="#CEBF64" stop-opacity="0.801818"/>
<stop offset="0.313725" stop-color="#FFFCED" stop-opacity="0.822145"/>
<stop offset="0.446315" stop-color="#BAA842" stop-opacity="0.912766"/>
<stop offset="0.544811" stop-color="#FFEE92" stop-opacity="0.956807"/>
<stop offset="0.641412" stop-color="#FFF0A2"/>
<stop offset="0.711496" stop-color="#AE9C3B" stop-opacity="0.841533"/>
<stop offset="0.849769" stop-color="#FFEE97" stop-opacity="0.903256"/>
<stop offset="1" stop-color="#FFF3B1"/>
</linearGradient>
<linearGradient id="paint4_linear_452_7881" x1="51.4998" y1="24.5977" x2="51.4998" y2="82.4025" gradientUnits="userSpaceOnUse">
<stop stop-color="#FFF198"/>
<stop offset="0.111051" stop-color="#FFF6C0" stop-opacity="0.925253"/>
<stop offset="0.23417" stop-color="#CEBF64" stop-opacity="0.801818"/>
<stop offset="0.313725" stop-color="#FFFCED" stop-opacity="0.822145"/>
<stop offset="0.446315" stop-color="#BAA842" stop-opacity="0.912766"/>
<stop offset="0.544811" stop-color="#FFEE92" stop-opacity="0.956807"/>
<stop offset="0.641412" stop-color="#FFF0A2"/>
<stop offset="0.711496" stop-color="#AE9C3B" stop-opacity="0.841533"/>
<stop offset="0.849769" stop-color="#FFEE97" stop-opacity="0.903256"/>
<stop offset="1" stop-color="#FFF3B1"/>
</linearGradient>
<linearGradient id="paint5_linear_452_7881" x1="51.4285" y1="37" x2="68.5408" y2="105.112" gradientUnits="userSpaceOnUse">
<stop offset="0.147416" stop-color="#EDEDED"/>
<stop offset="0.290375" stop-color="#BEB38A"/>
<stop offset="0.388067" stop-color="#B4AD94"/>
<stop offset="0.473078" stop-color="#938B76"/>
<stop offset="0.599749" stop-color="#EED490"/>
<stop offset="0.78066" stop-color="#A99259"/>
</linearGradient>
<linearGradient id="paint6_linear_452_7881" x1="51.4285" y1="37" x2="51.4285" y2="70.0002" gradientUnits="userSpaceOnUse">
<stop stop-color="white"/>
<stop offset="0.461977" stop-color="#AB9B48"/>
<stop offset="0.764663" stop-color="#D3C88B"/>
<stop offset="1" stop-color="#F5EAB0"/>
</linearGradient>
</defs>
</svg>
